<svg width="51" height="40" viewBox="0 0 51 40" fill="none" xmlns="http://www.w3.org/2000/svg">
<path d="M30.2736 0.0120782C30.2665 0.0191402 30.2157 0.0297307 30.1615 0.035615C30.1071 0.0426768 30.0258 0.0520921 29.9798 0.0579762C29.9349 0.0650358 29.8547 0.0744509 29.8027 0.0815104C29.7106 0.0944566 29.3885 0.142705 29.248 0.166242C29.209 0.172127 29.1453 0.182717 29.1064 0.189779C29.0675 0.195663 29.0097 0.205078 28.9766 0.210963C28.9447 0.216847 28.888 0.227437 28.8527 0.233322C28.7925 0.243912 28.5423 0.295692 28.4337 0.319228C28.4077 0.325113 28.3629 0.334528 28.3334 0.341587C28.1658 0.375717 27.9204 0.439265 27.7079 0.501635C27.6525 0.51811 27.5923 0.535763 27.5721 0.541647C27.5226 0.554593 27.2464 0.646384 27.2182 0.659328C27.2051 0.665212 27.1603 0.681689 27.1178 0.69581C27.0754 0.709932 27.0128 0.733469 26.9774 0.748765C26.9432 0.764065 26.9101 0.77701 26.9042 0.77701C26.8983 0.77701 26.8664 0.789954 26.8322 0.805254C26.7968 0.821729 26.7425 0.844088 26.7107 0.857034C26.6776 0.86998 26.5725 0.918229 26.4746 0.965302C26.2575 1.06886 26.1867 1.0924 26.0438 1.11358C25.8303 1.14418 25.5258 1.08651 25.259 0.965302C25.2166 0.945294 25.18 0.929996 25.1764 0.929996C25.1764 0.929996 25.1375 0.91352 25.095 0.894692C24.8825 0.795839 24.3798 0.615785 24.1143 0.541647C23.8983 0.481629 23.5502 0.395723 23.3944 0.365124C23.1855 0.323937 22.7925 0.254504 22.6509 0.235674C21.8035 0.117993 20.9419 0.0615048 20.2257 0.0768041C19.8314 0.0850414 19.3629 0.116816 19.0809 0.153298C19.0324 0.160358 18.9498 0.170949 18.898 0.17801C18.6419 0.210963 18.2123 0.287454 17.9833 0.342765C17.9278 0.35571 17.8594 0.372185 17.8298 0.379245C17.7674 0.394544 17.4157 0.491044 17.3637 0.507519C17.0545 0.605194 16.7182 0.724053 16.5812 0.78407C16.5576 0.794663 16.527 0.807607 16.5139 0.812314C16.501 0.817023 16.4656 0.832322 16.435 0.846443C16.4043 0.860564 16.3735 0.871155 16.3735 0.871155C16.3441 0.871155 15.676 1.20773 15.5971 1.26186C15.5805 1.27362 15.564 1.28304 15.5604 1.28304C15.5451 1.28304 15.1651 1.51959 15.0152 1.62196C14.5254 1.95736 14.2021 2.22802 13.7583 2.67051C13.3854 3.04239 13.1021 3.36836 12.8271 3.74259C12.5073 4.17801 12.4176 4.27451 12.2111 4.40984C11.9656 4.56989 11.7166 4.66992 11.3272 4.76524C11.2268 4.78996 11.1124 4.81702 11.0734 4.82526C11.0345 4.83232 10.979 4.84409 10.9495 4.84997C10.92 4.85586 10.8409 4.87116 10.7725 4.88527C10.704 4.89822 10.6143 4.91705 10.5718 4.92646C10.5294 4.93587 10.4715 4.94882 10.442 4.95589C10.4125 4.96295 10.3677 4.97236 10.3417 4.97825C9.84486 5.08886 9.1403 5.29364 8.72489 5.44897C8.58799 5.49957 8.28469 5.61726 8.24692 5.63374C8.17493 5.66551 8.16076 5.67139 8.0522 5.71729C7.29335 6.04209 6.53332 6.48927 5.92317 6.96589C5.53725 7.26834 5.08289 7.69787 4.76424 8.06151C4.55535 8.3004 4.33938 8.58166 4.15528 8.85586C4.03253 9.03826 3.8921 9.25832 3.8921 9.26774C3.8921 9.26774 3.87439 9.3007 3.85315 9.33482C3.77054 9.46427 3.52624 9.93617 3.43892 10.1327C3.4212 10.1751 3.39288 10.2374 3.37755 10.2716C3.35276 10.3245 3.31146 10.4257 3.26542 10.5411C3.25953 10.5564 3.25009 10.5799 3.24418 10.594C3.16393 10.7905 3.01878 11.2165 2.95858 11.4331C2.9515 11.459 2.94088 11.4931 2.93617 11.5096C2.91492 11.5778 2.85354 11.8073 2.83112 11.9038C2.82286 11.9356 2.81224 11.9815 2.80634 12.0038C2.80044 12.0262 2.78392 12.0921 2.76975 12.1509C2.7556 12.2086 2.72845 12.3122 2.70957 12.3804C2.69069 12.4487 2.67063 12.5193 2.66472 12.5393C2.65291 12.584 2.59391 12.7665 2.58211 12.7982C2.57621 12.8111 2.55261 12.8747 2.529 12.9393C2.50539 13.0041 2.4818 13.0665 2.47471 13.0771C2.46881 13.0888 2.46409 13.103 2.46409 13.1101C2.46409 13.1171 2.45229 13.1477 2.43931 13.1783C2.42515 13.2088 2.40745 13.249 2.39919 13.269C2.30241 13.4902 2.17141 13.7537 2.06992 13.928C1.88344 14.2457 1.79612 14.374 1.45977 14.8188C1.21902 15.1353 1.00659 15.4578 0.862604 15.7226C0.784713 15.8661 0.666696 16.0992 0.630111 16.1816C0.555761 16.3486 0.543959 16.3768 0.517996 16.4428C0.513274 16.4581 0.502653 16.4828 0.495572 16.4992C0.449546 16.6122 0.429483 16.664 0.383455 16.8052C0.291403 17.0795 0.237115 17.269 0.198169 17.4466C0.12736 17.7737 0.114377 17.8408 0.0907742 17.9938C-0.00717986 18.6352 -0.0248824 19.2295 0.0329459 19.9532C0.0388467 20.0308 0.0494682 20.171 0.0565493 20.2651C0.0636302 20.3592 0.0742518 20.4887 0.0801526 20.5535C0.0860534 20.6181 0.096675 20.7346 0.103756 20.8123C0.115558 20.9417 0.1309 21.0877 0.162764 21.3831C0.182827 21.562 0.217052 21.8432 0.233575 21.9573C0.281962 22.2833 0.307925 22.4116 0.358672 22.5716C0.422401 22.7741 0.515635 23.0495 0.540418 23.1071C0.545139 23.1201 0.567563 23.1753 0.587626 23.2307C0.640733 23.3672 0.661976 23.419 0.752849 23.6248C0.813037 23.7602 1.08566 24.3051 1.1069 24.331C1.11162 24.3368 1.12696 24.3627 1.14112 24.3863C1.15529 24.411 1.17771 24.451 1.19069 24.4746C1.20485 24.4992 1.23908 24.5557 1.2674 24.5993C1.29572 24.6428 1.31933 24.6817 1.31933 24.6852C1.31933 24.6958 1.5589 25.0441 1.65449 25.1725C2.19856 25.908 2.80044 26.4798 3.65724 27.0777C4.39958 27.5967 4.87754 28.1273 5.20562 28.8006C5.2422 28.8758 5.2729 28.9441 5.2729 28.9441C5.2729 28.9476 5.28352 28.9758 5.29767 29.0065C5.31184 29.0371 5.32718 29.0736 5.33308 29.0877C5.33898 29.103 5.34842 29.1265 5.35551 29.1406C5.37557 29.1888 5.49477 29.5596 5.53253 29.6913C5.60216 29.9362 5.84174 30.4905 5.93497 30.6235C5.94794 30.6398 5.9574 30.6563 5.9574 30.66C5.9574 30.6741 6.0636 30.8388 6.16982 30.9917C6.42474 31.3566 6.77525 31.7261 7.10687 31.9803C7.20837 32.0591 7.5164 32.2721 7.56242 32.2968C7.57895 32.3051 7.64503 32.3427 7.70994 32.3805C8.19499 32.6581 8.81458 32.8771 9.39168 32.9747C9.48727 32.99 9.79648 33.0312 9.92276 33.0441C10.0809 33.0606 10.7689 33.0606 10.9283 33.0441C11.3095 33.0053 11.5242 32.9747 11.8228 32.9135C11.8925 32.8993 12.184 32.8276 12.3362 32.7865C12.4306 32.7605 12.7647 32.6535 12.8083 32.6346C12.8213 32.6287 12.8638 32.6122 12.9027 32.5981C13.0053 32.5605 13.141 32.5052 13.213 32.4733C13.2472 32.4581 13.2803 32.4451 13.2803 32.4451C13.3122 32.4451 13.8385 32.1792 14.0391 32.0603C14.0875 32.0321 14.1301 32.0097 14.1301 32.0097C14.1524 32.0097 14.6764 31.665 14.8972 31.5048C15.2277 31.266 15.715 30.8611 16.0125 30.5798C16.383 30.2292 16.6285 30.0032 16.8208 29.8373C17.4782 29.269 18.2547 28.717 19.0042 28.2875C19.095 28.2357 19.2095 28.1721 19.2579 28.1462C19.3063 28.1203 19.3523 28.0956 19.3582 28.091C19.3889 28.0662 19.8798 27.8285 20.0722 27.7437C20.2693 27.6567 20.293 27.6472 20.5207 27.5672C20.5691 27.5496 20.6351 27.5261 20.667 27.5131C20.6989 27.5013 20.7319 27.4907 20.7402 27.4907C20.7673 27.4907 20.7697 27.4696 20.7473 27.3825C20.7355 27.3353 20.7189 27.2671 20.7107 27.2318C20.7036 27.1966 20.6918 27.1483 20.6859 27.126C20.68 27.1036 20.667 27.0506 20.6576 27.0082C20.6482 26.9658 20.6233 26.8623 20.6033 26.7787C20.5832 26.6941 20.562 26.6022 20.5549 26.5728C20.5478 26.5435 20.5384 26.5011 20.5325 26.4787C20.5265 26.4563 20.5136 26.4033 20.5041 26.361C20.4592 26.1668 20.4132 25.975 20.4027 25.9421C20.3956 25.9221 20.3908 25.895 20.3908 25.8808C20.3908 25.868 20.3861 25.8443 20.3803 25.8291C20.3743 25.8137 20.3637 25.775 20.3578 25.7432C20.3448 25.6855 20.2704 25.3713 20.2492 25.2901C20.2433 25.2677 20.2339 25.2253 20.2268 25.196C20.1313 24.7817 20.11 24.7017 20.0935 24.7017C20.0816 24.7017 19.8928 24.7358 19.6946 24.7723C19.4338 24.8217 18.898 24.9853 18.6123 25.103C18.597 25.1088 18.5733 25.1183 18.5592 25.1242C18.4377 25.1712 18.3562 25.2053 18.2925 25.2336C18.2523 25.2512 18.2158 25.2666 18.2123 25.2666C18.2087 25.2666 18.1556 25.2901 18.093 25.3195C18.0317 25.349 17.9762 25.3725 17.9762 25.3725C17.9633 25.3725 17.4924 25.6078 17.3708 25.675C17.2964 25.7161 17.234 25.7491 17.234 25.7491C17.234 25.7491 17.0014 25.8785 16.8775 25.9503C16.8208 25.9821 16.6296 26.0997 16.4432 26.2175C15.7422 26.66 14.8134 27.3777 14.189 27.9615C14.1442 28.0038 14.064 28.078 14.012 28.1262C13.9602 28.1745 13.8456 28.284 13.7583 28.3686C13.3382 28.777 12.9487 29.0747 12.5015 29.3325C12.3822 29.4007 12.053 29.5666 11.9763 29.5972C11.9538 29.6055 11.909 29.6255 11.8759 29.6396C11.6517 29.7396 11.2115 29.8761 10.9495 29.9256C10.5707 29.9973 10.2355 30.0021 9.91095 29.9397C9.43534 29.848 9.01167 29.5607 8.75203 29.156C8.68948 29.0571 8.58917 28.8523 8.55376 28.75C8.5455 28.7276 8.53606 28.6982 8.53016 28.6852C8.48767 28.5722 8.39326 28.1297 8.35431 27.8615C8.29295 27.4331 8.27052 27.1283 8.27052 26.7435C8.2717 26.4068 8.30828 25.9738 8.36375 25.6726C8.36966 25.6396 8.38027 25.582 8.38736 25.5431C8.40152 25.4607 8.43221 25.3325 8.47705 25.1666C8.49476 25.1018 8.51246 25.0323 8.51835 25.0136C8.53841 24.9347 8.64228 24.6393 8.66116 24.6052C8.66706 24.5935 8.67178 24.5793 8.67178 24.5722C8.67178 24.5475 8.81104 24.238 8.91372 24.0368C9.38224 23.1165 10.1033 22.2892 11.0911 21.5407C11.693 21.0853 12.4106 20.73 13.1683 20.5146C13.6143 20.3875 14.0097 20.3168 14.5667 20.2627C14.7732 20.2427 15.6018 20.2427 15.8059 20.2627C16.1776 20.2992 16.4019 20.3263 16.5907 20.3592C16.6569 20.371 16.9872 20.4368 17.0628 20.4533C17.0852 20.4581 17.1312 20.4687 17.1631 20.4757C17.2409 20.4911 17.5313 20.5663 17.5963 20.5863C17.6245 20.5957 17.6705 20.6098 17.7001 20.6181C17.8971 20.6746 18.4365 20.8617 18.5828 20.9241C18.597 20.9312 18.6206 20.9406 18.6359 20.9465C18.6501 20.9523 18.6867 20.9676 18.7174 20.9817C18.7481 20.9958 18.7763 21.0065 18.7799 21.0065C18.7858 21.0065 18.9074 21.0606 19.0986 21.1477C19.2059 21.196 19.5482 21.3677 19.6544 21.4242C20.0782 21.6561 20.3908 21.8467 20.7957 22.121C21.0989 22.3257 21.0931 22.3222 21.4472 22.5835C21.8353 22.8717 22.2696 23.2201 22.8055 23.672C22.9848 23.8238 23.6906 24.4368 23.9727 24.6852C24.6584 25.289 25.0678 25.6302 25.4538 25.9208C26.0745 26.3881 26.5407 26.6881 27.2535 27.0812C27.3373 27.1271 27.9864 27.4483 28.0619 27.4825C28.0844 27.492 28.1352 27.5142 28.1741 27.532C28.2862 27.5826 28.4668 27.6578 28.6521 27.7308C28.8774 27.8202 28.8645 27.8156 28.9116 27.832C28.934 27.8402 28.9636 27.8508 28.9766 27.8556C29.0864 27.9002 29.569 28.0603 29.7236 28.1038C29.7732 28.118 29.8405 28.1368 29.8853 28.1497C29.9054 28.1545 29.9821 28.1756 30.0564 28.1945C30.1308 28.2145 30.2241 28.2392 30.263 28.2498C30.3019 28.2603 30.3574 28.2733 30.3869 28.2803C30.4163 28.2862 30.4589 28.2968 30.4813 28.3016C30.5485 28.3181 30.9309 28.3968 31.0005 28.4098C32.0603 28.6005 33.1556 28.6558 34.1812 28.5722C34.3511 28.5581 34.606 28.5322 34.7417 28.5133C35.0002 28.4792 35.1075 28.464 35.2197 28.444C35.2527 28.4381 35.3129 28.4275 35.3554 28.4205C35.4262 28.4075 35.6304 28.3663 35.7743 28.3357C35.9383 28.3016 36.1426 28.2533 36.2877 28.2133C36.453 28.1686 36.4623 28.1662 36.5592 28.138C36.6076 28.1251 36.6642 28.1086 36.6831 28.1038C36.7173 28.0945 36.8955 28.0368 37.0489 27.9873C37.0879 27.9745 37.141 27.9556 37.1669 27.9462C37.1929 27.9367 37.2542 27.9143 37.3026 27.8967C37.3948 27.8638 37.5623 27.8015 37.6036 27.785C37.6167 27.7791 37.6698 27.7578 37.7216 27.7378C37.7736 27.7167 37.8349 27.692 37.8573 27.6826C37.8797 27.6731 37.9093 27.6602 37.9222 27.6543C37.973 27.6331 38.1867 27.5378 38.2645 27.5025C38.3778 27.452 38.7838 27.2483 38.9136 27.1788C39.047 27.1071 39.408 26.8988 39.5096 26.8341C39.5521 26.807 39.6099 26.7717 39.6394 26.7541C39.7468 26.6893 40.1811 26.3892 40.364 26.2516C41.3577 25.5078 42.198 24.6358 42.8931 23.6308C42.9581 23.5366 43.0135 23.4542 43.0159 23.4483C43.0183 23.4413 43.0454 23.399 43.0748 23.3542C43.1043 23.3083 43.1763 23.1977 43.2342 23.1071C43.5481 22.614 43.9611 22.2268 44.5076 21.9126C44.6445 21.8338 44.9702 21.6737 45.08 21.6302C45.1153 21.6161 45.1637 21.5972 45.1862 21.5866C45.2086 21.5772 45.2381 21.5643 45.2512 21.5596C45.2641 21.5548 45.2936 21.542 45.316 21.5325C45.3385 21.5231 45.3916 21.5007 45.434 21.4831C45.4765 21.4655 45.5391 21.4383 45.5733 21.4231C45.6075 21.4077 45.6406 21.3948 45.6406 21.3948C45.6512 21.3948 46.1468 21.1488 46.2366 21.0995C46.285 21.0723 46.3758 21.0206 46.4372 20.9841C46.4985 20.9476 46.554 20.9158 46.5611 20.9135C46.5671 20.9112 46.6873 20.8335 46.8266 20.7417C47.3306 20.4087 47.6611 20.1392 48.0847 19.7178C48.3313 19.472 48.4151 19.3836 48.5319 19.2471C48.5709 19.2025 48.6099 19.1577 48.6181 19.1495C48.6523 19.113 48.9049 18.7917 48.9804 18.6881C49.0253 18.627 49.0843 18.5446 49.1126 18.507C49.1728 18.4257 49.4111 18.068 49.4111 18.0597C49.4111 18.0562 49.4348 18.0173 49.4631 17.9738C49.5115 17.8985 49.7181 17.549 49.7181 17.5407C49.7181 17.5407 49.7476 17.4855 49.7841 17.4218C49.8396 17.3253 50.157 16.69 50.1901 16.6111C50.1948 16.5981 50.2161 16.5522 50.2361 16.5087C50.2561 16.4651 50.2727 16.4275 50.2727 16.424C50.2727 16.424 50.2916 16.3781 50.314 16.3298C50.3365 16.2803 50.3554 16.238 50.3554 16.2345C50.3554 16.231 50.366 16.2027 50.3801 16.1721C50.4214 16.0803 50.4238 16.0745 50.4733 15.9473C50.5229 15.8226 50.6468 15.4555 50.6728 15.3577C50.681 15.3283 50.6917 15.2883 50.6975 15.2695C50.7283 15.1625 50.7979 14.8517 50.8156 14.7423C50.8227 14.7058 50.8334 14.6422 50.8403 14.6011C50.8558 14.5105 50.8687 14.414 50.8887 14.2457C50.9112 14.0586 50.91 12.6863 50.8876 12.4981C50.838 12.0744 50.8061 11.892 50.707 11.4625C50.6964 11.4131 50.6905 11.3907 50.6633 11.2766C50.6575 11.253 50.6433 11.2012 50.6326 11.1624C50.5961 11.0294 50.5418 10.8211 50.5311 10.7741C50.5206 10.7199 50.4367 10.3951 50.4085 10.2916C50.3978 10.2527 50.3836 10.2021 50.3789 10.1798C50.3612 10.108 50.3471 10.0597 50.3046 9.92676C50.255 9.7726 50.2503 9.7573 50.2374 9.7267C50.2326 9.71376 50.2219 9.68434 50.2137 9.66197C50.1984 9.61609 50.1961 9.6102 50.1477 9.49134C50.1086 9.39249 49.9718 9.10887 49.9127 9.00296C49.8891 8.96059 49.7994 8.82055 49.7121 8.68992C49.0017 7.62844 48.1036 6.727 47.0863 6.05504C46.9659 5.97619 46.8526 5.90205 46.8325 5.89146C46.8137 5.88086 46.7653 5.85262 46.7264 5.82791C46.4088 5.62902 45.9167 5.37954 45.4931 5.20184C45.4116 5.16771 45.3278 5.13241 45.3078 5.123C45.2652 5.10534 45.159 5.06415 45.0151 5.0112C44.8392 4.94647 44.438 4.81585 44.248 4.76171C44.1441 4.73229 44.0437 4.70287 44.0237 4.69699C43.9482 4.67345 43.39 4.54165 43.3097 4.52752C43.2933 4.524 43.2378 4.5134 43.1858 4.50281C43.0183 4.46986 42.9757 4.46162 42.8022 4.43102C42.63 4.4016 42.5414 4.38749 42.3892 4.3663C41.9914 4.30981 41.8794 4.28981 41.6929 4.24274C41.5158 4.19919 41.4026 4.15801 41.2621 4.08857C41.058 3.98736 40.9636 3.90852 40.6342 3.56371C39.5355 2.41279 38.4663 1.60784 37.2378 1.00767C37.128 0.953534 36.997 0.892339 36.9486 0.871155C36.9003 0.849971 36.8341 0.821729 36.8011 0.806432C36.7693 0.792308 36.6784 0.755828 36.6005 0.724053C36.5225 0.693457 36.4483 0.664037 36.4352 0.659328C36.3444 0.621669 35.962 0.489867 35.8923 0.471039C35.8735 0.465154 35.8121 0.447502 35.7566 0.429849C35.6315 0.389838 35.6339 0.391014 35.3519 0.319228C35.1371 0.265095 35.0108 0.235674 34.8892 0.212138C34.8632 0.206254 34.8101 0.195663 34.7712 0.188602C34.6792 0.169773 34.6331 0.162712 34.3936 0.123877C34.1068 0.0779819 33.9191 0.0567985 33.6265 0.035615C33.5297 0.0285553 33.4482 0.0179625 33.4459 0.0109028C33.44 -0.00439647 30.289 -0.00321868 30.2736 0.0120782ZM32.4723 3.11299C32.68 3.12947 32.7507 3.13652 32.9892 3.16712C33.2747 3.20361 33.6441 3.27421 33.9097 3.34365C33.9357 3.35071 33.9758 3.3613 33.9982 3.36719C34.1304 3.40014 34.3605 3.47074 34.5351 3.53076C34.8656 3.64256 34.8821 3.64962 35.2374 3.80261C35.3117 3.83439 35.7626 4.05797 35.8334 4.09799C35.8594 4.11329 35.9183 4.14624 35.9632 4.17095C36.2181 4.31335 36.7386 4.66756 36.9144 4.8182C36.9368 4.8382 36.9958 4.88645 37.0442 4.92529C37.3534 5.17595 37.7264 5.55489 38.0344 5.93029C38.7036 6.74936 39.3385 7.24009 40.1599 7.57666C40.4194 7.68257 40.8621 7.81672 41.0674 7.85321C41.084 7.85674 41.1371 7.86734 41.1855 7.87675C41.3495 7.91087 41.6091 7.94854 41.7932 7.96619C42.1131 7.99679 42.2346 8.00266 42.4754 8.00266C43.0867 8.00266 43.4112 8.0415 43.9293 8.17919C44.1323 8.23215 44.5053 8.39101 44.7496 8.5287C45.4541 8.92411 46.1162 9.58784 46.6838 10.4669C46.7511 10.5693 46.8148 10.6693 46.8255 10.6905C46.8372 10.7105 46.881 10.7847 46.9234 10.8564C47.0567 11.0859 47.2255 11.446 47.3011 11.6684C47.307 11.6873 47.3175 11.7143 47.3223 11.7273C47.3695 11.845 47.4674 12.1945 47.4994 12.3628C47.5065 12.4016 47.517 12.4546 47.5229 12.4804C47.5288 12.5063 47.5394 12.5698 47.5465 12.6217C47.5536 12.6735 47.5643 12.7476 47.5701 12.7865C47.6209 13.1112 47.6198 13.7478 47.5701 14.081C47.5643 14.1197 47.5536 14.1938 47.5465 14.2457C47.5336 14.3351 47.5265 14.3775 47.4994 14.5105C47.471 14.6505 47.4557 14.7128 47.379 14.9812C47.373 15.0036 47.3648 15.0365 47.3612 15.0553C47.3577 15.073 47.3506 15.0906 47.3448 15.0942C47.3388 15.0977 47.3341 15.113 47.3341 15.1283C47.3341 15.1436 47.3293 15.1601 47.3223 15.1636C47.3164 15.1671 47.3104 15.1812 47.3104 15.1942C47.3104 15.206 47.3058 15.226 47.2999 15.2377C47.2928 15.2483 47.2739 15.2977 47.2562 15.346C47.2386 15.3942 47.2137 15.4578 47.2007 15.4872C47.1889 15.5166 47.1713 15.5555 47.1629 15.5755C47.0851 15.7591 46.9777 15.9721 46.8762 16.1486C46.8621 16.1733 46.8396 16.2133 46.8255 16.2368C46.7806 16.3168 46.5835 16.6087 46.4938 16.73C46.1822 17.1465 45.7244 17.6031 45.2959 17.9267C44.7685 18.3233 44.2256 18.6211 43.6225 18.847C43.4301 18.9188 43.2105 18.9871 42.9675 19.053C42.7385 19.1142 42.3881 19.1788 42.1531 19.2047C42.0918 19.2118 41.9892 19.2236 41.9254 19.2307C41.7744 19.2471 41.0627 19.2471 40.9223 19.2307C40.8621 19.2236 40.763 19.2118 40.7015 19.2047C40.567 19.1895 40.3487 19.1542 40.2354 19.1283C40.0984 19.0977 39.9545 19.0636 39.9227 19.053C39.9061 19.0482 39.8696 19.0377 39.84 19.0295C39.689 18.9871 39.4447 18.9023 39.3207 18.8493C39.2983 18.84 39.2452 18.8176 39.2027 18.8C39.0906 18.7528 38.9702 18.6917 38.9266 18.6587C38.9053 18.6422 38.8747 18.6046 38.8593 18.574C38.8345 18.5257 38.8309 18.5033 38.8309 18.3892C38.8309 18.2292 38.8487 18.1456 38.9313 17.9173C38.9833 17.7726 39.1414 17.4501 39.2358 17.2936C39.2712 17.2348 39.3101 17.1688 39.3231 17.1465C39.3833 17.0418 39.6028 16.7405 39.7892 16.5087C39.9014 16.3675 39.9935 16.2486 39.9935 16.2427C39.9935 16.2368 39.9309 16.1957 39.8554 16.1497C39.2582 15.7967 38.8014 15.5272 38.772 15.5107C38.7531 15.499 38.6941 15.4648 38.6421 15.4342C38.5903 15.4037 38.5324 15.3683 38.5124 15.3577C38.4935 15.346 38.4344 15.3118 38.3826 15.2812C38.3306 15.2495 38.2327 15.1918 38.1642 15.1518C38.0957 15.1118 37.9801 15.0436 37.9081 15.0012C37.7111 14.8847 37.5316 14.7787 37.3864 14.6941L37.2566 14.6176L37.0914 14.827C36.8294 15.1588 36.5309 15.5061 36.1992 15.8638C36.0658 16.0086 35.6209 16.4487 35.5053 16.5487C35.1666 16.8476 34.9435 16.9971 34.4998 17.223C34.3664 17.2912 34.1281 17.3983 33.9922 17.4525C33.9227 17.4807 33.6854 17.5643 33.6265 17.5831C33.6005 17.5902 33.5663 17.6007 33.5497 17.6067C33.3739 17.6631 33.0328 17.7443 32.8122 17.7808C32.4781 17.8361 32.3306 17.8467 31.8975 17.8467C31.4963 17.8467 31.4432 17.8432 31.154 17.8043C30.7421 17.7491 30.2394 17.6161 29.9089 17.4761C29.896 17.4701 29.8617 17.456 29.8321 17.4442C29.307 17.2301 28.717 16.8593 28.2767 16.4651C27.9557 16.1792 27.7882 15.9945 27.0612 15.1318C27.0234 15.0882 26.9903 15.0518 26.9845 15.0518C26.9797 15.0518 26.8204 15.1671 26.6304 15.3083C26.4416 15.4496 26.2115 15.6202 26.1206 15.6872C26.0298 15.7543 25.8232 15.9085 25.6604 16.0286C25.4987 16.1486 25.291 16.3027 25.2001 16.3698C24.905 16.5876 24.4684 16.9135 24.4589 16.923C24.4531 16.9276 24.4766 16.9723 24.512 17.0206C24.5462 17.0688 24.6064 17.1525 24.6453 17.2066C25.0702 17.8032 25.7866 18.5105 26.51 19.0482C26.7118 19.1988 27.0636 19.4413 27.1769 19.5072C27.1993 19.5213 27.276 19.5672 27.3456 19.6096C27.4164 19.6531 27.4754 19.6885 27.479 19.6885C27.479 19.6885 27.5084 19.7037 27.5392 19.7226C27.6701 19.8026 28.095 20.0191 28.3038 20.1121C28.3369 20.1262 28.39 20.1497 28.4219 20.1651C28.4549 20.1792 28.5577 20.2216 28.6521 20.2592C28.7465 20.2957 28.8338 20.331 28.8467 20.3357C28.8869 20.3533 29.1619 20.4498 29.2303 20.4711C29.3873 20.5193 29.5973 20.5805 29.7377 20.617C29.7603 20.6228 29.8003 20.6335 29.8263 20.6405C30.0127 20.6887 30.3632 20.7593 30.5934 20.7935C31.1186 20.8723 31.4019 20.8923 31.9683 20.8923C32.4286 20.8912 32.6363 20.8817 32.9833 20.8417C33.1709 20.8193 33.3798 20.7958 33.6064 20.7711C33.722 20.7593 33.8955 20.7428 34.1575 20.7217C34.3912 20.7017 35.1064 20.7017 35.2905 20.7217C35.5962 20.7535 35.7626 20.7817 36.008 20.843C36.4139 20.9441 36.7775 21.1006 37.2071 21.3583C37.5681 21.5748 38.0214 21.7726 38.4828 21.9126C38.5513 21.9326 38.6197 21.955 38.6363 21.9597C38.6528 21.9656 38.7354 21.9891 38.8192 22.0127C38.9042 22.035 38.9915 22.0597 39.0139 22.0656C39.0835 22.0856 39.3172 22.1456 39.4978 22.1892C39.8081 22.2645 39.8754 22.2868 39.8754 22.3103C39.8754 22.3692 39.3349 22.9658 39.0175 23.2566C38.864 23.3977 38.5832 23.6378 38.51 23.6896C38.497 23.6991 38.4321 23.7485 38.3648 23.7991C37.8775 24.1697 37.2354 24.5405 36.6476 24.79C36.6287 24.7982 36.5887 24.8158 36.5592 24.8276C36.5296 24.8406 36.4399 24.8758 36.3585 24.9065C36.2771 24.9371 36.2004 24.9665 36.1875 24.9723C36.1531 24.9876 35.8605 25.083 35.7566 25.1136C35.7082 25.1277 35.6551 25.1442 35.6386 25.1488C35.5489 25.1771 35.3199 25.236 35.1902 25.2653C35.1288 25.2795 35.0568 25.296 35.0309 25.3018C35.0049 25.3077 34.9258 25.3231 34.8538 25.336C34.4278 25.4137 34.2437 25.4372 33.7503 25.4783C33.5615 25.4937 32.726 25.4937 32.5478 25.4783C32.0639 25.436 31.8137 25.4042 31.5316 25.3501C31.3192 25.309 31.2839 25.3007 31.1895 25.2795C31.0265 25.243 30.8317 25.1925 30.6406 25.1371C30.5107 25.1006 30.1355 24.9758 30.0742 24.95C30.0611 24.9441 30.0057 24.9217 29.9502 24.9006C29.8947 24.8806 29.8287 24.8535 29.8027 24.843C29.7767 24.8311 29.7083 24.8028 29.6493 24.7782C29.5915 24.7535 29.4262 24.677 29.2834 24.6076C28.7323 24.3392 28.2554 24.0403 27.7634 23.6543C27.6925 23.599 27.6205 23.5437 27.6028 23.5307C27.453 23.4201 26.6304 22.7505 25.9259 22.1656C25.2661 21.6172 24.8814 21.3031 24.4742 20.9771C24.1508 20.7193 24.1213 20.6958 23.8924 20.5205C23.5206 20.2345 23.4498 20.1827 23.0639 19.905C22.6072 19.5766 21.9097 19.1236 21.5003 18.8917C21.4778 18.8788 21.4034 18.8365 21.335 18.7976C21.0636 18.6435 20.8346 18.5222 20.5443 18.3798C20.3083 18.2645 20.0604 18.1468 20.0533 18.1468C20.0533 18.1468 20.0214 18.1338 19.9872 18.1186C19.7654 18.0186 19.2968 17.8291 19.167 17.7878C19.1363 17.7773 19.0997 17.7643 19.0868 17.7585C19.0584 17.7455 18.6419 17.6067 18.5911 17.5937C18.5722 17.5878 18.5108 17.5702 18.4553 17.5537C18.2536 17.4913 17.7485 17.3618 17.5997 17.3348C17.5737 17.3301 17.5101 17.3172 17.4581 17.3066C17.0887 17.2325 16.7253 17.1783 16.3842 17.1465C16.0679 17.1183 15.9381 17.1112 15.6171 17.1042C14.8972 17.0888 14.1513 17.1501 13.4987 17.276C13.4691 17.2807 13.4113 17.2925 13.3689 17.2995C13.2556 17.3195 13.147 17.3442 12.826 17.4218C12.7056 17.4513 12.525 17.4996 12.4247 17.5302C12.3244 17.5596 12.2264 17.5878 12.2064 17.5937C12.1438 17.609 11.6552 17.775 11.5809 17.8056C11.5679 17.8102 11.5207 17.8291 11.4747 17.8467C11.4298 17.8632 11.3826 17.8832 11.372 17.8891C11.3602 17.895 11.346 17.8997 11.339 17.8997C11.3331 17.8997 11.3 17.9126 11.2658 17.928C11.2316 17.9432 11.1631 17.9726 11.1147 17.9915C11.0663 18.0115 10.9837 18.0468 10.9318 18.0703C10.8799 18.0938 10.8138 18.1245 10.7843 18.1373C10.7064 18.1727 10.324 18.3633 10.2449 18.4068C10.2072 18.4281 10.1399 18.4657 10.0939 18.4916C10.049 18.5175 9.98767 18.5516 9.96052 18.567C9.58996 18.7765 9.12615 19.0953 8.74259 19.4048C8.37792 19.6991 7.94125 20.1145 7.64031 20.4522C7.48217 20.6311 7.17296 21.0123 7.04314 21.1901C6.85431 21.449 6.5345 21.9432 6.40822 22.1716C6.39169 22.201 6.37517 22.2292 6.37045 22.2362C6.34449 22.2716 5.99398 22.9553 5.95267 23.0541C5.93969 23.0836 5.91137 23.1471 5.89012 23.1953C5.8677 23.2436 5.84527 23.2942 5.83938 23.3072C5.83465 23.3201 5.82167 23.3495 5.81104 23.3731C5.8016 23.3966 5.73906 23.5472 5.67415 23.7072C5.51129 24.1073 5.42277 24.2992 5.39445 24.3098C5.37557 24.3168 5.32718 24.2898 5.19264 24.1992C4.93655 24.0238 4.79256 23.9062 4.60374 23.7178C4.2131 23.326 3.87439 22.7858 3.65135 22.1951C3.62066 22.1138 3.58997 22.0386 3.58407 22.028C3.57818 22.0162 3.57345 21.9962 3.57345 21.9845C3.57345 21.9715 3.56873 21.9573 3.56165 21.9538C3.55575 21.9503 3.54985 21.9338 3.54985 21.9185C3.54985 21.9032 3.54513 21.888 3.53922 21.8843C3.53333 21.8808 3.52624 21.8632 3.52271 21.8456C3.51916 21.8267 3.5109 21.7937 3.50383 21.7715C3.47431 21.6691 3.42829 21.5031 3.42003 21.4655C3.31146 20.9936 3.243 20.4381 3.243 20.0297C3.243 19.7543 3.28549 19.2942 3.33741 19.0295C3.36575 18.88 3.37519 18.8317 3.38463 18.7941C3.39052 18.7717 3.40114 18.7258 3.40941 18.6941C3.43066 18.6022 3.53804 18.2516 3.56047 18.1997C3.56637 18.1868 3.60177 18.0997 3.63954 18.0056C4.12931 16.7876 5.10649 15.7191 6.24889 15.153C6.66903 14.9447 6.99948 14.8282 7.47391 14.7223C7.55652 14.7046 7.73118 14.6763 7.93418 14.6505C8.16312 14.6198 9.80592 14.627 10.0833 14.66L10.1446 14.6658L10.1576 14.5646C10.1718 14.4505 10.1907 14.2998 10.2001 14.2045C10.2036 14.1692 10.2119 14.1021 10.2178 14.0573C10.2237 14.0115 10.2343 13.9197 10.2414 13.8515C10.2485 13.7832 10.2591 13.6855 10.265 13.6337C10.2709 13.582 10.2815 13.4866 10.2886 13.4218C10.3028 13.289 10.3181 13.1465 10.3358 12.9947C10.3417 12.9382 10.3559 12.8206 10.3653 12.7335C10.3748 12.6463 10.3877 12.5298 10.3948 12.4746C10.4007 12.4193 10.4114 12.3216 10.4184 12.2569C10.4314 12.1333 10.4444 12.0191 10.4645 11.8508C10.4715 11.7955 10.4798 11.7143 10.4845 11.6696L10.4916 11.5884L10.3866 11.5955C10.3299 11.6002 10.1765 11.6108 10.0467 11.6214C9.2477 11.6802 7.98256 11.6708 7.49161 11.6037C7.44322 11.5967 7.36297 11.5861 7.31459 11.579C7.17178 11.559 7.0042 11.5225 6.88972 11.486C6.74457 11.4401 6.71625 11.4084 6.7304 11.3095C6.7422 11.2177 6.76581 11.1624 6.84724 11.0341C6.91804 10.9235 7.04787 10.7599 7.1647 10.6387C7.82323 9.95382 8.19028 9.59842 8.41214 9.4325C8.42985 9.41955 8.51009 9.35954 8.59035 9.29834C9.03881 8.96059 9.55927 8.67816 10.0939 8.48281C10.1836 8.44985 10.4385 8.36747 10.501 8.34982C11.0911 8.19331 11.4275 8.14624 12.1533 8.12035C12.3445 8.11329 12.5675 8.09916 12.649 8.08975C13.5258 7.98972 14.1679 7.74259 14.7615 7.27421C14.9078 7.15889 15.1886 6.87762 15.3268 6.70816C15.4259 6.58695 15.6891 6.20684 15.7315 6.12329C15.741 6.10564 15.7646 6.06327 15.7823 6.0315C15.8012 5.99855 15.8861 5.83379 15.9712 5.66432C16.2071 5.19714 16.3759 4.95706 16.6851 4.64756C17.005 4.32865 17.3271 4.1027 17.765 3.89086C18.1981 3.68021 18.5391 3.56842 19.0691 3.46132C19.3334 3.40837 19.3487 3.40602 19.6686 3.36719C19.9294 3.33424 20.1442 3.326 20.6151 3.326C21.0895 3.326 21.1827 3.32952 21.5238 3.36719C21.7658 3.39307 22.0172 3.43661 22.3322 3.50722C22.3877 3.52017 22.5281 3.55665 22.6214 3.58254C22.6981 3.60372 23.0061 3.70375 23.0403 3.71787C23.0533 3.72376 23.1194 3.75082 23.1879 3.77789C23.392 3.8591 23.6799 3.99442 23.8251 4.07799C23.8676 4.1027 23.9184 4.13094 23.9373 4.14271C24.1155 4.24391 24.368 4.4169 24.5569 4.56519C25.1222 5.00885 25.6308 5.60196 26.012 6.26097C26.025 6.28334 26.0509 6.32806 26.0698 6.361C26.1053 6.42337 26.32 6.85291 26.359 6.94354C26.3719 6.97295 26.4085 7.06004 26.4392 7.1377C26.4699 7.21537 26.4994 7.28951 26.5041 7.30246C26.5218 7.34365 26.5761 7.49899 26.6116 7.60844C26.6469 7.71787 26.6564 7.74847 26.6811 7.83791C26.6894 7.86734 26.7 7.90381 26.706 7.92029C26.7142 7.94617 26.7531 8.11446 26.7873 8.26745C26.7991 8.32159 26.8157 8.41691 26.8346 8.544C26.8417 8.59225 26.8522 8.66169 26.8593 8.69699C26.8653 8.73229 26.8712 8.77701 26.8724 8.79701C26.8759 8.82761 26.8806 8.83232 26.9113 8.83115C26.9313 8.82997 26.9774 8.82291 27.0152 8.81585C27.0517 8.80879 27.1131 8.79701 27.1509 8.78995C27.1874 8.7829 27.2394 8.77347 27.2653 8.7676C27.2913 8.76289 27.4483 8.73229 27.6134 8.69934C27.7787 8.66521 27.9439 8.63226 27.9793 8.6252C28.0148 8.61814 28.0655 8.60755 28.0914 8.60166C28.1174 8.59579 28.3806 8.544 28.6756 8.48516C28.9707 8.42632 29.2339 8.37454 29.2598 8.36865C29.2858 8.36277 29.3389 8.351 29.3778 8.34394C29.4167 8.33687 29.4698 8.32629 29.4958 8.32041C29.5218 8.31452 29.5726 8.30511 29.608 8.29805C29.9751 8.22509 30.0836 8.20272 30.0884 8.1992C30.0906 8.19684 30.0836 8.16271 30.0729 8.12505C30.0446 8.01679 29.9844 7.78966 29.9738 7.74376C29.9609 7.68727 29.9313 7.58372 29.9113 7.52017C29.9018 7.49075 29.8876 7.44367 29.8794 7.41426C29.8712 7.38484 29.8605 7.34835 29.8558 7.33187C29.8511 7.3154 29.8405 7.28127 29.8334 7.25539C29.8003 7.133 29.5702 6.42926 29.5489 6.38454C29.5431 6.3716 29.53 6.33747 29.5206 6.30805C29.4876 6.20802 29.3956 5.96089 29.3483 5.84321C29.3436 5.83026 29.3271 5.79025 29.3129 5.75495C29.2987 5.71964 29.2787 5.67139 29.2692 5.64904C29.2598 5.62667 29.2468 5.59725 29.2421 5.58431C29.2374 5.57136 29.2221 5.53606 29.2079 5.50546C29.1937 5.47486 29.1832 5.44662 29.1832 5.44309C29.1832 5.4372 29.1572 5.37954 29.0746 5.20184C28.9895 5.01707 28.8349 4.71935 28.7736 4.62285C28.7594 4.59814 28.7465 4.57342 28.7465 4.57342C28.7465 4.56401 28.5788 4.31216 28.5104 4.2192C28.4373 4.11917 28.3688 4.00502 28.3688 3.98501C28.3688 3.94147 28.4915 3.87204 28.8692 3.7014C29.1217 3.58725 29.5844 3.42837 29.9149 3.34365C30.126 3.28834 30.191 3.27304 30.3161 3.2495C30.6607 3.18125 30.9263 3.14359 31.2839 3.11417C31.5423 3.09181 32.1973 3.09181 32.4723 3.11299Z" fill="#FFBD17"/>
<path d="M24.769 28.3057C24.6911 28.3798 24.4019 28.6493 24.2615 28.7787C24.2191 28.8176 24.1376 28.8941 24.0786 28.9506C24.0207 29.0058 23.9358 29.0847 23.8898 29.1271C23.7812 29.2283 23.2419 29.7308 23.1286 29.8367C23.079 29.8826 22.9645 29.9897 22.8749 30.0744C22.6141 30.3168 22.3119 30.5993 22.1195 30.7782C22.0228 30.8699 21.9084 30.9758 21.8658 31.0147C21.8233 31.0536 21.7443 31.1277 21.6888 31.1794C21.5684 31.2936 21.5011 31.3572 21.1165 31.7149C20.9548 31.8656 20.7847 32.0244 20.7387 32.0668C20.694 32.1103 20.531 32.2609 20.3788 32.4033C19.9621 32.7917 19.758 32.9823 19.6529 33.0812C19.6011 33.1294 19.522 33.2036 19.4759 33.2459C19.4312 33.2871 19.3485 33.3636 19.293 33.4166C19.2375 33.4683 19.1526 33.5472 19.1042 33.5919C19.0216 33.6684 18.9579 33.7284 18.7053 33.9662C18.6499 34.0179 18.6002 34.0567 18.5897 34.0544C18.5755 34.0521 18.5602 34.0108 18.5365 33.9097C18.5165 33.8319 18.4964 33.7484 18.4905 33.7237C18.4834 33.7002 18.474 33.6602 18.4669 33.6354C18.461 33.6119 18.4316 33.4907 18.402 33.3683C18.3512 33.1542 18.343 33.1223 18.3147 33.0153C18.3088 32.9894 18.2734 32.8458 18.2368 32.6976C18.2014 32.5481 18.166 32.4081 18.1601 32.3857C18.1542 32.3633 18.1448 32.3209 18.1377 32.2916C18.1317 32.2621 18.1223 32.2256 18.1188 32.2092C18.114 32.1927 18.107 32.1609 18.1022 32.1386C18.0964 32.1162 18.0751 32.0314 18.0551 31.9502C17.9996 31.7337 17.9973 31.7254 17.9831 31.6619C17.9607 31.5678 17.9583 31.5619 17.9465 31.5619C17.9358 31.5619 17.7919 31.6761 17.2643 32.1021C17.131 32.2103 17.0082 32.3079 16.9906 32.3209C16.9728 32.3339 16.8796 32.4081 16.7829 32.4857C16.6117 32.6246 16.214 32.9447 15.6581 33.3907C15.5059 33.5131 15.3182 33.6637 15.2415 33.7249C15.1376 33.8084 15.1047 33.8414 15.1105 33.8556C15.1176 33.8732 15.1223 33.8919 15.1483 34.0038C15.1554 34.0297 15.186 34.1544 15.2191 34.2803C15.2509 34.4063 15.2804 34.5251 15.2851 34.5452C15.2899 34.5639 15.2982 34.6016 15.3053 34.6276C15.3111 34.6534 15.3218 34.6934 15.3266 34.7158C15.3324 34.7382 15.356 34.8311 15.3808 34.9217C15.4044 35.0123 15.4292 35.1064 15.435 35.1301C15.441 35.1547 15.4515 35.1959 15.4575 35.2218C15.4646 35.2477 15.4741 35.2889 15.4799 35.3124C15.4859 35.3372 15.4999 35.3889 15.5106 35.4277C15.5354 35.5196 15.6227 35.8514 15.6345 35.9043C15.6392 35.9267 15.6534 35.9773 15.664 36.0162C15.6947 36.1268 15.7537 36.3527 15.7644 36.3986C15.7691 36.4209 15.7903 36.5009 15.8104 36.5752C15.8835 36.8434 15.9083 36.9352 15.9295 37.0164C15.9544 37.1094 15.9968 37.2659 16.0357 37.4048C16.0499 37.4566 16.0665 37.5178 16.0712 37.5402C16.077 37.5624 16.0865 37.6002 16.0925 37.6226C16.1148 37.7013 16.1574 37.8532 16.1856 37.9579C16.2022 38.0156 16.2199 38.0791 16.2245 38.0991C16.2305 38.1179 16.2458 38.1744 16.2589 38.2227C16.2718 38.2709 16.286 38.3239 16.2907 38.3403C16.2942 38.3568 16.3107 38.4146 16.3262 38.4698C16.3426 38.5251 16.3604 38.5911 16.3674 38.6169C16.3745 38.6428 16.3851 38.6769 16.3898 38.6934C16.3946 38.7099 16.4051 38.7441 16.4122 38.7699C16.5019 39.0899 16.5244 39.1712 16.5444 39.2466C16.5574 39.2948 16.5739 39.3524 16.5799 39.3724C16.5857 39.3936 16.5952 39.4289 16.601 39.4489C16.607 39.4701 16.6164 39.5007 16.6199 39.5172C16.6247 39.5337 16.6388 39.5807 16.6518 39.6231C16.6648 39.6654 16.6801 39.7149 16.6848 39.7349C16.7108 39.8302 16.7297 39.9032 16.7368 39.9314C16.7403 39.9502 16.7487 39.9643 16.7545 39.9643C16.7592 39.9643 16.8324 39.8938 16.9162 39.8091C17.2136 39.5042 17.6621 39.0606 17.9076 38.8287C18.0444 38.6993 18.317 38.4404 18.5153 38.2533C18.7124 38.0649 18.9696 37.8214 19.0865 37.7119C19.2033 37.6013 19.3544 37.4577 19.4228 37.3931C19.4912 37.3283 19.5975 37.2271 19.6589 37.1694C19.7202 37.1106 19.8217 37.0153 19.8832 36.9576C19.9445 36.8988 20.0483 36.8011 20.1132 36.7399C20.1782 36.6787 20.2902 36.5728 20.3611 36.5046C20.4331 36.4363 20.6396 36.2409 20.8213 36.0691C21.0032 35.8973 21.2109 35.7019 21.2816 35.6337C21.3536 35.5654 21.4622 35.4631 21.5235 35.4054C21.585 35.3477 21.6841 35.2547 21.7419 35.1994C21.8009 35.1429 21.9437 35.0076 22.0606 34.8982C22.1774 34.7887 22.3178 34.6557 22.3733 34.6028C22.535 34.4498 23.1875 33.8343 23.4944 33.5448C23.5499 33.4931 23.6479 33.4001 23.7128 33.3389C23.7777 33.2766 23.8792 33.1812 23.937 33.1271C23.996 33.0718 24.1022 32.9717 24.1731 32.9034C24.245 32.8352 24.3512 32.7352 24.409 32.6811C24.4681 32.6257 24.566 32.5339 24.6274 32.4751C24.69 32.4163 24.8304 32.2833 24.9401 32.1797C25.0499 32.0762 25.1904 31.9432 25.2529 31.8843C25.3142 31.8267 25.4712 31.6784 25.601 31.5561C25.7309 31.4336 25.8795 31.2936 25.9315 31.2442C26.0696 31.1136 26.6643 30.5522 27.0172 30.2203C27.186 30.0627 27.3772 29.8814 27.442 29.8202C27.507 29.7578 27.5944 29.6743 27.6368 29.6354L27.7136 29.5624L27.5837 29.5024C27.5117 29.4683 27.4138 29.4224 27.3654 29.4001C27.317 29.3766 27.2367 29.3401 27.1883 29.3166C27.075 29.2648 26.9641 29.2129 26.8225 29.1459C26.7611 29.1177 26.6868 29.0836 26.6572 29.0694C26.6278 29.0564 26.5204 29.0058 26.4166 28.9564C26.3138 28.9069 26.2254 28.8669 26.2254 28.8669C26.2254 28.8669 26.1558 28.8352 26.0743 28.7964C25.9928 28.7587 25.9008 28.7152 25.8701 28.7011C25.8395 28.6869 25.7474 28.6446 25.6671 28.6069C25.5869 28.5681 25.5172 28.5374 25.5172 28.5374C25.5172 28.5374 25.4476 28.5057 25.3662 28.4668C25.2848 28.4292 25.1927 28.3857 25.162 28.3716C25.1313 28.3574 25.0499 28.3198 24.9827 28.2892C24.9154 28.2574 24.8575 28.2316 24.8528 28.2316C24.8493 28.2316 24.8115 28.2644 24.769 28.3057Z" fill="#FFBD17"/>
</svg>
