<svg width="41" height="27" viewBox="0 0 41 27" fill="none" xmlns="http://www.w3.org/2000/svg">
<path d="M24.3406 0.00966454C24.3349 0.0153141 24.2941 0.0237865 24.2504 0.0284939C24.2068 0.0341434 24.1413 0.0416756 24.1043 0.0463829C24.0682 0.0520306 24.0037 0.0595627 23.962 0.0652103C23.888 0.0755672 23.6289 0.114166 23.516 0.132996C23.4847 0.137703 23.4334 0.146175 23.4021 0.151825C23.3708 0.156532 23.3243 0.164064 23.2978 0.168772C23.2721 0.173479 23.2266 0.181952 23.1981 0.186659C23.1497 0.195131 22.9486 0.236555 22.8613 0.255384C22.8404 0.260092 22.8043 0.267624 22.7806 0.273272C22.6459 0.300575 22.4485 0.351414 22.2777 0.40131C22.2331 0.41449 22.1847 0.428612 22.1686 0.433319C22.1287 0.443676 21.9067 0.517109 21.8839 0.527464C21.8735 0.532171 21.8374 0.545353 21.8033 0.55665C21.7691 0.567947 21.7188 0.586777 21.6904 0.599014C21.6628 0.611254 21.6363 0.621611 21.6315 0.621611C21.6268 0.621611 21.6012 0.631966 21.5736 0.644205C21.5452 0.657385 21.5015 0.675272 21.4759 0.685629C21.4493 0.695986 21.3649 0.734585 21.2861 0.772243C21.1115 0.855091 21.0546 0.87392 20.9398 0.890865C20.768 0.915344 20.5232 0.869213 20.3088 0.772243C20.2746 0.756237 20.2452 0.743999 20.2424 0.743999C20.2405 0.743999 20.211 0.730818 20.1769 0.715755C20.0061 0.636673 19.6019 0.49263 19.3884 0.433319C19.2147 0.385305 18.9348 0.31658 18.8096 0.292101C18.6416 0.259151 18.3256 0.203606 18.2118 0.188541C17.5305 0.0943966 16.8378 0.0492058 16.2618 0.0614452C15.9449 0.0680351 15.5682 0.0934544 15.3414 0.122641C15.3025 0.128288 15.2361 0.136761 15.1943 0.14241C14.9884 0.168772 14.643 0.229965 14.4589 0.274214C14.4143 0.284571 14.3593 0.29775 14.3356 0.303398C14.2853 0.315638 14.0025 0.392838 13.9608 0.406017C13.7122 0.484158 13.4417 0.579245 13.3317 0.627258C13.3127 0.635733 13.288 0.646088 13.2776 0.649853C13.2671 0.65362 13.2387 0.665859 13.214 0.677156C13.1893 0.688454 13.1666 0.696926 13.1647 0.696926C13.1409 0.696926 12.6039 0.966183 12.5403 1.00949C12.527 1.0189 12.5137 1.02644 12.5109 1.02644C12.4986 1.02644 12.193 1.21567 12.0725 1.29757C11.6787 1.56589 11.4187 1.78242 11.062 2.13641C10.7621 2.43391 10.5344 2.69469 10.3133 2.99407C10.0561 3.34241 9.98403 3.41961 9.81797 3.52788C9.62061 3.65591 9.42039 3.73594 9.10726 3.81219C9.02661 3.83197 8.93457 3.85362 8.90325 3.86021C8.87194 3.86586 8.82734 3.87527 8.80362 3.87998C8.7799 3.88469 8.71632 3.89693 8.66129 3.90822C8.60625 3.91858 8.53414 3.93364 8.49998 3.94118C8.46582 3.94871 8.41933 3.95906 8.3956 3.96471C8.37188 3.97036 8.33582 3.97789 8.31495 3.9826C7.91547 4.07109 7.34899 4.23491 7.01498 4.35918C6.90491 4.39966 6.66105 4.49381 6.63069 4.50699C6.57281 4.53241 6.56142 4.53712 6.47412 4.57383C5.86399 4.83367 5.25292 5.19143 4.76235 5.57271C4.45206 5.81467 4.08674 6.1583 3.83055 6.44921C3.66259 6.64032 3.48895 6.86533 3.34092 7.08469C3.24224 7.23061 3.12932 7.40666 3.12932 7.4142C3.12932 7.41608 3.11509 7.44056 3.09801 7.46786C3.03159 7.57142 2.83517 7.94894 2.76495 8.10616C2.75072 8.14006 2.72795 8.18995 2.71561 8.21726C2.69569 8.25962 2.66248 8.34059 2.62547 8.43285C2.62072 8.44509 2.61313 8.46392 2.60839 8.47521C2.54387 8.63244 2.42715 8.97324 2.37876 9.14647C2.37307 9.16718 2.36453 9.19448 2.36073 9.20766C2.34365 9.26227 2.29431 9.44585 2.27628 9.52305C2.26964 9.54847 2.2611 9.58519 2.25636 9.60308C2.25161 9.62096 2.23833 9.67369 2.22694 9.72076C2.21555 9.76689 2.19373 9.84974 2.17855 9.90434C2.16337 9.95894 2.14723 10.0154 2.14249 10.0314C2.133 10.0672 2.08556 10.2131 2.07607 10.2386C2.07132 10.2489 2.05235 10.2998 2.03337 10.3515C2.01439 10.4033 1.99541 10.4532 1.98972 10.4617C1.98498 10.4711 1.98118 10.4824 1.98118 10.488C1.98118 10.4937 1.97169 10.5182 1.96125 10.5426C1.94987 10.5671 1.93563 10.5991 1.92899 10.6151C1.85118 10.7921 1.74586 11.003 1.66425 11.1424C1.51433 11.3965 1.44411 11.4992 1.17368 11.855C0.980113 12.1083 0.809315 12.3662 0.693551 12.5781C0.630925 12.6929 0.536037 12.8793 0.506622 12.9452C0.446843 13.0789 0.437354 13.1015 0.416479 13.1542C0.412683 13.1665 0.404143 13.1862 0.39845 13.1994C0.361444 13.2898 0.345313 13.3312 0.308306 13.4442C0.234294 13.6636 0.190645 13.8151 0.159332 13.9573C0.102399 14.219 0.0919618 14.2727 0.0729842 14.3951C-0.00577274 14.9082 -0.0200059 15.3836 0.0264892 15.9626C0.0312335 16.0247 0.0397735 16.1368 0.0454667 16.2121C0.05116 16.2874 0.0596999 16.391 0.0644443 16.4427C0.0691887 16.4945 0.0777286 16.5877 0.0834219 16.6499C0.0929107 16.7534 0.105246 16.8702 0.130866 17.1065C0.146997 17.2496 0.174514 17.4746 0.187799 17.5659C0.226703 17.8267 0.247578 17.9293 0.28838 18.0573C0.339619 18.2193 0.414581 18.4396 0.434507 18.4857C0.438303 18.496 0.456331 18.5403 0.472462 18.5845C0.515162 18.6937 0.532242 18.7352 0.605305 18.8999C0.653698 19.0082 0.872889 19.4441 0.889969 19.4648C0.893765 19.4695 0.9061 19.4902 0.917487 19.509C0.928873 19.5288 0.946902 19.5608 0.95734 19.5797C0.968726 19.5994 0.996244 19.6446 1.01902 19.6795C1.04179 19.7143 1.06077 19.7454 1.06077 19.7482C1.06077 19.7566 1.25339 20.0353 1.33025 20.1379C1.76768 20.7263 2.25161 21.1839 2.9405 21.6622C3.53734 22.0773 3.92164 22.5019 4.18543 23.0404C4.21484 23.1007 4.23951 23.1534 4.23951 23.1553C4.23951 23.1581 4.24805 23.1807 4.25944 23.2052C4.27083 23.2297 4.28316 23.2589 4.28791 23.2702C4.29265 23.2824 4.30024 23.3012 4.30593 23.3125C4.32207 23.3511 4.4179 23.6477 4.44827 23.7531C4.50425 23.9489 4.69687 24.3924 4.77183 24.4988C4.78227 24.5119 4.78986 24.5251 4.78986 24.5279C4.78986 24.5392 4.87526 24.671 4.96066 24.7934C5.16562 25.0853 5.44744 25.3809 5.71407 25.5842C5.79567 25.6473 6.04333 25.8177 6.08034 25.8375C6.09362 25.8441 6.14676 25.8742 6.19895 25.9043C6.58894 26.1265 7.0871 26.3016 7.5511 26.3798C7.62796 26.392 7.87657 26.425 7.9781 26.4353C8.10525 26.4485 8.65844 26.4485 8.78654 26.4353C9.09303 26.4043 9.26573 26.3798 9.50579 26.3308C9.56178 26.3195 9.79615 26.2621 9.91856 26.2291C9.99446 26.2084 10.263 26.1228 10.2981 26.1077C10.3085 26.103 10.3427 26.0898 10.374 26.0785C10.4566 26.0484 10.5657 26.0041 10.6236 25.9787C10.6511 25.9665 10.6758 25.9561 10.6777 25.9561C10.7033 25.9561 11.1265 25.7434 11.2878 25.6483C11.3267 25.6257 11.359 25.6078 11.3609 25.6078C11.3789 25.6078 11.8002 25.3319 11.9776 25.2039C12.2433 25.0128 12.6352 24.6889 12.8743 24.4639C13.1723 24.1834 13.3696 24.0026 13.5243 23.8699C14.0528 23.4151 14.6772 22.9736 15.2797 22.63C15.3528 22.5885 15.4448 22.5377 15.4837 22.517C15.5226 22.4963 15.5596 22.4765 15.5644 22.4727C15.5891 22.453 15.9838 22.2628 16.1385 22.195C16.2969 22.1253 16.3159 22.1178 16.499 22.0538C16.5379 22.0397 16.5911 22.0208 16.6167 22.0105C16.6423 22.0011 16.6689 21.9926 16.6755 21.9926C16.6973 21.9926 16.6992 21.9757 16.6812 21.906C16.6717 21.8683 16.6584 21.8137 16.6518 21.7855C16.6461 21.7572 16.6366 21.7186 16.6319 21.7008C16.6271 21.6829 16.6167 21.6405 16.6091 21.6066C16.6015 21.5727 16.5816 21.4899 16.5655 21.423C16.5493 21.3552 16.5322 21.2818 16.5266 21.2583C16.5209 21.2347 16.5133 21.2008 16.5085 21.183C16.5038 21.1651 16.4933 21.1227 16.4857 21.0888C16.4497 20.9335 16.4127 20.78 16.4041 20.7536C16.3985 20.7376 16.3947 20.716 16.3947 20.7047C16.3947 20.6943 16.3909 20.6755 16.3861 20.6633C16.3814 20.651 16.3728 20.62 16.3681 20.5945C16.3576 20.5484 16.2979 20.297 16.2808 20.2321C16.276 20.2142 16.2685 20.1803 16.2628 20.1568C16.1859 19.8254 16.1688 19.7614 16.1555 19.7614C16.146 19.7614 15.9942 19.7887 15.8348 19.8178C15.6251 19.8574 15.1943 19.9882 14.9647 20.0824C14.9524 20.0871 14.9334 20.0946 14.922 20.0993C14.8243 20.137 14.7588 20.1643 14.7075 20.1869C14.6753 20.201 14.6459 20.2133 14.643 20.2133C14.6402 20.2133 14.5975 20.2321 14.5472 20.2556C14.4978 20.2792 14.4551 20.298 14.4532 20.298C14.4428 20.298 14.0642 20.4863 13.9665 20.5399C13.9067 20.5729 13.8574 20.5993 13.8564 20.5993C13.8545 20.5993 13.6695 20.7028 13.5698 20.7602C13.5243 20.7857 13.3706 20.8798 13.2207 20.9739C12.657 21.3279 11.9103 21.9022 11.4083 22.3692C11.3722 22.4031 11.3077 22.4624 11.266 22.501C11.2242 22.5396 11.1322 22.6271 11.062 22.6949C10.7242 23.0216 10.411 23.2598 10.0514 23.466C9.95556 23.5206 9.69082 23.6533 9.62915 23.6778C9.61112 23.6844 9.57506 23.7004 9.54849 23.7117C9.36821 23.7917 9.01427 23.9009 8.80362 23.9405C8.49903 23.9979 8.22955 24.0017 7.96861 23.9518C7.58621 23.8783 7.24556 23.6486 7.03681 23.3248C6.98652 23.2457 6.90586 23.0819 6.8774 23C6.87075 22.9821 6.86316 22.9585 6.85842 22.9482C6.82426 22.8578 6.74835 22.5038 6.71704 22.2892C6.66769 21.9465 6.64967 21.7026 6.64967 21.3948C6.65061 21.1255 6.68003 20.7791 6.72463 20.5381C6.72937 20.5117 6.73791 20.4656 6.74361 20.4345C6.75499 20.3686 6.77966 20.266 6.81572 20.1332C6.82995 20.0815 6.84419 20.0259 6.84893 20.0108C6.86506 19.9478 6.94856 19.7115 6.96375 19.6842C6.96849 19.6747 6.97228 19.6634 6.97228 19.6578C6.97228 19.638 7.08425 19.3904 7.16681 19.2294C7.54351 18.4932 8.12328 17.8314 8.91749 17.2326C9.40142 16.8683 9.97833 16.584 10.5875 16.4117C10.9462 16.31 11.2641 16.2535 11.7119 16.2102C11.878 16.1942 12.5441 16.1942 12.7083 16.2102C13.0072 16.2394 13.1874 16.261 13.3393 16.2874C13.3924 16.2968 13.6581 16.3495 13.7188 16.3627C13.7368 16.3665 13.7739 16.3749 13.7995 16.3806C13.8621 16.3928 14.0955 16.4531 14.1477 16.4691C14.1705 16.4766 14.2075 16.4879 14.2312 16.4945C14.3897 16.5397 14.8233 16.6894 14.941 16.7393C14.9524 16.7449 14.9713 16.7525 14.9837 16.7572C14.9951 16.7619 15.0245 16.7741 15.0491 16.7854C15.0738 16.7967 15.0966 16.8052 15.0994 16.8052C15.1042 16.8052 15.2019 16.8485 15.3556 16.9182C15.442 16.9568 15.7172 17.0942 15.8026 17.1394C16.1432 17.3249 16.3947 17.4774 16.7201 17.6967C16.964 17.8606 16.9592 17.8577 17.2439 18.0667C17.5561 18.2974 17.9053 18.5761 18.3361 18.9376C18.4803 19.059 19.0477 19.5495 19.2745 19.7482C19.8258 20.2311 20.1551 20.5042 20.4653 20.7367C20.9645 21.1105 21.3393 21.3505 21.9124 21.665C21.9798 21.7017 22.5016 21.9587 22.5624 21.986C22.5804 21.9935 22.6212 22.0114 22.6525 22.0256C22.7427 22.066 22.8878 22.1263 23.0368 22.1847C23.218 22.2562 23.2076 22.2524 23.2456 22.2656C23.2636 22.2722 23.2873 22.2807 23.2978 22.2845C23.386 22.3202 23.7741 22.4483 23.8984 22.4831C23.9382 22.4944 23.9923 22.5095 24.0284 22.5198C24.0445 22.5236 24.1062 22.5405 24.166 22.5556C24.2258 22.5716 24.3007 22.5914 24.332 22.5998C24.3633 22.6083 24.4079 22.6187 24.4317 22.6243C24.4554 22.629 24.4895 22.6375 24.5076 22.6413C24.5617 22.6544 24.8691 22.7175 24.9251 22.7279C25.7772 22.8804 26.6577 22.9246 27.4823 22.8578C27.6189 22.8465 27.8239 22.8258 27.933 22.8107C28.1408 22.7834 28.2272 22.7712 28.3173 22.7552C28.3439 22.7505 28.3923 22.742 28.4264 22.7364C28.4834 22.726 28.6475 22.693 28.7633 22.6686C28.8952 22.6413 29.0593 22.6027 29.1761 22.5707C29.3089 22.5349 29.3165 22.533 29.3943 22.5104C29.4332 22.5 29.4788 22.4869 29.4939 22.4831C29.5215 22.4756 29.6647 22.4294 29.7881 22.3899C29.8194 22.3795 29.8621 22.3645 29.883 22.3569C29.9038 22.3494 29.9532 22.3315 29.9921 22.3174C30.0661 22.291 30.2008 22.2411 30.2341 22.228C30.2445 22.2233 30.2872 22.2063 30.3289 22.1903C30.3707 22.1734 30.42 22.1536 30.4381 22.1461C30.4561 22.1385 30.4798 22.1282 30.4903 22.1235C30.5311 22.1065 30.7028 22.0303 30.7654 22.002C30.8565 21.9615 31.1829 21.7987 31.2873 21.7431C31.3945 21.6857 31.6849 21.5191 31.7665 21.4673C31.8007 21.4456 31.8472 21.4174 31.8709 21.4033C31.9572 21.3515 32.3064 21.1114 32.4535 21.0013C33.2524 20.4063 33.928 19.7086 34.4869 18.9046C34.5391 18.8293 34.5837 18.7634 34.5856 18.7587C34.5875 18.7531 34.6093 18.7192 34.6331 18.6834C34.6568 18.6467 34.7147 18.5582 34.7612 18.4857C35.0136 18.0912 35.3457 17.7815 35.785 17.5301C35.8951 17.467 36.157 17.339 36.2452 17.3042C36.2737 17.2929 36.3126 17.2778 36.3306 17.2693C36.3486 17.2618 36.3724 17.2514 36.3828 17.2477C36.3932 17.2439 36.417 17.2336 36.435 17.226C36.453 17.2185 36.4957 17.2006 36.5299 17.1865C36.564 17.1724 36.6143 17.1507 36.6418 17.1385C36.6694 17.1262 36.694 17.1159 36.6959 17.1159C36.7045 17.1159 37.103 16.9191 37.1751 16.8796C37.214 16.8579 37.2871 16.8165 37.3364 16.7873C37.3858 16.7581 37.4304 16.7327 37.4361 16.7308C37.4408 16.7289 37.5376 16.6668 37.6496 16.5934C38.0547 16.3269 38.3204 16.1113 38.6611 15.7743C38.8594 15.5775 38.9267 15.5069 39.0207 15.3977C39.052 15.3619 39.0833 15.3262 39.09 15.3196C39.1175 15.2904 39.3205 15.0334 39.3813 14.9505C39.4173 14.9016 39.4648 14.8357 39.4875 14.8055C39.5359 14.7406 39.7276 14.4544 39.7276 14.4478C39.7276 14.445 39.7466 14.4139 39.7693 14.3791C39.8083 14.3188 39.9743 14.0392 39.9743 14.0326C39.9743 14.0317 39.998 13.9884 40.0274 13.9375C40.072 13.8603 40.3273 13.3519 40.3539 13.2889C40.3577 13.2785 40.3747 13.2418 40.3909 13.207C40.407 13.1721 40.4203 13.142 40.4203 13.1392C40.4203 13.1373 40.4355 13.1025 40.4535 13.0639C40.4715 13.0243 40.4867 12.9904 40.4867 12.9876C40.4867 12.9848 40.4952 12.9622 40.5066 12.9377C40.5398 12.8643 40.5417 12.8596 40.5816 12.7579C40.6214 12.6581 40.7211 12.3644 40.742 12.2862C40.7486 12.2627 40.7571 12.2307 40.7619 12.2156C40.7865 12.1299 40.8425 11.8814 40.8568 11.7938C40.8625 11.7647 40.871 11.7138 40.8767 11.6809C40.889 11.6084 40.8995 11.5312 40.9156 11.3965C40.9336 11.2469 40.9327 10.1491 40.9146 9.99849C40.8748 9.65956 40.8492 9.51364 40.7695 9.17001C40.7609 9.13047 40.7562 9.11258 40.7344 9.02126C40.7296 9.00243 40.7182 8.961 40.7097 8.92994C40.6803 8.82355 40.6366 8.65691 40.6281 8.61926C40.6195 8.57595 40.5522 8.31611 40.5294 8.23326C40.5209 8.20219 40.5095 8.16171 40.5057 8.14382C40.4914 8.08639 40.4801 8.04779 40.4459 7.94141C40.406 7.81808 40.4023 7.80584 40.3918 7.78136C40.388 7.77101 40.3795 7.74747 40.3728 7.72958C40.3605 7.69287 40.3586 7.68816 40.3197 7.59307C40.2884 7.51399 40.1783 7.2871 40.1309 7.20237C40.1119 7.16848 40.0398 7.05644 39.9696 6.95194C39.3983 6.10275 38.6762 5.3816 37.8583 4.84403C37.7615 4.78095 37.6704 4.72164 37.6543 4.71317C37.6391 4.70469 37.6002 4.6821 37.5689 4.66233C37.3136 4.50322 36.918 4.30363 36.5773 4.16147C36.5118 4.13417 36.4445 4.10593 36.4283 4.0984C36.3942 4.08428 36.3088 4.05132 36.193 4.00896C36.0516 3.95718 35.729 3.85268 35.5763 3.80937C35.4927 3.78584 35.4121 3.7623 35.396 3.75759C35.3352 3.73876 34.8864 3.63332 34.8219 3.62202C34.8086 3.6192 34.764 3.61073 34.7223 3.60225C34.5875 3.57589 34.5534 3.5693 34.4139 3.54482C34.2753 3.52129 34.2042 3.50999 34.0818 3.49304C33.762 3.44785 33.6719 3.43185 33.5219 3.39419C33.3796 3.35936 33.2885 3.32641 33.1756 3.27086C33.0114 3.1899 32.9355 3.12682 32.6708 2.85097C31.7874 1.93023 30.9277 1.28628 29.9399 0.806135C29.8517 0.762829 29.7463 0.713873 29.7074 0.696926C29.6685 0.679979 29.6154 0.657385 29.5888 0.645147C29.5632 0.633848 29.4901 0.604664 29.4275 0.579245C29.3649 0.554768 29.3051 0.531231 29.2947 0.527464C29.2216 0.497337 28.9142 0.391895 28.8582 0.376833C28.843 0.372126 28.7937 0.358004 28.7491 0.343882C28.6485 0.311872 28.6504 0.312813 28.4236 0.255384C28.2509 0.212078 28.1494 0.188541 28.0516 0.169712C28.0308 0.165005 27.9881 0.156532 27.9567 0.150883C27.8827 0.13582 27.8457 0.130171 27.6531 0.0991039C27.4225 0.0623875 27.2717 0.0454407 27.0363 0.0284939C26.9585 0.0228462 26.8931 0.0143719 26.8912 0.00872421C26.8864 -0.00351524 24.3529 -0.00257301 24.3406 0.00966454ZM26.1083 2.49039C26.2753 2.50358 26.3323 2.50922 26.5239 2.5337C26.7536 2.56289 27.0506 2.61937 27.2641 2.67492C27.2849 2.68057 27.3172 2.68904 27.3352 2.69375C27.4415 2.72011 27.6265 2.7766 27.767 2.82461C28.0327 2.91405 28.0459 2.9197 28.3316 3.04209C28.3913 3.06751 28.7538 3.24638 28.8107 3.27839C28.8316 3.29063 28.8791 3.31699 28.9151 3.33676C29.1201 3.45068 29.5385 3.73405 29.6799 3.85456C29.6979 3.87057 29.7454 3.90916 29.7843 3.94023C30.0329 4.14076 30.3327 4.44391 30.5804 4.74423C31.1184 5.39949 31.6289 5.79207 32.2893 6.06133C32.4981 6.14606 32.8539 6.25338 33.019 6.28257C33.0323 6.28539 33.075 6.29387 33.1139 6.3014C33.2458 6.3287 33.4546 6.35883 33.6026 6.37295C33.8597 6.39743 33.9575 6.40213 34.151 6.40213C34.6426 6.40213 34.9035 6.4332 35.3201 6.54335C35.4833 6.58572 35.7831 6.71281 35.9795 6.82296C36.546 7.13929 37.0783 7.67027 37.5347 8.37354C37.5888 8.45544 37.6401 8.53547 37.6486 8.55241C37.6581 8.56842 37.6932 8.62773 37.7274 8.68516C37.8346 8.86874 37.9703 9.15683 38.031 9.33476C38.0357 9.34982 38.0443 9.37148 38.0481 9.38183C38.086 9.47598 38.1648 9.75559 38.1904 9.89022C38.1961 9.92129 38.2046 9.96365 38.2094 9.98436C38.2141 10.0051 38.2227 10.0559 38.2284 10.0973C38.2341 10.1388 38.2426 10.1981 38.2473 10.2291C38.2881 10.489 38.2872 10.9983 38.2473 11.2647C38.2426 11.2958 38.2341 11.3551 38.2284 11.3965C38.2179 11.4681 38.2122 11.502 38.1904 11.6084C38.1676 11.7204 38.1553 11.7703 38.0936 11.985C38.0889 12.0028 38.0822 12.0292 38.0794 12.0443C38.0765 12.0584 38.0709 12.0725 38.0661 12.0753C38.0614 12.0782 38.0576 12.0904 38.0576 12.1026C38.0576 12.1149 38.0538 12.1281 38.0481 12.1309C38.0433 12.1337 38.0386 12.145 38.0386 12.1554C38.0386 12.1648 38.0348 12.1808 38.0301 12.1902C38.0244 12.1987 38.0092 12.2382 37.9949 12.2768C37.9807 12.3154 37.9608 12.3662 37.9503 12.3898C37.9409 12.4133 37.9266 12.4444 37.92 12.4604C37.8574 12.6073 37.771 12.7777 37.6894 12.9189C37.678 12.9386 37.66 12.9707 37.6486 12.9895C37.6125 13.0535 37.4541 13.287 37.382 13.384C37.1315 13.7172 36.7633 14.0825 36.4189 14.3414C35.9947 14.6587 35.5582 14.8969 35.0733 15.0776C34.9187 15.1351 34.7422 15.1897 34.5467 15.2424C34.3626 15.2913 34.0808 15.3431 33.892 15.3638C33.8426 15.3695 33.7601 15.3789 33.7089 15.3845C33.5874 15.3977 33.0152 15.3977 32.9023 15.3845C32.8539 15.3789 32.7742 15.3695 32.7249 15.3638C32.6167 15.3516 32.4412 15.3233 32.3501 15.3026C32.24 15.2782 32.1242 15.2509 32.0986 15.2424C32.0853 15.2386 32.0559 15.2301 32.0322 15.2236C31.9107 15.1897 31.7143 15.1219 31.6147 15.0795C31.5967 15.072 31.554 15.0541 31.5198 15.04C31.4296 15.0023 31.3329 14.9534 31.2978 14.927C31.2807 14.9138 31.256 14.8837 31.2437 14.8592C31.2237 14.8206 31.2209 14.8027 31.2209 14.7114C31.2209 14.5834 31.2351 14.5165 31.3015 14.3339C31.3433 14.2181 31.4705 13.9601 31.5464 13.8349C31.5748 13.7878 31.6061 13.7351 31.6166 13.7172C31.665 13.6334 31.8415 13.3924 31.9914 13.207C32.0815 13.094 32.1555 12.9989 32.1555 12.9942C32.1555 12.9895 32.1053 12.9565 32.0445 12.9198C31.5644 12.6374 31.1972 12.4218 31.1735 12.4086C31.1583 12.3992 31.1108 12.3719 31.0691 12.3474C31.0273 12.3229 30.9808 12.2947 30.9647 12.2862C30.9495 12.2768 30.9021 12.2495 30.8603 12.225C30.8186 12.1996 30.7398 12.1535 30.6848 12.1215C30.6297 12.0895 30.5368 12.0348 30.4789 12.001C30.3204 11.9078 30.1762 11.823 30.0595 11.7552L29.9551 11.694L29.8222 11.8616C29.6116 12.1271 29.3715 12.4048 29.1049 12.691C28.9977 12.8068 28.6399 13.1589 28.547 13.239C28.2746 13.4781 28.0953 13.5977 27.7385 13.7784C27.6313 13.833 27.4396 13.9187 27.3305 13.962C27.2745 13.9846 27.0838 14.0514 27.0363 14.0665C27.0155 14.0722 26.9879 14.0806 26.9747 14.0853C26.8333 14.1305 26.559 14.1955 26.3816 14.2247C26.1131 14.2689 25.9945 14.2774 25.6462 14.2774C25.3236 14.2774 25.2809 14.2746 25.0484 14.2435C24.7173 14.1993 24.3131 14.0929 24.0474 13.9808C24.0369 13.9761 24.0094 13.9648 23.9857 13.9554C23.5634 13.7841 23.089 13.4875 22.7351 13.1721C22.477 12.9434 22.3422 12.7955 21.7577 12.1055C21.7274 12.0706 21.7008 12.0414 21.696 12.0414C21.6922 12.0414 21.5641 12.1337 21.4114 12.2467C21.2596 12.3597 21.0745 12.4962 21.0015 12.5498C20.9284 12.6035 20.7623 12.7268 20.6314 12.8228C20.5014 12.9189 20.3344 13.0422 20.2613 13.0959C20.0241 13.27 19.673 13.5308 19.6654 13.5384C19.6607 13.5421 19.6797 13.5779 19.7081 13.6165C19.7357 13.6551 19.7841 13.7219 19.8154 13.7652C20.157 14.2426 20.7329 14.8084 21.3146 15.2386C21.4769 15.3591 21.7596 15.5531 21.8507 15.6058C21.8687 15.6171 21.9304 15.6538 21.9864 15.6877C22.0433 15.7225 22.0908 15.7508 22.0936 15.7508C22.0955 15.7508 22.1173 15.763 22.142 15.7781C22.2473 15.8421 22.5889 16.0153 22.7569 16.0897C22.7835 16.101 22.8262 16.1198 22.8518 16.1321C22.8783 16.1434 22.9609 16.1772 23.0368 16.2074C23.1127 16.2366 23.1829 16.2648 23.1934 16.2686C23.2256 16.2827 23.4467 16.3599 23.5018 16.3768C23.628 16.4154 23.7969 16.4644 23.9098 16.4936C23.9278 16.4983 23.9601 16.5068 23.9809 16.5124C24.1309 16.551 24.4127 16.6075 24.5977 16.6348C25.02 16.6979 25.2477 16.7139 25.7032 16.7139C26.0732 16.7129 26.2402 16.7054 26.5192 16.6734C26.6701 16.6555 26.838 16.6367 27.0202 16.6169C27.1132 16.6075 27.2527 16.5943 27.4633 16.5774C27.6512 16.5614 28.2262 16.5614 28.3743 16.5774C28.62 16.6028 28.7538 16.6254 28.9512 16.6743C29.2776 16.7553 29.5698 16.8805 29.9152 17.0867C30.2056 17.2599 30.57 17.4181 30.941 17.5301C30.996 17.5461 31.051 17.564 31.0643 17.5678C31.0776 17.5725 31.144 17.5913 31.2114 17.6101C31.2797 17.628 31.3499 17.6478 31.368 17.6525C31.424 17.6685 31.6118 17.7165 31.757 17.7514C32.0066 17.8116 32.0607 17.8295 32.0607 17.8483C32.0607 17.8954 31.6261 18.3727 31.3708 18.6053C31.2475 18.7182 31.0216 18.9103 30.9628 18.9517C30.9524 18.9592 30.9002 18.9988 30.8461 19.0393C30.4542 19.3358 29.938 19.6324 29.4655 19.832C29.4503 19.8386 29.418 19.8527 29.3943 19.8621C29.3706 19.8724 29.2985 19.9007 29.233 19.9252C29.1675 19.9496 29.1058 19.9732 29.0954 19.9779C29.0679 19.9901 28.8326 20.0664 28.7491 20.0909C28.7102 20.1022 28.6675 20.1153 28.6542 20.1191C28.5821 20.1417 28.398 20.1888 28.2936 20.2123C28.2443 20.2236 28.1864 20.2368 28.1655 20.2415C28.1446 20.2462 28.0811 20.2584 28.0232 20.2688C27.6806 20.3309 27.5326 20.3498 27.136 20.3827C26.9841 20.395 26.3123 20.395 26.1691 20.3827C25.78 20.3488 25.5789 20.3234 25.3521 20.2801C25.1813 20.2471 25.1528 20.2406 25.0769 20.2236C24.946 20.1944 24.7894 20.1539 24.6357 20.1097C24.5313 20.0805 24.2296 19.9807 24.1802 19.96C24.1698 19.9553 24.1252 19.9374 24.0806 19.9205C24.036 19.9045 23.9828 19.8828 23.962 19.8743C23.9411 19.8649 23.8861 19.8423 23.8386 19.8226C23.7921 19.8028 23.6593 19.7416 23.5445 19.686C23.1013 19.4714 22.718 19.2323 22.3223 18.9235C22.2654 18.8792 22.2075 18.835 22.1933 18.8246C22.0727 18.7361 21.4114 18.2004 20.8449 17.7325C20.3145 17.2938 20.0051 17.0424 19.6778 16.7817C19.4178 16.5755 19.3941 16.5567 19.21 16.4164C18.9111 16.1876 18.8542 16.1462 18.5439 15.924C18.1767 15.6613 17.6159 15.2989 17.2866 15.1134C17.2686 15.103 17.2088 15.0692 17.1538 15.0381C16.9355 14.9148 16.7514 14.8178 16.518 14.7039C16.3282 14.6116 16.129 14.5175 16.1233 14.5175C16.1214 14.5175 16.0977 14.5071 16.0701 14.4949C15.8917 14.4148 15.515 14.2633 15.4107 14.2303C15.386 14.2218 15.3566 14.2115 15.3461 14.2068C15.3234 14.1964 14.9884 14.0853 14.9476 14.075C14.9324 14.0703 14.8831 14.0561 14.8385 14.043C14.6762 13.9931 14.2701 13.8895 14.1506 13.8679C14.1297 13.8641 14.0784 13.8537 14.0367 13.8453C13.7397 13.786 13.4474 13.7426 13.1732 13.7172C12.9189 13.6946 12.8145 13.689 12.5564 13.6833C11.9776 13.6711 11.3779 13.7201 10.8532 13.8208C10.8295 13.8246 10.783 13.834 10.7488 13.8396C10.6577 13.8556 10.5704 13.8754 10.3123 13.9375C10.2156 13.9611 10.0704 13.9997 9.98972 14.0241C9.90907 14.0477 9.83031 14.0703 9.81418 14.075C9.76389 14.0872 9.37105 14.22 9.31127 14.2444C9.30083 14.2482 9.26288 14.2633 9.22587 14.2774C9.18982 14.2906 9.15186 14.3066 9.14332 14.3113C9.13383 14.316 9.12245 14.3198 9.11675 14.3198C9.11201 14.3198 9.08544 14.3301 9.05792 14.3424C9.0304 14.3546 8.97537 14.3781 8.93647 14.3932C8.89756 14.4092 8.83114 14.4374 8.78939 14.4563C8.74764 14.4751 8.6945 14.4996 8.67078 14.5099C8.60815 14.5382 8.30072 14.6907 8.23714 14.7255C8.20678 14.7425 8.15269 14.7726 8.11568 14.7933C8.07963 14.814 8.03028 14.8413 8.00846 14.8536C7.71051 15.0211 7.3376 15.2763 7.02922 15.5239C6.73601 15.7592 6.38493 16.0916 6.14296 16.3618C6.01581 16.5049 5.76721 16.8099 5.66283 16.9521C5.51101 17.1592 5.25386 17.5546 5.15233 17.7372C5.13905 17.7608 5.12577 17.7834 5.12197 17.789C5.1011 17.8173 4.81928 18.3642 4.78607 18.4433C4.77563 18.4669 4.75286 18.5177 4.73578 18.5563C4.71775 18.5949 4.69972 18.6354 4.69497 18.6457C4.69118 18.6561 4.68074 18.6796 4.6722 18.6985C4.66461 18.7173 4.61432 18.8378 4.56213 18.9658C4.43119 19.2859 4.36002 19.4394 4.33725 19.4479C4.32207 19.4535 4.28316 19.4318 4.17499 19.3594C3.96908 19.2191 3.85332 19.1249 3.7015 18.9743C3.38742 18.6608 3.11509 18.2287 2.93575 17.7561C2.91108 17.6911 2.88641 17.6308 2.88167 17.6224C2.87692 17.613 2.87313 17.597 2.87313 17.5875C2.87313 17.5772 2.86933 17.5659 2.86364 17.5631C2.85889 17.5602 2.85415 17.5471 2.85415 17.5348C2.85415 17.5226 2.85035 17.5103 2.84561 17.5075C2.84086 17.5047 2.83517 17.4906 2.83232 17.4764C2.82948 17.4614 2.82284 17.435 2.81714 17.4171C2.79342 17.3352 2.75641 17.2025 2.74977 17.1724C2.66248 16.7948 2.60744 16.3505 2.60744 16.0238C2.60744 15.8035 2.6416 15.4354 2.68335 15.2236C2.70612 15.104 2.71372 15.0654 2.72131 15.0353C2.72605 15.0174 2.73459 14.9807 2.74123 14.9552C2.75831 14.8818 2.84466 14.6013 2.86269 14.5598C2.86743 14.5495 2.8959 14.4798 2.92626 14.4045C3.32005 13.4301 4.10572 12.5752 5.02424 12.1224C5.36204 11.9558 5.62772 11.8626 6.00917 11.7778C6.07559 11.7637 6.21603 11.7411 6.37924 11.7204C6.56332 11.6959 7.88416 11.7016 8.10714 11.7279L8.15649 11.7326L8.16692 11.6517C8.17831 11.5604 8.19349 11.4399 8.20108 11.3636C8.20393 11.3354 8.21057 11.2817 8.21532 11.2459C8.22006 11.2092 8.2286 11.1358 8.23429 11.0812C8.23999 11.0266 8.24853 10.9484 8.25327 10.907C8.25802 10.8656 8.26656 10.7893 8.27225 10.7375C8.28364 10.6311 8.29597 10.5172 8.3102 10.3958C8.31495 10.3506 8.32634 10.2564 8.33393 10.1868C8.34152 10.1171 8.35196 10.0239 8.35765 9.97966C8.36239 9.93541 8.37093 9.85727 8.37663 9.80549C8.38706 9.70663 8.3975 9.61531 8.41363 9.48069C8.41933 9.43644 8.42597 9.37148 8.42976 9.3357L8.43546 9.27074L8.35101 9.27639C8.30546 9.28016 8.18211 9.28863 8.07773 9.2971C7.43534 9.34418 6.41814 9.33664 6.02341 9.28298C5.9845 9.27733 5.91998 9.26886 5.88107 9.26321C5.76626 9.24721 5.63152 9.21802 5.53948 9.18884C5.42277 9.15212 5.39999 9.1267 5.41138 9.04762C5.42087 8.97418 5.43985 8.92994 5.50532 8.82732C5.56225 8.73882 5.66663 8.60796 5.76057 8.51099C6.29004 7.96306 6.58514 7.67875 6.76353 7.546C6.77776 7.53564 6.84229 7.48763 6.90681 7.43867C7.26739 7.16848 7.68584 6.94253 8.11568 6.78625C8.1878 6.75989 8.39276 6.69398 8.44305 6.67986C8.91749 6.55465 9.18792 6.51699 9.77148 6.49628C9.9252 6.49063 10.1045 6.47933 10.17 6.4718C10.875 6.39178 11.3912 6.19407 11.8685 5.81937C11.9862 5.72711 12.212 5.5021 12.323 5.36654C12.4027 5.26957 12.6143 4.96548 12.6485 4.89863C12.6561 4.88451 12.675 4.85062 12.6893 4.8252C12.7045 4.79884 12.7728 4.66704 12.8411 4.53147C13.0309 4.15771 13.1666 3.96565 13.4152 3.71805C13.6723 3.46292 13.9314 3.28216 14.2834 3.1127C14.6316 2.94418 14.9059 2.85474 15.3319 2.76907C15.5445 2.7267 15.5568 2.72482 15.8139 2.69375C16.0236 2.66739 16.1963 2.6608 16.5749 2.6608C16.9564 2.6608 17.0314 2.66362 17.3056 2.69375C17.5001 2.71446 17.7022 2.74929 17.9556 2.80578C18.0002 2.81614 18.1131 2.84532 18.188 2.86604C18.2497 2.88298 18.4974 2.96301 18.5249 2.9743C18.5353 2.97901 18.5885 3.00066 18.6435 3.02232C18.8077 3.08728 19.0392 3.19554 19.1559 3.26239C19.1901 3.28216 19.2309 3.30475 19.246 3.31417C19.3893 3.39513 19.5924 3.53353 19.7442 3.65215C20.1987 4.00708 20.6077 4.48157 20.9142 5.00878C20.9246 5.02667 20.9455 5.06245 20.9607 5.08881C20.9891 5.1387 21.1618 5.48233 21.1931 5.55483C21.2036 5.57836 21.233 5.64803 21.2577 5.71017C21.2823 5.7723 21.3061 5.83161 21.3099 5.84197C21.3241 5.87492 21.3677 5.99919 21.3962 6.08675C21.4247 6.1743 21.4323 6.19878 21.4522 6.27033C21.4588 6.29387 21.4674 6.32305 21.4721 6.33623C21.4788 6.35694 21.5101 6.49157 21.5376 6.61396C21.5471 6.65727 21.5604 6.73353 21.5755 6.8352C21.5812 6.8738 21.5898 6.92935 21.5955 6.95759C21.6002 6.98583 21.605 7.02161 21.6059 7.03761C21.6087 7.06209 21.6125 7.06586 21.6372 7.06492C21.6533 7.06398 21.6904 7.05833 21.7207 7.05268C21.7501 7.04703 21.7995 7.03761 21.8298 7.03197C21.8593 7.02632 21.901 7.01879 21.9219 7.01408C21.9428 7.01031 22.069 6.98583 22.2018 6.95947C22.3346 6.93217 22.4675 6.90581 22.4959 6.90016C22.5244 6.89451 22.5652 6.88604 22.5861 6.88133C22.607 6.87663 22.8186 6.8352 23.0558 6.78813C23.293 6.74106 23.5046 6.69963 23.5255 6.69493C23.5464 6.69022 23.5891 6.6808 23.6204 6.67516C23.6517 6.66951 23.6944 6.66103 23.7153 6.65633C23.7361 6.65162 23.7769 6.64409 23.8054 6.63844C24.1005 6.58007 24.1878 6.56218 24.1916 6.55936C24.1935 6.55747 24.1878 6.53017 24.1793 6.50005C24.1565 6.41343 24.1081 6.23173 24.0996 6.19501C24.0891 6.14982 24.0654 6.06698 24.0493 6.01614C24.0417 5.9926 24.0303 5.95494 24.0236 5.93141C24.017 5.90787 24.0085 5.87868 24.0047 5.86551C24.0009 5.85233 23.9923 5.82502 23.9866 5.80431C23.9601 5.7064 23.775 5.14341 23.758 5.10764C23.7532 5.09728 23.7428 5.06998 23.7352 5.04644C23.7086 4.96642 23.6346 4.76871 23.5966 4.67457C23.5929 4.66421 23.5796 4.6322 23.5682 4.60396C23.5568 4.57571 23.5407 4.53712 23.5331 4.51923C23.5255 4.50134 23.515 4.4778 23.5112 4.46745C23.5075 4.45709 23.4951 4.42885 23.4837 4.40437C23.4723 4.37989 23.4638 4.3573 23.4638 4.35447C23.4638 4.34977 23.4429 4.30363 23.3765 4.16147C23.3082 4.01367 23.1839 3.77548 23.1345 3.69828C23.1232 3.67851 23.1127 3.66062 23.1127 3.65874C23.1127 3.65121 22.978 3.44974 22.9229 3.37536C22.8641 3.29534 22.8091 3.20402 22.8091 3.18801C22.8091 3.15318 22.9078 3.09763 23.2114 2.96112C23.4145 2.8698 23.7864 2.7427 24.0521 2.67492C24.222 2.63067 24.2741 2.61843 24.3747 2.5996C24.6518 2.545 24.8653 2.51487 25.1528 2.49134C25.3606 2.47345 25.8872 2.47345 26.1083 2.49039Z" fill="#FFBD17"/>
</svg>
