<svg width="160" height="32" viewBox="0 0 160 32" fill="none" xmlns="http://www.w3.org/2000/svg">
<g clip-path="url(#clip0_8418_3102)">
<path d="M24.3425 0.0101833C24.3368 0.0158329 24.296 0.0243053 24.2524 0.0290127C24.2087 0.0346622 24.1433 0.0421944 24.1063 0.0469017C24.0702 0.0525494 24.0057 0.0600815 23.9639 0.0657291C23.8899 0.076086 23.6309 0.114685 23.5179 0.133514C23.4866 0.138222 23.4354 0.146694 23.4041 0.152344C23.3728 0.157051 23.3263 0.164583 23.2997 0.169291C23.2741 0.173998 23.2285 0.18247 23.2001 0.187178C23.1517 0.19565 22.9505 0.237074 22.8632 0.255903C22.8423 0.260611 22.8063 0.268143 22.7826 0.27379C22.6478 0.301094 22.4505 0.351933 22.2797 0.401829C22.2351 0.415009 22.1867 0.429131 22.1705 0.433838C22.1307 0.444195 21.9086 0.517628 21.8859 0.527983C21.8754 0.53269 21.8394 0.545872 21.8052 0.557169C21.7711 0.568466 21.7208 0.587296 21.6923 0.599533C21.6648 0.611773 21.6382 0.622129 21.6335 0.622129C21.6287 0.622129 21.6031 0.632484 21.5756 0.644724C21.5471 0.657904 21.5035 0.675791 21.4779 0.686148C21.4513 0.696505 21.3668 0.735104 21.2881 0.772762C21.1135 0.85561 21.0566 0.874439 20.9417 0.891384C20.77 0.915863 20.5252 0.869732 20.3107 0.772762C20.2766 0.756756 20.2472 0.744518 20.2443 0.744518C20.2424 0.744518 20.213 0.731337 20.1788 0.716274C20.008 0.637192 19.6038 0.493149 19.3903 0.433838C19.2167 0.385824 18.9368 0.317099 18.8115 0.29262C18.6436 0.25967 18.3276 0.204124 18.2137 0.18906C17.5324 0.0949154 16.8397 0.0497246 16.2638 0.061964C15.9468 0.0685539 15.5701 0.0939732 15.3434 0.123159C15.3044 0.128807 15.238 0.13728 15.1963 0.142929C14.9904 0.169291 14.645 0.230484 14.4609 0.274733C14.4163 0.285089 14.3613 0.298269 14.3375 0.303917C14.2873 0.316156 14.0045 0.393356 13.9627 0.406536C13.7141 0.484676 13.4437 0.579763 13.3336 0.627777C13.3146 0.636251 13.29 0.646606 13.2795 0.650372C13.2691 0.654139 13.2406 0.666378 13.216 0.677675C13.1913 0.688972 13.1685 0.697445 13.1666 0.697445C13.1429 0.697445 12.6058 0.966702 12.5423 1.01001C12.529 1.01942 12.5157 1.02695 12.5128 1.02695C12.5005 1.02695 12.195 1.21619 12.0745 1.29809C11.6807 1.56641 11.4207 1.78294 11.0639 2.13693C10.7641 2.43443 10.5363 2.69521 10.3152 2.99459C10.0581 3.34293 9.98598 3.42013 9.81993 3.52839C9.62256 3.65643 9.42235 3.73646 9.10922 3.81271C9.02856 3.83249 8.93652 3.85414 8.90521 3.86073C8.87389 3.86638 8.8293 3.87579 8.80558 3.8805C8.78185 3.88521 8.71828 3.89745 8.66324 3.90874C8.60821 3.9191 8.53609 3.93416 8.50193 3.94169C8.46777 3.94922 8.42128 3.95958 8.39756 3.96523C8.37383 3.97088 8.33778 3.97841 8.3169 3.98312C7.91742 4.07161 7.35094 4.23543 7.01694 4.3597C6.90687 4.40018 6.66301 4.49433 6.63264 4.50751C6.57476 4.53293 6.56337 4.53763 6.47608 4.57435C5.86595 4.83419 5.25487 5.19194 4.7643 5.57323C4.45401 5.81519 4.0887 6.15882 3.8325 6.44973C3.66455 6.64084 3.4909 6.86585 3.34288 7.08521C3.24419 7.23113 3.13128 7.40718 3.13128 7.41471C3.13128 7.4166 3.11704 7.44108 3.09996 7.46838C3.03354 7.57194 2.83712 7.94946 2.76691 8.10668C2.75267 8.14058 2.7299 8.19047 2.71757 8.21778C2.69764 8.26014 2.66443 8.3411 2.62742 8.43337C2.62268 8.44561 2.61509 8.46444 2.61034 8.47573C2.54582 8.63296 2.42911 8.97376 2.38071 9.14699C2.37502 9.1677 2.36648 9.195 2.36269 9.20818C2.34561 9.26279 2.29626 9.44637 2.27823 9.52357C2.27159 9.54899 2.26305 9.58571 2.25831 9.60359C2.25356 9.62148 2.24028 9.6742 2.22889 9.72128C2.21751 9.76741 2.19568 9.85025 2.1805 9.90486C2.16532 9.95946 2.14919 10.016 2.14444 10.032C2.13495 10.0677 2.08751 10.2137 2.07802 10.2391C2.07328 10.2494 2.0543 10.3003 2.03532 10.352C2.01634 10.4038 1.99737 10.4537 1.99167 10.4622C1.98693 10.4716 1.98313 10.4829 1.98313 10.4886C1.98313 10.4942 1.97364 10.5187 1.96321 10.5432C1.95182 10.5676 1.93759 10.5997 1.93095 10.6157C1.85314 10.7927 1.74781 11.0035 1.66621 11.1429C1.51628 11.3971 1.44607 11.4997 1.17564 11.8556C0.982066 12.1088 0.811268 12.3668 0.695504 12.5786C0.632878 12.6934 0.53799 12.8799 0.508575 12.9458C0.448796 13.0794 0.439307 13.102 0.418432 13.1548C0.414636 13.167 0.406096 13.1868 0.400403 13.1999C0.363397 13.2903 0.347266 13.3317 0.310259 13.4447C0.236247 13.6641 0.192598 13.8157 0.161285 13.9578C0.104353 14.2195 0.0939149 14.2732 0.0749374 14.3956C-0.00381962 14.9087 -0.0180528 15.3841 0.0284423 15.9631C0.0331867 16.0252 0.0417266 16.1373 0.0474199 16.2126C0.0531131 16.2879 0.0616531 16.3915 0.0663974 16.4433C0.0711418 16.495 0.0796818 16.5882 0.085375 16.6504C0.0948638 16.7539 0.107199 16.8707 0.132819 17.107C0.14895 17.2501 0.176467 17.4751 0.189752 17.5664C0.228656 17.8272 0.249531 17.9298 0.290333 18.0578C0.341572 18.2198 0.416534 18.4401 0.43646 18.4862C0.440256 18.4966 0.458285 18.5408 0.474416 18.5851C0.517115 18.6943 0.534195 18.7357 0.607259 18.9004C0.655651 19.0087 0.874843 19.4446 0.891922 19.4653C0.895718 19.47 0.908053 19.4907 0.91944 19.5096C0.930826 19.5293 0.948855 19.5613 0.959293 19.5802C0.970679 19.5999 0.998197 19.6451 1.02097 19.68C1.04374 19.7148 1.06272 19.7459 1.06272 19.7487C1.06272 19.7572 1.25534 20.0358 1.3322 20.1385C1.76964 20.7269 2.25356 21.1844 2.94245 21.6627C3.5393 22.0779 3.92359 22.5024 4.18738 23.041C4.21679 23.1012 4.24147 23.1539 4.24147 23.1558C4.24147 23.1586 4.25001 23.1812 4.26139 23.2057C4.27278 23.2302 4.28511 23.2594 4.28986 23.2707C4.2946 23.2829 4.30219 23.3017 4.30789 23.313C4.32402 23.3516 4.41986 23.6482 4.45022 23.7536C4.5062 23.9495 4.69883 24.3929 4.77379 24.4993C4.78422 24.5124 4.79182 24.5256 4.79182 24.5285C4.79182 24.5398 4.87721 24.6716 4.96261 24.7939C5.16757 25.0858 5.44939 25.3814 5.71602 25.5848C5.79763 25.6478 6.04529 25.8182 6.08229 25.838C6.09558 25.8446 6.14871 25.8747 6.2009 25.9049C6.59089 26.127 7.08905 26.3022 7.55305 26.3803C7.62991 26.3925 7.87852 26.4255 7.98005 26.4358C8.1072 26.449 8.6604 26.449 8.7885 26.4358C9.09498 26.4048 9.26768 26.3803 9.50775 26.3313C9.56373 26.32 9.7981 26.2626 9.92051 26.2297C9.99642 26.2089 10.265 26.1233 10.3001 26.1082C10.3105 26.1035 10.3447 26.0903 10.376 26.079C10.4585 26.0489 10.5676 26.0047 10.6255 25.9792C10.653 25.967 10.6777 25.9566 10.6796 25.9566C10.7052 25.9566 11.1284 25.7439 11.2897 25.6488C11.3286 25.6262 11.3609 25.6083 11.3628 25.6083C11.3808 25.6083 11.8021 25.3325 11.9796 25.2044C12.2453 25.0133 12.6371 24.6894 12.8763 24.4644C13.1742 24.1839 13.3716 24.0031 13.5262 23.8704C14.0548 23.4157 14.6791 22.9741 15.2817 22.6305C15.3547 22.5891 15.4468 22.5382 15.4857 22.5175C15.5246 22.4968 15.5616 22.477 15.5663 22.4733C15.591 22.4535 15.9857 22.2633 16.1404 22.1955C16.2989 22.1259 16.3179 22.1183 16.501 22.0543C16.5399 22.0402 16.593 22.0214 16.6186 22.011C16.6443 22.0016 16.6708 21.9931 16.6775 21.9931C16.6993 21.9931 16.7012 21.9762 16.6832 21.9065C16.6737 21.8688 16.6604 21.8142 16.6538 21.786C16.6481 21.7578 16.6386 21.7192 16.6338 21.7013C16.6291 21.6834 16.6186 21.641 16.6111 21.6071C16.6035 21.5732 16.5835 21.4904 16.5674 21.4235C16.5513 21.3558 16.5342 21.2823 16.5285 21.2588C16.5228 21.2353 16.5152 21.2014 16.5105 21.1835C16.5057 21.1656 16.4953 21.1232 16.4877 21.0893C16.4516 20.934 16.4146 20.7805 16.4061 20.7542C16.4004 20.7382 16.3966 20.7165 16.3966 20.7052C16.3966 20.6949 16.3928 20.676 16.3881 20.6638C16.3833 20.6515 16.3748 20.6205 16.37 20.5951C16.3596 20.5489 16.2998 20.2976 16.2827 20.2326C16.278 20.2147 16.2704 20.1808 16.2647 20.1573C16.1879 19.8259 16.1708 19.7619 16.1575 19.7619C16.148 19.7619 15.9962 19.7892 15.8368 19.8184C15.6271 19.8579 15.1963 19.9888 14.9666 20.0829C14.9543 20.0876 14.9353 20.0952 14.9239 20.0999C14.8262 20.1375 14.7607 20.1648 14.7095 20.1874C14.6772 20.2015 14.6478 20.2138 14.645 20.2138C14.6421 20.2138 14.5994 20.2326 14.5491 20.2561C14.4998 20.2797 14.4571 20.2985 14.4552 20.2985C14.4448 20.2985 14.0662 20.4868 13.9684 20.5405C13.9086 20.5734 13.8593 20.5998 13.8584 20.5998C13.8565 20.5998 13.6714 20.7033 13.5718 20.7608C13.5262 20.7862 13.3725 20.8803 13.2226 20.9745C12.659 21.3285 11.9122 21.9027 11.4102 22.3697C11.3742 22.4036 11.3097 22.4629 11.2679 22.5015C11.2262 22.5401 11.1341 22.6277 11.0639 22.6954C10.7261 23.0221 10.413 23.2603 10.0534 23.4665C9.95751 23.5211 9.69278 23.6538 9.6311 23.6783C9.61307 23.6849 9.57701 23.7009 9.55045 23.7122C9.37016 23.7922 9.01623 23.9014 8.80558 23.941C8.50099 23.9984 8.2315 24.0022 7.97056 23.9523C7.58816 23.8789 7.24752 23.6491 7.03876 23.3253C6.98847 23.2462 6.90782 23.0824 6.87935 23.0005C6.87271 22.9826 6.86512 22.9591 6.86037 22.9487C6.82621 22.8583 6.7503 22.5043 6.71899 22.2897C6.66965 21.947 6.65162 21.7032 6.65162 21.3953C6.65257 21.126 6.68198 20.7796 6.72658 20.5386C6.73133 20.5122 6.73986 20.4661 6.74556 20.435C6.75694 20.3691 6.78162 20.2665 6.81767 20.1338C6.83191 20.082 6.84614 20.0264 6.85088 20.0114C6.86701 19.9483 6.95052 19.712 6.9657 19.6847C6.97044 19.6753 6.97424 19.664 6.97424 19.6583C6.97424 19.6385 7.08621 19.3909 7.16876 19.23C7.54546 18.4937 8.12523 17.8319 8.91944 17.2331C9.40337 16.8688 9.98029 16.5845 10.5895 16.4122C10.9481 16.3105 11.266 16.254 11.7139 16.2107C11.8799 16.1947 12.5461 16.1947 12.7102 16.2107C13.0091 16.2399 13.1894 16.2616 13.3412 16.2879C13.3944 16.2973 13.66 16.35 13.7208 16.3632C13.7388 16.367 13.7758 16.3755 13.8014 16.3811C13.864 16.3934 14.0975 16.4536 14.1497 16.4696C14.1724 16.4771 14.2094 16.4884 14.2332 16.495C14.3916 16.5402 14.8253 16.6899 14.9429 16.7398C14.9543 16.7455 14.9733 16.753 14.9856 16.7577C14.997 16.7624 15.0264 16.7746 15.0511 16.7859C15.0758 16.7972 15.0985 16.8057 15.1014 16.8057C15.1061 16.8057 15.2039 16.849 15.3576 16.9187C15.4439 16.9573 15.7191 17.0947 15.8045 17.1399C16.1452 17.3254 16.3966 17.4779 16.7221 17.6973C16.9659 17.8611 16.9612 17.8583 17.2459 18.0673C17.558 18.2979 17.9072 18.5766 18.338 18.9381C18.4822 19.0596 19.0497 19.55 19.2765 19.7487C19.8278 20.2317 20.157 20.5047 20.4673 20.7372C20.9664 21.111 21.3412 21.351 21.9143 21.6655C21.9817 21.7022 22.5036 21.9592 22.5643 21.9865C22.5824 21.9941 22.6232 22.0119 22.6545 22.0261C22.7446 22.0666 22.8898 22.1268 23.0388 22.1852C23.22 22.2567 23.2096 22.253 23.2475 22.2661C23.2655 22.2727 23.2893 22.2812 23.2997 22.285C23.388 22.3207 23.776 22.4488 23.9003 22.4836C23.9402 22.4949 23.9943 22.51 24.0303 22.5203C24.0465 22.5241 24.1082 22.541 24.1679 22.5561C24.2277 22.5721 24.3027 22.5919 24.334 22.6004C24.3653 22.6088 24.4099 22.6192 24.4336 22.6248C24.4573 22.6295 24.4915 22.638 24.5095 22.6418C24.5636 22.655 24.871 22.718 24.927 22.7284C25.7791 22.8809 26.6597 22.9252 27.4843 22.8583C27.6209 22.847 27.8259 22.8263 27.935 22.8112C28.1428 22.7839 28.2291 22.7717 28.3193 22.7557C28.3458 22.751 28.3942 22.7425 28.4284 22.7369C28.4853 22.7265 28.6495 22.6936 28.7652 22.6691C28.8971 22.6418 29.0613 22.6032 29.178 22.5712C29.3109 22.5354 29.3184 22.5335 29.3963 22.5109C29.4352 22.5006 29.4807 22.4874 29.4959 22.4836C29.5234 22.4761 29.6667 22.43 29.79 22.3904C29.8214 22.3801 29.8641 22.365 29.8849 22.3575C29.9058 22.3499 29.9551 22.332 29.994 22.3179C30.0681 22.2916 30.2028 22.2417 30.236 22.2285C30.2465 22.2238 30.2892 22.2068 30.3309 22.1908C30.3727 22.1739 30.422 22.1541 30.44 22.1466C30.458 22.139 30.4818 22.1287 30.4922 22.124C30.533 22.107 30.7048 22.0308 30.7674 22.0025C30.8585 21.9621 31.1849 21.7992 31.2893 21.7436C31.3965 21.6862 31.6868 21.5196 31.7685 21.4678C31.8026 21.4461 31.8491 21.4179 31.8728 21.4038C31.9592 21.352 32.3084 21.1119 32.4554 21.0018C33.2544 20.4068 33.93 19.7092 34.4889 18.9052C34.5411 18.8298 34.5857 18.7639 34.5876 18.7592C34.5895 18.7536 34.6113 18.7197 34.635 18.6839C34.6587 18.6472 34.7166 18.5587 34.7631 18.4862C35.0155 18.0917 35.3476 17.782 35.787 17.5306C35.897 17.4676 36.1589 17.3395 36.2472 17.3047C36.2756 17.2934 36.3145 17.2783 36.3326 17.2698C36.3506 17.2623 36.3743 17.252 36.3848 17.2482C36.3952 17.2444 36.4189 17.2341 36.4369 17.2265C36.455 17.219 36.4977 17.2011 36.5318 17.187C36.566 17.1729 36.6163 17.1512 36.6438 17.139C36.6713 17.1267 36.696 17.1164 36.6979 17.1164C36.7064 17.1164 37.1049 16.9196 37.1771 16.8801C37.216 16.8584 37.289 16.817 37.3384 16.7878C37.3877 16.7586 37.4323 16.7332 37.438 16.7313C37.4428 16.7295 37.5395 16.6673 37.6515 16.5939C38.0567 16.3275 38.3224 16.1119 38.663 15.7748C38.8613 15.5781 38.9287 15.5074 39.0226 15.3982C39.0539 15.3625 39.0853 15.3267 39.0919 15.3201C39.1194 15.2909 39.3225 15.0339 39.3832 14.951C39.4193 14.9021 39.4667 14.8362 39.4895 14.8061C39.5379 14.7411 39.7295 14.4549 39.7295 14.4483C39.7295 14.4455 39.7485 14.4144 39.7713 14.3796C39.8102 14.3193 39.9763 14.0397 39.9763 14.0331C39.9763 14.0322 40 13.9889 40.0294 13.938C40.074 13.8608 40.3292 13.3525 40.3558 13.2894C40.3596 13.279 40.3767 13.2423 40.3928 13.2075C40.4089 13.1726 40.4222 13.1425 40.4222 13.1397C40.4222 13.1378 40.4374 13.103 40.4554 13.0644C40.4735 13.0248 40.4887 12.9909 40.4887 12.9881C40.4887 12.9853 40.4972 12.9627 40.5086 12.9382C40.5418 12.8648 40.5437 12.8601 40.5835 12.7584C40.6234 12.6586 40.723 12.3649 40.7439 12.2867C40.7505 12.2632 40.7591 12.2312 40.7638 12.2161C40.7885 12.1305 40.8445 11.8819 40.8587 11.7944C40.8644 11.7652 40.873 11.7143 40.8786 11.6814C40.891 11.6089 40.9014 11.5317 40.9175 11.3971C40.9356 11.2474 40.9346 10.1496 40.9166 9.999C40.8767 9.66008 40.8511 9.51416 40.7714 9.17053C40.7629 9.13099 40.7581 9.1131 40.7363 9.02178C40.7316 9.00295 40.7202 8.96152 40.7116 8.93045C40.6822 8.82407 40.6386 8.65743 40.63 8.61978C40.6215 8.57647 40.5541 8.31663 40.5314 8.23378C40.5228 8.20271 40.5114 8.16223 40.5076 8.14434C40.4934 8.08691 40.482 8.04831 40.4479 7.94193C40.408 7.8186 40.4042 7.80636 40.3938 7.78188C40.39 7.77153 40.3814 7.74799 40.3748 7.7301C40.3625 7.69339 40.3606 7.68868 40.3217 7.59359C40.2903 7.51451 40.1803 7.28762 40.1328 7.20289C40.1138 7.16899 40.0417 7.05696 39.9715 6.95246C39.4003 6.10327 38.6782 5.38212 37.8603 4.84455C37.7635 4.78147 37.6724 4.72216 37.6562 4.71369C37.6411 4.70521 37.6022 4.68262 37.5709 4.66285C37.3156 4.50374 36.9199 4.30415 36.5793 4.16199C36.5138 4.13469 36.4464 4.10645 36.4303 4.09892C36.3961 4.08479 36.3107 4.05184 36.195 4.00948C36.0536 3.9577 35.731 3.8532 35.5782 3.80989C35.4947 3.78635 35.414 3.76282 35.3979 3.75811C35.3372 3.73928 34.8884 3.63384 34.8238 3.62254C34.8106 3.61972 34.766 3.61124 34.7242 3.60277C34.5895 3.57641 34.5553 3.56982 34.4158 3.54534C34.2773 3.5218 34.2061 3.51051 34.0837 3.49356C33.7639 3.44837 33.6738 3.43237 33.5239 3.39471C33.3815 3.35987 33.2905 3.32693 33.1775 3.27138C33.0134 3.19041 32.9375 3.12734 32.6727 2.85149C31.7893 1.93075 30.9296 1.28679 29.9419 0.806654C29.8536 0.763348 29.7483 0.714392 29.7094 0.697445C29.6705 0.680498 29.6173 0.657904 29.5908 0.645666C29.5652 0.634367 29.4921 0.605183 29.4295 0.579763C29.3668 0.555286 29.3071 0.53175 29.2966 0.527983C29.2236 0.497856 28.9161 0.392414 28.8601 0.377352C28.845 0.372644 28.7956 0.358522 28.751 0.3444C28.6504 0.312391 28.6523 0.313332 28.4256 0.255903C28.2529 0.212597 28.1513 0.18906 28.0536 0.170231C28.0327 0.165524 27.99 0.157051 27.9587 0.151402C27.8847 0.136339 27.8477 0.13069 27.6551 0.0996227C27.4245 0.0629063 27.2736 0.0459595 27.0383 0.0290127C26.9605 0.023365 26.895 0.0148907 26.8931 0.00924301C26.8884 -0.00299644 24.3549 -0.00205421 24.3425 0.0101833ZM26.1103 2.49091C26.2773 2.5041 26.3342 2.50974 26.5259 2.53422C26.7555 2.56341 27.0525 2.61989 27.266 2.67544C27.2869 2.68109 27.3192 2.68956 27.3372 2.69427C27.4435 2.72063 27.6285 2.77711 27.7689 2.82513C28.0346 2.91457 28.0479 2.92022 28.3335 3.04261C28.3933 3.06803 28.7558 3.2469 28.8127 3.27891C28.8336 3.29115 28.881 3.31751 28.9171 3.33728C29.122 3.4512 29.5405 3.73457 29.6819 3.85508C29.6999 3.87108 29.7473 3.90968 29.7862 3.94075C30.0348 4.14128 30.3347 4.44443 30.5824 4.74475C31.1204 5.40001 31.6309 5.79259 32.2913 6.06185C32.5 6.14658 32.8559 6.2539 33.021 6.28309C33.0343 6.28591 33.077 6.29439 33.1159 6.30192C33.2478 6.32922 33.4565 6.35935 33.6045 6.37347C33.8617 6.39795 33.9594 6.40265 34.153 6.40265C34.6445 6.40265 34.9054 6.43372 35.322 6.54387C35.4852 6.58624 35.7851 6.71333 35.9815 6.82348C36.548 7.13981 37.0803 7.67079 37.5367 8.37406C37.5908 8.45596 37.642 8.53599 37.6506 8.55293C37.66 8.56894 37.6952 8.62825 37.7293 8.68568C37.8365 8.86926 37.9722 9.15734 38.033 9.33528C38.0377 9.35034 38.0462 9.372 38.05 9.38235C38.088 9.4765 38.1667 9.75611 38.1924 9.89074C38.1981 9.92181 38.2066 9.96417 38.2113 9.98488C38.2161 10.0056 38.2246 10.0564 38.2303 10.0979C38.236 10.1393 38.2446 10.1986 38.2493 10.2297C38.2901 10.4895 38.2892 10.9988 38.2493 11.2653C38.2446 11.2963 38.236 11.3556 38.2303 11.3971C38.2199 11.4686 38.2142 11.5025 38.1924 11.6089C38.1696 11.7209 38.1573 11.7708 38.0956 11.9855C38.0908 12.0034 38.0842 12.0297 38.0813 12.0448C38.0785 12.0589 38.0728 12.073 38.0681 12.0759C38.0633 12.0787 38.0595 12.0909 38.0595 12.1032C38.0595 12.1154 38.0557 12.1286 38.05 12.1314C38.0453 12.1342 38.0405 12.1455 38.0405 12.1559C38.0405 12.1653 38.0368 12.1813 38.032 12.1907C38.0263 12.1992 38.0111 12.2387 37.9969 12.2773C37.9827 12.3159 37.9627 12.3668 37.9523 12.3903C37.9428 12.4138 37.9286 12.4449 37.9219 12.4609C37.8593 12.6078 37.773 12.7782 37.6914 12.9194C37.68 12.9392 37.6619 12.9712 37.6506 12.99C37.6145 13.054 37.456 13.2875 37.3839 13.3845C37.1334 13.7177 36.7653 14.083 36.4208 14.3419C35.9967 14.6592 35.5602 14.8974 35.0753 15.0781C34.9206 15.1356 34.7441 15.1902 34.5487 15.2429C34.3646 15.2919 34.0828 15.3436 33.8939 15.3643C33.8446 15.37 33.7621 15.3794 33.7108 15.3851C33.5894 15.3982 33.0172 15.3982 32.9043 15.3851C32.8559 15.3794 32.7762 15.37 32.7268 15.3643C32.6186 15.3521 32.4431 15.3239 32.352 15.3032C32.2419 15.2787 32.1262 15.2514 32.1006 15.2429C32.0873 15.2391 32.0579 15.2307 32.0341 15.2241C31.9127 15.1902 31.7163 15.1224 31.6166 15.08C31.5986 15.0725 31.5559 15.0546 31.5217 15.0405C31.4316 15.0028 31.3348 14.9539 31.2997 14.9275C31.2826 14.9143 31.258 14.8842 31.2456 14.8597C31.2257 14.8211 31.2228 14.8032 31.2228 14.7119C31.2228 14.5839 31.2371 14.517 31.3035 14.3344C31.3453 14.2186 31.4724 13.9606 31.5483 13.8354C31.5768 13.7884 31.6081 13.7356 31.6185 13.7177C31.6669 13.634 31.8434 13.3929 31.9933 13.2075C32.0835 13.0945 32.1575 12.9994 32.1575 12.9947C32.1575 12.99 32.1072 12.9571 32.0465 12.9203C31.5663 12.6379 31.1991 12.4223 31.1754 12.4091C31.1602 12.3997 31.1128 12.3724 31.071 12.3479C31.0293 12.3235 30.9828 12.2952 30.9667 12.2867C30.9515 12.2773 30.904 12.25 30.8623 12.2255C30.8205 12.2001 30.7418 12.154 30.6867 12.122C30.6317 12.09 30.5387 12.0354 30.4808 12.0015C30.3224 11.9083 30.1781 11.8235 30.0614 11.7558L29.957 11.6946L29.8242 11.8621C29.6135 12.1276 29.3735 12.4054 29.1068 12.6916C28.9996 12.8074 28.6419 13.1595 28.5489 13.2395C28.2766 13.4786 28.0972 13.5982 27.7405 13.7789C27.6332 13.8335 27.4416 13.9192 27.3324 13.9625C27.2765 13.9851 27.0857 14.052 27.0383 14.067C27.0174 14.0727 26.9899 14.0811 26.9766 14.0859C26.8352 14.131 26.561 14.196 26.3836 14.2252C26.115 14.2694 25.9964 14.2779 25.6482 14.2779C25.3256 14.2779 25.2829 14.2751 25.0504 14.244C24.7192 14.1998 24.315 14.0934 24.0493 13.9814C24.0389 13.9766 24.0114 13.9653 23.9876 13.9559C23.5654 13.7846 23.091 13.488 22.737 13.1726C22.4789 12.9439 22.3442 12.7961 21.7597 12.106C21.7293 12.0711 21.7027 12.042 21.698 12.042C21.6942 12.042 21.5661 12.1342 21.4133 12.2472C21.2615 12.3602 21.0765 12.4967 21.0034 12.5503C20.9304 12.604 20.7643 12.7273 20.6334 12.8234C20.5034 12.9194 20.3364 13.0427 20.2633 13.0964C20.0261 13.2706 19.675 13.5313 19.6674 13.5389C19.6627 13.5426 19.6816 13.5784 19.7101 13.617C19.7376 13.6556 19.786 13.7225 19.8173 13.7658C20.1589 14.2431 20.7349 14.8089 21.3165 15.2391C21.4788 15.3596 21.7616 15.5536 21.8527 15.6063C21.8707 15.6176 21.9324 15.6543 21.9884 15.6882C22.0453 15.723 22.0927 15.7513 22.0956 15.7513C22.0975 15.7513 22.1193 15.7635 22.144 15.7786C22.2493 15.8426 22.5909 16.0158 22.7588 16.0902C22.7854 16.1015 22.8281 16.1203 22.8537 16.1326C22.8803 16.1439 22.9629 16.1778 23.0388 16.2079C23.1147 16.2371 23.1849 16.2653 23.1953 16.2691C23.2276 16.2832 23.4487 16.3604 23.5037 16.3774C23.6299 16.416 23.7988 16.4649 23.9117 16.4941C23.9298 16.4988 23.962 16.5073 23.9829 16.5129C24.1328 16.5515 24.4146 16.608 24.5997 16.6353C25.0219 16.6984 25.2497 16.7144 25.7051 16.7144C26.0752 16.7135 26.2422 16.7059 26.5212 16.6739C26.672 16.656 26.84 16.6372 27.0222 16.6174C27.1151 16.608 27.2546 16.5948 27.4653 16.5779C27.6532 16.5619 28.2282 16.5619 28.3762 16.5779C28.622 16.6033 28.7558 16.6259 28.9531 16.6749C29.2795 16.7558 29.5718 16.881 29.9172 17.0872C30.2075 17.2604 30.5719 17.4186 30.9429 17.5306C30.998 17.5466 31.053 17.5645 31.0663 17.5683C31.0796 17.573 31.146 17.5918 31.2134 17.6107C31.2817 17.6285 31.3519 17.6483 31.3699 17.653C31.4259 17.669 31.6138 17.717 31.759 17.7519C32.0085 17.8121 32.0626 17.83 32.0626 17.8488C32.0626 17.8959 31.628 18.3732 31.3728 18.6058C31.2494 18.7187 31.0236 18.9108 30.9648 18.9522C30.9543 18.9598 30.9021 18.9993 30.848 19.0398C30.4562 19.3363 29.94 19.6329 29.4674 19.8325C29.4522 19.8391 29.42 19.8532 29.3963 19.8626C29.3725 19.873 29.3004 19.9012 29.2349 19.9257C29.1695 19.9502 29.1078 19.9737 29.0974 19.9784C29.0698 19.9906 28.8345 20.0669 28.751 20.0914C28.7121 20.1027 28.6694 20.1159 28.6561 20.1196C28.584 20.1422 28.3999 20.1893 28.2956 20.2128C28.2462 20.2241 28.1883 20.2373 28.1675 20.242C28.1466 20.2467 28.083 20.259 28.0251 20.2693C27.6826 20.3315 27.5346 20.3503 27.1379 20.3832C26.9861 20.3955 26.3143 20.3955 26.171 20.3832C25.782 20.3493 25.5808 20.3239 25.354 20.2806C25.1832 20.2477 25.1548 20.2411 25.0789 20.2241C24.9479 20.1949 24.7913 20.1545 24.6376 20.1102C24.5332 20.081 24.2315 19.9812 24.1822 19.9605C24.1717 19.9558 24.1271 19.9379 24.0825 19.921C24.0379 19.905 23.9848 19.8833 23.9639 19.8749C23.943 19.8654 23.888 19.8428 23.8406 19.8231C23.7941 19.8033 23.6612 19.7421 23.5464 19.6866C23.1033 19.4719 22.7199 19.2328 22.3243 18.924C22.2673 18.8797 22.2094 18.8355 22.1952 18.8251C22.0747 18.7366 21.4133 18.2009 20.8469 17.733C20.3164 17.2943 20.0071 17.043 19.6797 16.7822C19.4197 16.576 19.396 16.5572 19.2119 16.4169C18.913 16.1881 18.8561 16.1467 18.5458 15.9245C18.1786 15.6618 17.6178 15.2994 17.2886 15.1139C17.2705 15.1036 17.2107 15.0697 17.1557 15.0386C16.9375 14.9153 16.7534 14.8183 16.52 14.7044C16.3302 14.6121 16.1309 14.518 16.1252 14.518C16.1233 14.518 16.0996 14.5076 16.0721 14.4954C15.8937 14.4154 15.517 14.2638 15.4126 14.2308C15.3879 14.2224 15.3585 14.212 15.3481 14.2073C15.3253 14.1969 14.9904 14.0859 14.9496 14.0755C14.9344 14.0708 14.885 14.0567 14.8404 14.0435C14.6782 13.9936 14.2721 13.89 14.1525 13.8684C14.1316 13.8646 14.0804 13.8543 14.0386 13.8458C13.7416 13.7865 13.4494 13.7432 13.1752 13.7177C12.9209 13.6952 12.8165 13.6895 12.5584 13.6839C11.9796 13.6716 11.3799 13.7206 10.8552 13.8213C10.8314 13.8251 10.7849 13.8345 10.7508 13.8401C10.6597 13.8561 10.5724 13.8759 10.3143 13.938C10.2175 13.9616 10.0723 14.0002 9.99167 14.0247C9.91102 14.0482 9.83226 14.0708 9.81613 14.0755C9.76584 14.0877 9.373 14.2205 9.31323 14.245C9.30279 14.2487 9.26483 14.2638 9.22783 14.2779C9.19177 14.2911 9.15381 14.3071 9.14527 14.3118C9.13579 14.3165 9.1244 14.3203 9.1187 14.3203C9.11396 14.3203 9.08739 14.3306 9.05987 14.3429C9.03236 14.3551 8.97732 14.3786 8.93842 14.3937C8.89951 14.4097 8.83309 14.438 8.79134 14.4568C8.74959 14.4756 8.69645 14.5001 8.67273 14.5104C8.61011 14.5387 8.30267 14.6912 8.23909 14.726C8.20873 14.743 8.15464 14.7731 8.11764 14.7938C8.08158 14.8145 8.03224 14.8418 8.01041 14.8541C7.71247 15.0217 7.33956 15.2768 7.03117 15.5244C6.73797 15.7598 6.38688 16.0921 6.14492 16.3623C6.01777 16.5054 5.76916 16.8104 5.66478 16.9526C5.51296 17.1597 5.25582 17.5551 5.15429 17.7378C5.141 17.7613 5.12772 17.7839 5.12392 17.7895C5.10305 17.8178 4.82123 18.3648 4.78802 18.4438C4.77758 18.4674 4.75481 18.5182 4.73773 18.5568C4.7197 18.5954 4.70167 18.6359 4.69693 18.6463C4.69313 18.6566 4.68269 18.6801 4.67415 18.699C4.66656 18.7178 4.61627 18.8383 4.56408 18.9663C4.43314 19.2864 4.36197 19.4399 4.3392 19.4484C4.32402 19.454 4.28511 19.4324 4.17694 19.3599C3.97104 19.2196 3.85527 19.1255 3.70345 18.9748C3.38937 18.6613 3.11704 18.2292 2.93771 17.7566C2.91304 17.6916 2.88836 17.6314 2.88362 17.6229C2.87888 17.6135 2.87508 17.5975 2.87508 17.5881C2.87508 17.5777 2.87128 17.5664 2.86559 17.5636C2.86085 17.5608 2.8561 17.5476 2.8561 17.5353C2.8561 17.5231 2.85231 17.5109 2.84756 17.508C2.84282 17.5052 2.83712 17.4911 2.83428 17.477C2.83143 17.4619 2.82479 17.4355 2.8191 17.4177C2.79537 17.3358 2.75837 17.203 2.75173 17.1729C2.66443 16.7954 2.60939 16.351 2.60939 16.0243C2.60939 15.804 2.64355 15.4359 2.6853 15.2241C2.70808 15.1045 2.71567 15.0659 2.72326 15.0358C2.728 15.0179 2.73654 14.9812 2.74319 14.9558C2.76027 14.8823 2.84661 14.6018 2.86464 14.5603C2.86939 14.55 2.89785 14.4803 2.92822 14.405C3.322 13.4306 4.10767 12.5758 5.02619 12.1229C5.36399 11.9563 5.62968 11.8631 6.01113 11.7784C6.07755 11.7642 6.21798 11.7416 6.38119 11.7209C6.56527 11.6964 7.88611 11.7021 8.1091 11.7285L8.15844 11.7332L8.16888 11.6522C8.18026 11.5609 8.19545 11.4404 8.20304 11.3641C8.20588 11.3359 8.21253 11.2822 8.21727 11.2464C8.22201 11.2097 8.23055 11.1363 8.23625 11.0817C8.24194 11.0271 8.25048 10.9489 8.25523 10.9075C8.25997 10.8661 8.26851 10.7898 8.2742 10.738C8.28559 10.6317 8.29792 10.5177 8.31216 10.3963C8.3169 10.3511 8.32829 10.257 8.33588 10.1873C8.34347 10.1176 8.35391 10.0244 8.3596 9.98018C8.36435 9.93593 8.37289 9.85779 8.37858 9.80601C8.38902 9.70715 8.39946 9.61583 8.41559 9.4812C8.42128 9.43696 8.42792 9.372 8.43172 9.33622L8.43741 9.27126L8.35296 9.27691C8.30741 9.28068 8.18406 9.28915 8.07968 9.29762C7.43729 9.34469 6.42009 9.33716 6.02536 9.2835C5.98645 9.27785 5.92193 9.26938 5.88303 9.26373C5.76821 9.24772 5.63347 9.21854 5.54143 9.18935C5.42472 9.15264 5.40195 9.12722 5.41333 9.04814C5.42282 8.9747 5.4418 8.93045 5.50727 8.82784C5.5642 8.73934 5.66858 8.60848 5.76252 8.51151C6.29199 7.96358 6.5871 7.67926 6.76548 7.54652C6.77972 7.53616 6.84424 7.48815 6.90877 7.43919C7.26934 7.16899 7.6878 6.94305 8.11764 6.78677C8.18975 6.7604 8.39471 6.6945 8.445 6.68038C8.91944 6.55517 9.18987 6.51751 9.77343 6.4968C9.92715 6.49115 10.1065 6.47985 10.172 6.47232C10.877 6.3923 11.3932 6.19459 11.8705 5.81989C11.9881 5.72763 12.2139 5.50262 12.325 5.36705C12.4047 5.27008 12.6163 4.96599 12.6504 4.89915C12.658 4.88503 12.677 4.85114 12.6912 4.82572C12.7064 4.79936 12.7747 4.66755 12.8431 4.53198C13.0328 4.15823 13.1685 3.96617 13.4171 3.71857C13.6743 3.46344 13.9333 3.28268 14.2854 3.11321C14.6336 2.94469 14.9078 2.85526 15.3339 2.76958C15.5464 2.72722 15.5587 2.72534 15.8159 2.69427C16.0256 2.66791 16.1983 2.66132 16.5769 2.66132C16.9583 2.66132 17.0333 2.66414 17.3075 2.69427C17.5021 2.71498 17.7042 2.74981 17.9575 2.8063C18.0021 2.81666 18.115 2.84584 18.19 2.86655C18.2517 2.8835 18.4993 2.96352 18.5268 2.97482C18.5373 2.97953 18.5904 3.00118 18.6455 3.02283C18.8096 3.0878 19.0411 3.19606 19.1578 3.26291C19.192 3.28268 19.2328 3.30527 19.248 3.31469C19.3913 3.39565 19.5943 3.53404 19.7462 3.65267C20.2007 4.0076 20.6096 4.48209 20.9161 5.0093C20.9266 5.02719 20.9474 5.06297 20.9626 5.08932C20.9911 5.13922 21.1638 5.48285 21.1951 5.55535C21.2055 5.57888 21.2349 5.64855 21.2596 5.71068C21.2843 5.77282 21.308 5.83213 21.3118 5.84249C21.326 5.87544 21.3697 5.99971 21.3982 6.08727C21.4266 6.17482 21.4342 6.1993 21.4541 6.27085C21.4608 6.29439 21.4693 6.32357 21.4741 6.33675C21.4807 6.35746 21.512 6.49209 21.5395 6.61448C21.549 6.65779 21.5623 6.73405 21.5775 6.83572C21.5832 6.87432 21.5917 6.92987 21.5974 6.95811C21.6022 6.98635 21.6069 7.02213 21.6079 7.03813C21.6107 7.06261 21.6145 7.06638 21.6392 7.06544C21.6553 7.0645 21.6923 7.05885 21.7227 7.0532C21.7521 7.04755 21.8014 7.03813 21.8318 7.03248C21.8612 7.02684 21.903 7.0193 21.9238 7.0146C21.9447 7.01083 22.0709 6.98635 22.2037 6.95999C22.3366 6.93269 22.4694 6.90633 22.4979 6.90068C22.5264 6.89503 22.5672 6.88656 22.588 6.88185C22.6089 6.87715 22.8205 6.83572 23.0577 6.78865C23.295 6.74158 23.5066 6.70015 23.5274 6.69544C23.5483 6.69074 23.591 6.68132 23.6223 6.67567C23.6536 6.67002 23.6963 6.66155 23.7172 6.65685C23.7381 6.65214 23.7789 6.64461 23.8074 6.63896C24.1025 6.58059 24.1898 6.5627 24.1936 6.55988C24.1954 6.55799 24.1898 6.53069 24.1812 6.50056C24.1584 6.41395 24.11 6.23225 24.1015 6.19553C24.0911 6.15034 24.0673 6.0675 24.0512 6.01666C24.0436 5.99312 24.0322 5.95546 24.0256 5.93193C24.019 5.90839 24.0104 5.8792 24.0066 5.86602C24.0028 5.85284 23.9943 5.82554 23.9886 5.80483C23.962 5.70692 23.777 5.14393 23.7599 5.10815C23.7552 5.0978 23.7447 5.0705 23.7371 5.04696C23.7106 4.96694 23.6366 4.76923 23.5986 4.67509C23.5948 4.66473 23.5815 4.63272 23.5701 4.60448C23.5587 4.57623 23.5426 4.53763 23.535 4.51975C23.5274 4.50186 23.517 4.47832 23.5132 4.46797C23.5094 4.45761 23.4971 4.42937 23.4857 4.40489C23.4743 4.38041 23.4658 4.35782 23.4658 4.35499C23.4658 4.35028 23.4449 4.30415 23.3785 4.16199C23.3101 4.01418 23.1858 3.776 23.1365 3.6988C23.1251 3.67903 23.1147 3.66114 23.1147 3.65926C23.1147 3.65173 22.9799 3.45025 22.9249 3.37588C22.8661 3.29586 22.811 3.20454 22.811 3.18853C22.811 3.1537 22.9097 3.09815 23.2134 2.96164C23.4164 2.87032 23.7884 2.74322 24.0541 2.67544C24.2239 2.63119 24.2761 2.61895 24.3767 2.60012C24.6538 2.54552 24.8673 2.51539 25.1548 2.49186C25.3626 2.47397 25.8892 2.47397 26.1103 2.49091Z" fill="#FFBD17"/>
<path d="M112.044 5.27901C111.233 5.3082 110.697 5.34774 110.098 5.42305C108.763 5.59251 107.695 5.88342 106.801 6.32214C105.661 6.88136 104.806 7.72114 104.21 8.86407C103.574 10.0851 103.174 11.8974 103.044 14.155C102.962 15.5634 102.98 17.2317 103.091 18.5328C103.193 19.7322 103.374 20.7923 103.619 21.633C103.979 22.8729 104.54 23.8774 105.288 24.6193C106.416 25.7377 108.029 26.3713 110.385 26.6189C111.186 26.7037 111.801 26.7319 112.812 26.7319C113.542 26.7319 113.793 26.7263 114.321 26.6943C115.998 26.5954 117.38 26.3196 118.425 25.8761C119.702 25.3339 120.622 24.5299 121.279 23.3813C121.867 22.3504 122.229 21.07 122.433 19.2907C122.683 17.1093 122.656 14.2162 122.366 12.1968C122.119 10.4636 121.722 9.27171 121.06 8.27095C120.33 7.16662 119.288 6.39746 117.884 5.92485C116.771 5.55109 115.403 5.34115 113.685 5.28183C113.451 5.27336 112.247 5.27148 112.044 5.27901ZM113.325 9.89496C114.212 9.93262 114.882 10.0437 115.431 10.2452C115.606 10.3092 115.897 10.4523 116.029 10.5399C116.625 10.9334 117.006 11.5171 117.219 12.3597C117.38 12.997 117.473 13.7417 117.529 14.8564C117.545 15.1718 117.551 16.4173 117.539 16.8099C117.495 18.1807 117.372 19.1739 117.152 19.9064C116.983 20.4731 116.686 20.9542 116.308 21.2771C115.972 21.5643 115.563 21.7592 115.003 21.8985C114.477 22.0294 113.928 22.0934 113.154 22.115C112.065 22.1451 111.089 22.0435 110.386 21.8269C109.87 21.6678 109.503 21.4598 109.188 21.1463C108.934 20.894 108.737 20.5983 108.585 20.2415C108.317 19.6117 108.145 18.6147 108.077 17.3183C108.038 16.5595 108.038 15.4166 108.077 14.6775C108.143 13.4471 108.306 12.4783 108.552 11.8673C108.796 11.2619 109.164 10.811 109.659 10.5097C110.252 10.1501 111.125 9.94485 112.276 9.8959C112.533 9.8846 113.073 9.8846 113.325 9.89496Z" fill="white"/>
<path d="M47.0694 5.5732C46.7933 5.60898 46.5238 5.74643 46.3255 5.95449C46.1652 6.12207 46.0579 6.32636 46.0058 6.56549C45.9896 6.63704 45.9896 7.07576 45.9906 15.0094C45.9915 21.0808 45.9944 23.4024 46.002 23.4683C46.1187 24.4738 46.6548 25.3428 47.4983 25.8964C47.8712 26.1402 48.3229 26.3191 48.7537 26.3925C49.0184 26.4377 49.0109 26.4377 50.0299 26.4415C50.5623 26.4433 51.0073 26.4424 51.0187 26.4396L51.0405 26.4349V23.088V19.7411H51.4276C51.8471 19.7421 52.2987 19.7534 52.5075 19.7694C53.1508 19.8193 53.3472 19.9407 53.7951 20.563C53.9574 20.788 54.0077 20.8652 55.8551 23.7235L57.6039 26.4302L60.5426 26.433C63.4575 26.4349 63.4803 26.4349 63.4803 26.416C63.4803 26.3972 63.2137 25.9406 62.9404 25.4896C61.8843 23.7527 60.887 22.2746 59.9979 21.1298C59.3849 20.3399 58.8735 19.8042 58.3848 19.4418C58.1913 19.2987 58.2093 19.3184 58.2273 19.2638L58.2425 19.2167L58.3497 19.1913C58.9086 19.0548 59.4817 18.8034 59.9552 18.489C60.3917 18.1981 60.8168 17.8046 61.1736 17.3611C62.0352 16.2888 62.5523 14.9378 62.687 13.4052C62.7354 12.8629 62.7354 12.1351 62.688 11.5411C62.5646 10.0093 62.1386 8.75531 61.4203 7.81104C61.2637 7.60674 61.1461 7.47305 60.9478 7.27629C60.6764 7.00703 60.424 6.80745 60.1099 6.61351C59.0775 5.97332 57.7567 5.63628 56.0364 5.57226C55.7118 5.56002 47.1643 5.5619 47.0694 5.5732ZM55.2061 9.86905C55.9946 9.93966 56.5146 10.1298 56.8609 10.4735C57.2035 10.8133 57.4122 11.3415 57.4881 12.0636C57.51 12.2622 57.5185 12.8375 57.5033 13.053C57.4521 13.7987 57.2784 14.3372 56.9634 14.7241C56.6114 15.1572 55.9813 15.3963 55.0543 15.4481C54.9556 15.4538 54.1092 15.4575 52.9648 15.4575H51.0405V12.6586C51.0405 11.1184 51.0434 9.85587 51.0471 9.85211C51.0509 9.84834 51.9486 9.84646 53.0426 9.84928C54.8132 9.85211 55.0495 9.85399 55.2061 9.86905Z" fill="white"/>
<path d="M66.322 5.5732C66.0458 5.60897 65.7764 5.74643 65.578 5.95449C65.4158 6.12395 65.3095 6.32919 65.2573 6.5702C65.2412 6.6474 65.2402 6.96843 65.2402 15.0056C65.2402 21.8133 65.2421 23.3789 65.2526 23.4599C65.2867 23.732 65.3323 23.9353 65.411 24.1726C65.7412 25.1554 66.5345 25.9425 67.5251 26.2701C67.7671 26.3492 67.9815 26.3963 68.2482 26.4273C68.3668 26.4415 67.9502 26.4405 75.1731 26.4367L80.076 26.4349V24.2931V22.1513H75.1797H70.2835V20.1224V18.0936H74.5298H78.776V15.9518V13.81H74.5298H70.2835L70.2854 11.8301L70.2883 9.85116L75.1826 9.84834L80.076 9.84646V7.70465V5.56284L73.2326 5.56379C69.2844 5.56473 66.3599 5.56849 66.322 5.5732Z" fill="white"/>
<path d="M83.7055 5.5737C83.4294 5.60948 83.1599 5.74693 82.9616 5.95499C82.7993 6.12445 82.693 6.32969 82.6409 6.5707C82.6247 6.6479 82.6238 6.96894 82.6238 15.0061C82.6238 21.8138 82.6257 23.3794 82.6361 23.4604C82.6703 23.7325 82.7158 23.9358 82.7946 24.1731C83.1248 25.1559 83.9181 25.943 84.9087 26.2706C85.1402 26.3469 85.3176 26.3864 85.589 26.4241C85.682 26.4363 85.8576 26.4391 86.759 26.442L87.8189 26.4457V20.2481V14.0505L87.9385 14.2812C88.3417 15.0607 88.7042 15.6755 89.6825 17.2374C89.7973 17.421 91.1713 19.5618 92.736 21.9945C94.3007 24.4282 95.5807 26.4241 95.5807 26.4316C95.5807 26.4429 95.8531 26.4448 97.562 26.442C99.4246 26.4391 99.5461 26.4382 99.6135 26.4222C99.8621 26.3638 100.058 26.2621 100.226 26.104C100.411 25.9298 100.532 25.717 100.597 25.4468C100.614 25.3791 100.615 24.978 100.616 15.4693L100.619 5.56335H98.0668H95.5143V11.8541L95.5134 18.1459L95.4261 17.9783C95.3777 17.887 95.2875 17.7128 95.2249 17.5923C94.8216 16.8184 94.3073 15.9419 93.6668 14.9402C93.5625 14.7774 92.1695 12.6101 90.5706 10.1247C88.9718 7.63925 87.6623 5.5963 87.6595 5.58406L87.6557 5.56335L85.7133 5.56429C84.6401 5.56523 83.7425 5.56994 83.7055 5.5737Z" fill="white"/>
<path d="M146.246 5.5732C145.97 5.60897 145.701 5.74643 145.502 5.95449C145.34 6.12395 145.234 6.32919 145.182 6.5702C145.165 6.6474 145.165 6.96843 145.165 15.0056C145.165 21.8133 145.166 23.3789 145.177 23.4599C145.211 23.732 145.257 23.9353 145.335 24.1726C145.666 25.1554 146.459 25.9425 147.449 26.2701C147.691 26.3492 147.906 26.3963 148.172 26.4273C148.291 26.4415 147.875 26.4405 155.097 26.4367L160 26.4349V24.2931V22.1513H155.104H150.208V20.1224V18.0936H154.454H158.7V15.9518V13.81H154.454H150.208L150.21 11.8301L150.213 9.85116L155.107 9.84834L160 9.84646V7.70465V5.56284L153.157 5.56379C149.209 5.56473 146.284 5.56849 146.246 5.5732Z" fill="white"/>
<path d="M125.238 5.59269C124.775 5.65201 124.366 5.98622 124.218 6.42776C124.177 6.55109 124.16 6.64618 124.154 6.7874C124.15 6.9079 124.15 6.92014 124.178 7.02276C124.194 7.08207 124.425 7.89737 124.691 8.83506C124.957 9.77181 126.023 13.532 127.06 17.1905C128.096 20.8489 128.955 23.8757 128.968 23.9171C129.051 24.1798 129.101 24.3201 129.152 24.4359C129.453 25.11 129.967 25.6654 130.62 26.0194C130.936 26.1908 131.31 26.3197 131.662 26.3781C131.934 26.4233 131.835 26.4214 134.3 26.4176C135.579 26.4158 136.624 26.4139 136.625 26.4129C136.626 26.4129 138.025 21.7264 139.734 15.9995L142.842 5.58705L140.019 5.58422C138.465 5.58328 137.194 5.58422 137.191 5.5861C137.185 5.59269 137.026 6.12932 136.852 6.73091C136.364 8.42365 135.767 10.6436 135.093 13.2787C134.467 15.7284 133.94 17.9888 133.588 19.7371C133.504 20.157 133.375 20.8377 133.375 20.865C133.375 20.8781 133.364 20.881 133.308 20.881C133.272 20.881 133.242 20.8772 133.242 20.8725C133.242 20.8687 133.22 20.7492 133.194 20.607C132.758 18.2449 131.906 14.6457 130.756 10.3084C130.27 8.47731 129.86 7.01523 129.483 5.77722L129.424 5.58234L127.364 5.58328C126.221 5.58422 125.275 5.58893 125.238 5.59269Z" fill="white"/>
<path d="M19.917 22.6451C19.8544 22.7044 19.6219 22.92 19.509 23.0235C19.4749 23.0546 19.4094 23.1158 19.3619 23.161C19.3154 23.2052 19.2471 23.2683 19.2101 23.3022C19.1228 23.3832 18.6892 23.7852 18.5981 23.8699C18.5582 23.9066 18.4662 23.9923 18.3941 24.0601C18.1844 24.254 17.9415 24.48 17.7868 24.6231C17.709 24.6965 17.617 24.7812 17.5828 24.8123C17.5486 24.8434 17.4851 24.9027 17.4405 24.9441C17.3437 25.0354 17.2896 25.0863 16.9803 25.3725C16.8503 25.493 16.7136 25.6201 16.6766 25.654C16.6406 25.6888 16.5096 25.8093 16.3872 25.9232C16.0522 26.2339 15.8881 26.3864 15.8036 26.4655C15.7619 26.5041 15.6983 26.5634 15.6613 26.5973C15.6253 26.6302 15.5588 26.6914 15.5142 26.7338C15.4696 26.7752 15.4013 26.8383 15.3624 26.8741C15.296 26.9353 15.2448 26.9833 15.0417 27.1735C14.9971 27.2149 14.9572 27.2459 14.9487 27.2441C14.9373 27.2422 14.925 27.2092 14.906 27.1283C14.8899 27.0661 14.8737 26.9993 14.869 26.9795C14.8633 26.9607 14.8557 26.9287 14.85 26.9089C14.8453 26.8901 14.8216 26.7931 14.7978 26.6952C14.757 26.5239 14.7504 26.4984 14.7276 26.4128C14.7229 26.3921 14.6944 26.2772 14.665 26.1586C14.6365 26.039 14.6081 25.927 14.6033 25.9091C14.5986 25.8912 14.591 25.8573 14.5853 25.8338C14.5805 25.8102 14.5729 25.781 14.5701 25.7679C14.5663 25.7547 14.5606 25.7293 14.5568 25.7114C14.5521 25.6935 14.535 25.6257 14.5189 25.5607C14.4743 25.3875 14.4724 25.3809 14.461 25.3301C14.443 25.2548 14.4411 25.2501 14.4316 25.2501C14.423 25.2501 14.3073 25.3414 13.8831 25.6822C13.7759 25.7688 13.6772 25.8469 13.663 25.8573C13.6487 25.8677 13.5738 25.927 13.496 25.9891C13.3584 26.1002 13.0386 26.3563 12.5917 26.7131C12.4693 26.811 12.3184 26.9315 12.2567 26.9805C12.1732 27.0473 12.1467 27.0737 12.1514 27.085C12.1571 27.0991 12.1609 27.1141 12.1818 27.2036C12.1875 27.2243 12.2121 27.3241 12.2387 27.4248C12.2643 27.5256 12.288 27.6206 12.2918 27.6367C12.2956 27.6517 12.3023 27.6818 12.308 27.7026C12.3127 27.7233 12.3213 27.7553 12.3251 27.7732C12.3298 27.7911 12.3488 27.8654 12.3687 27.9379C12.3877 28.0104 12.4076 28.0857 12.4123 28.1046C12.4171 28.1243 12.4256 28.1573 12.4304 28.178C12.4361 28.1987 12.4437 28.2317 12.4484 28.2505C12.4532 28.2703 12.4645 28.3117 12.4731 28.3427C12.493 28.4162 12.5632 28.6817 12.5727 28.724C12.5765 28.7419 12.5879 28.7824 12.5964 28.8135C12.6211 28.902 12.6685 29.0827 12.6771 29.1194C12.6809 29.1373 12.698 29.2013 12.7141 29.2607C12.7729 29.4753 12.7928 29.5487 12.8099 29.6137C12.8299 29.6881 12.864 29.8133 12.8953 29.9244C12.9067 29.9658 12.92 30.0148 12.9238 30.0327C12.9285 30.0505 12.9361 30.0807 12.9409 30.0986C12.9589 30.1616 12.9931 30.2831 13.0158 30.3669C13.0291 30.413 13.0434 30.4638 13.0471 30.4798C13.0519 30.4949 13.0642 30.5401 13.0747 30.5787C13.0851 30.6173 13.0965 30.6597 13.1003 30.6728C13.1031 30.686 13.1164 30.7322 13.1288 30.7764C13.142 30.8206 13.1563 30.8734 13.162 30.8941C13.1677 30.9148 13.1762 30.9421 13.18 30.9553C13.1838 30.9685 13.1923 30.9958 13.198 31.0165C13.2701 31.2725 13.2882 31.3375 13.3043 31.3978C13.3147 31.4364 13.328 31.4825 13.3328 31.4985C13.3375 31.5154 13.3451 31.5437 13.3498 31.5597C13.3546 31.5766 13.3622 31.6011 13.365 31.6143C13.3688 31.6275 13.3802 31.6651 13.3906 31.699C13.4011 31.7329 13.4134 31.7725 13.4172 31.7885C13.4381 31.8647 13.4533 31.9231 13.459 31.9457C13.4618 31.9607 13.4685 31.972 13.4732 31.972C13.477 31.972 13.5358 31.9156 13.6032 31.8478C13.8423 31.6039 14.2029 31.249 14.4003 31.0635C14.5103 30.96 14.7295 30.7529 14.8889 30.6032C15.0474 30.4525 15.2542 30.2577 15.3482 30.1701C15.4421 30.0816 15.5636 29.9667 15.6186 29.915C15.6736 29.8632 15.759 29.7822 15.8084 29.7361C15.8577 29.689 15.9393 29.6128 15.9887 29.5666C16.038 29.5196 16.1215 29.4414 16.1737 29.3925C16.2259 29.3435 16.316 29.2588 16.373 29.2042C16.4309 29.1496 16.5969 28.9933 16.743 28.8558C16.8892 28.7184 17.0562 28.5621 17.1131 28.5075C17.171 28.4529 17.2583 28.371 17.3076 28.3249C17.357 28.2787 17.4367 28.2043 17.4832 28.1601C17.5306 28.1149 17.6454 28.0066 17.7394 27.9191C17.8333 27.8315 17.9462 27.7251 17.9908 27.6828C18.1208 27.5604 18.6455 27.068 18.8922 26.8364C18.9368 26.795 19.0156 26.7206 19.0678 26.6717C19.12 26.6218 19.2016 26.5455 19.2481 26.5022C19.2955 26.458 19.3809 26.3779 19.4379 26.3233C19.4957 26.2687 19.5811 26.1887 19.6276 26.1454C19.6751 26.1011 19.7538 26.0277 19.8032 25.9806C19.8535 25.9336 19.9664 25.8272 20.0546 25.7443C20.1429 25.6615 20.2558 25.5551 20.3061 25.508C20.3554 25.4619 20.4816 25.3433 20.586 25.2454C20.6904 25.1474 20.8099 25.0354 20.8517 24.9959C20.9627 24.8914 21.4409 24.4423 21.7246 24.1768C21.8603 24.0507 22.0141 23.9057 22.0662 23.8567C22.1184 23.8068 22.1887 23.74 22.2228 23.7089L22.2845 23.6505L22.1801 23.6025C22.1222 23.5752 22.0435 23.5385 22.0046 23.5206C21.9657 23.5018 21.9011 23.4726 21.8622 23.4538C21.7711 23.4124 21.6819 23.3709 21.5681 23.3173C21.5187 23.2947 21.459 23.2674 21.4352 23.2561C21.4115 23.2457 21.3252 23.2052 21.2417 23.1657C21.1591 23.1261 21.088 23.0941 21.088 23.0941C21.088 23.0941 21.032 23.0687 20.9665 23.0377C20.901 23.0075 20.827 22.9727 20.8023 22.9614C20.7777 22.9501 20.7037 22.9162 20.6391 22.8861C20.5746 22.855 20.5186 22.8305 20.5186 22.8305C20.5186 22.8305 20.4626 22.8051 20.3972 22.774C20.3317 22.7439 20.2577 22.7091 20.233 22.6978C20.2083 22.6865 20.1429 22.6564 20.0888 22.6319C20.0347 22.6065 19.9882 22.5858 19.9844 22.5858C19.9816 22.5858 19.9512 22.6121 19.917 22.6451Z" fill="#FFBD17"/>
</g>
<defs>
<clipPath id="clip0_8418_3102">
<rect width="160" height="32" fill="white"/>
</clipPath>
</defs>
</svg>
