<svg width="199" height="40" viewBox="0 0 199 40" fill="none" xmlns="http://www.w3.org/2000/svg">
<g clip-path="url(#clip0_1384_28)">
<mask id="mask0_1384_28" style="mask-type:luminance" maskUnits="userSpaceOnUse" x="0" y="0" width="199" height="40">
<path d="M199 0H0V40H199V0Z" fill="white"/>
</mask>
<g mask="url(#mask0_1384_28)">
<path d="M30.276 0.0128106C30.2689 0.0198726 30.2182 0.0304631 30.1639 0.0363474C30.1096 0.0434093 30.0282 0.0528245 29.9822 0.0587086C29.9373 0.0657683 29.8571 0.0751834 29.8051 0.0822429C29.7131 0.095189 29.3909 0.143438 29.2504 0.166974C29.2115 0.172859 29.1478 0.183449 29.1089 0.190512C29.0699 0.196395 29.0121 0.20581 28.979 0.211695C28.9472 0.217579 28.8905 0.228169 28.8551 0.234054C28.7949 0.244644 28.5447 0.296424 28.4361 0.31996C28.4101 0.325845 28.3653 0.33526 28.3359 0.342319C28.1682 0.376449 27.9228 0.439998 27.7104 0.502368C27.6549 0.518843 27.5947 0.536495 27.5746 0.542379C27.5251 0.555325 27.2488 0.647117 27.2206 0.66006C27.2075 0.665944 27.1628 0.682422 27.1202 0.696543C27.0778 0.710664 27.0153 0.734202 26.9798 0.749498C26.9456 0.764798 26.9125 0.777743 26.9067 0.777743C26.9007 0.777743 26.8689 0.790687 26.8347 0.805987C26.7992 0.822462 26.745 0.84482 26.7131 0.857767C26.6801 0.870713 26.575 0.918962 26.4771 0.966034C26.2599 1.06959 26.1892 1.09313 26.0463 1.11431C25.8327 1.14491 25.5282 1.08725 25.2614 0.966034C25.219 0.946027 25.1825 0.930729 25.1789 0.930729C25.1789 0.930729 25.1399 0.914253 25.0974 0.895424C24.885 0.796572 24.3822 0.616518 24.1167 0.542379C23.9008 0.482362 23.5527 0.396455 23.3968 0.365857C23.188 0.324669 22.795 0.255237 22.6533 0.236407C21.8059 0.118726 20.9444 0.0622373 20.2281 0.0775365C19.8338 0.0857739 19.3653 0.117548 19.0834 0.15403C19.0349 0.16109 18.9523 0.171682 18.9004 0.178743C18.6443 0.211695 18.2147 0.288187 17.9858 0.343498C17.9303 0.356443 17.8619 0.372918 17.8323 0.379978C17.7698 0.395276 17.4181 0.491777 17.3661 0.508252C17.0569 0.605927 16.7206 0.724785 16.5837 0.784803C16.56 0.795395 16.5294 0.808339 16.5164 0.813047C16.5035 0.817755 16.468 0.833054 16.4374 0.847175C16.4067 0.861297 16.376 0.871888 16.376 0.871888C16.3465 0.871888 15.6785 1.20846 15.5995 1.26259C15.583 1.27436 15.5664 1.28377 15.5628 1.28377C15.5475 1.28377 15.1675 1.52032 15.0177 1.62269C14.5279 1.95809 14.2045 2.22876 13.7607 2.67124C13.3879 3.04312 13.1045 3.36909 12.8295 3.74332C12.5098 4.17874 12.4201 4.27524 12.2136 4.41057C11.9681 4.57062 11.7191 4.67066 11.3296 4.76597C11.2293 4.79069 11.1148 4.81776 11.0759 4.82599C11.0369 4.83306 10.9815 4.84482 10.952 4.85071C10.9224 4.85659 10.8434 4.87189 10.7749 4.88601C10.7065 4.89896 10.6168 4.91778 10.5743 4.92719C10.5318 4.93661 10.474 4.94956 10.4445 4.95662C10.415 4.96368 10.3701 4.97309 10.3442 4.97898C9.8473 5.08959 9.14274 5.29437 8.72733 5.44971C8.59043 5.50031 8.28713 5.61799 8.24936 5.63447C8.17737 5.66624 8.1632 5.67212 8.05464 5.71802C7.29579 6.04282 6.53576 6.49001 5.92561 6.96662C5.53969 7.26907 5.08533 7.69861 4.76668 8.06224C4.5578 8.30113 4.34182 8.58239 4.15772 8.85659C4.03497 9.03899 3.89454 9.25906 3.89454 9.26847C3.89454 9.26847 3.87683 9.30143 3.85559 9.33556C3.77298 9.46501 3.52868 9.93691 3.44136 10.1334C3.42365 10.1758 3.39533 10.2382 3.37999 10.2723C3.3552 10.3253 3.3139 10.4265 3.26787 10.5418C3.26197 10.5571 3.25253 10.5806 3.24662 10.5947C3.16638 10.7913 3.02122 11.2173 2.96102 11.4338C2.95394 11.4597 2.94332 11.4938 2.93861 11.5103C2.91736 11.5786 2.85599 11.808 2.83356 11.9045C2.8253 11.9363 2.81468 11.9822 2.80879 12.0046C2.80288 12.0269 2.78636 12.0928 2.77219 12.1517C2.75804 12.2093 2.73089 12.3129 2.71201 12.3812C2.69313 12.4494 2.67307 12.5201 2.66716 12.5401C2.65536 12.5847 2.59635 12.7672 2.58455 12.799C2.57865 12.8118 2.55505 12.8755 2.53144 12.9401C2.50784 13.0048 2.48424 13.0672 2.47715 13.0778C2.47126 13.0896 2.46653 13.1037 2.46653 13.1108C2.46653 13.1178 2.45473 13.1485 2.44175 13.1791C2.42759 13.2096 2.40989 13.2497 2.40163 13.2697C2.30486 13.491 2.17385 13.7545 2.07236 13.9287C1.88589 14.2465 1.79856 14.3747 1.46221 14.8196C1.22146 15.1361 1.00903 15.4586 0.865045 15.7233C0.787154 15.8668 0.669137 16.1 0.632552 16.1823C0.558202 16.3493 0.5464 16.3776 0.520437 16.4436C0.515716 16.4588 0.505094 16.4836 0.498013 16.5C0.451987 16.613 0.431924 16.6647 0.385897 16.806C0.293844 17.0802 0.239556 17.2697 0.20061 17.4473C0.129801 17.7745 0.116819 17.8416 0.0932156 17.9946C-0.00473845 18.636 -0.022441 19.2302 0.0353873 19.954C0.0412882 20.0316 0.0519096 20.1717 0.0589907 20.2658C0.0660716 20.36 0.0766932 20.4895 0.082594 20.5542C0.0884948 20.6188 0.0991164 20.7353 0.106197 20.8131C0.117999 20.9425 0.133341 21.0885 0.165206 21.3838C0.185269 21.5627 0.219493 21.844 0.236016 21.9581C0.284403 22.2841 0.310366 22.4123 0.361114 22.5723C0.424842 22.7748 0.518076 23.0502 0.542859 23.1078C0.547581 23.1208 0.570004 23.1761 0.590067 23.2315C0.643174 23.368 0.664417 23.4197 0.755291 23.6256C0.815478 23.761 1.0881 24.3058 1.10934 24.3317C1.11406 24.3376 1.1294 24.3635 1.14357 24.3871C1.15773 24.4117 1.18015 24.4517 1.19313 24.4753C1.20729 24.5 1.24152 24.5565 1.26984 24.6001C1.29816 24.6436 1.32177 24.6825 1.32177 24.686C1.32177 24.6966 1.56134 25.0448 1.65694 25.1732C2.201 25.9087 2.80288 26.4806 3.65968 27.0785C4.40202 27.5975 4.87998 28.1281 5.20807 28.8013C5.24464 28.8766 5.27534 28.9448 5.27534 28.9448C5.27534 28.9483 5.28596 28.9766 5.30012 29.0072C5.31428 29.0378 5.32962 29.0743 5.33553 29.0885C5.34142 29.1037 5.35086 29.1272 5.35795 29.1413C5.37801 29.1896 5.49721 29.5603 5.53497 29.6921C5.6046 29.937 5.84418 30.4912 5.93741 30.6242C5.95039 30.6406 5.95984 30.6571 5.95984 30.6607C5.95984 30.6748 6.06604 30.8396 6.17226 30.9925C6.42718 31.3573 6.77769 31.7268 7.10931 31.9811C7.21081 32.0598 7.51884 32.2728 7.56486 32.2976C7.58139 32.3058 7.64747 32.3435 7.71238 32.3812C8.19743 32.6588 8.81702 32.8778 9.39412 32.9755C9.48971 32.9907 9.79892 33.032 9.9252 33.0448C10.0833 33.0613 10.7714 33.0613 10.9307 33.0448C11.3119 33.0061 11.5267 32.9755 11.8253 32.9142C11.8949 32.9001 12.1864 32.8283 12.3386 32.7872C12.4331 32.7612 12.7671 32.6542 12.8108 32.6353C12.8237 32.6295 12.8662 32.613 12.9052 32.5988C13.0078 32.5612 13.1435 32.506 13.2155 32.4741C13.2497 32.4588 13.2828 32.4458 13.2828 32.4458C13.3146 32.4458 13.841 32.18 14.0416 32.0611C14.09 32.0328 14.1325 32.0105 14.1325 32.0105C14.1549 32.0105 14.6789 31.6657 14.8996 31.5056C15.2301 31.2667 15.7174 30.8618 16.0149 30.5806C16.3854 30.23 16.6309 30.004 16.8232 29.8381C17.4807 29.2697 18.2571 28.7177 19.0066 28.2882C19.0974 28.2365 19.212 28.1728 19.2604 28.147C19.3087 28.1211 19.3548 28.0963 19.3606 28.0917C19.3913 28.067 19.8822 27.8292 20.0746 27.7445C20.2718 27.6575 20.2954 27.648 20.5231 27.568C20.5715 27.5503 20.6376 27.5268 20.6694 27.5138C20.7014 27.5021 20.7343 27.4915 20.7427 27.4915C20.7698 27.4915 20.7721 27.4703 20.7497 27.3832C20.7379 27.3361 20.7214 27.2678 20.7132 27.2326C20.7061 27.1973 20.6943 27.1491 20.6883 27.1267C20.6825 27.1043 20.6694 27.0513 20.6601 27.009C20.6506 26.9666 20.6257 26.8631 20.6057 26.7795C20.5857 26.6948 20.5644 26.603 20.5573 26.5736C20.5502 26.5442 20.5408 26.5018 20.5349 26.4795C20.529 26.4571 20.516 26.4041 20.5066 26.3617C20.4617 26.1676 20.4157 25.9757 20.4051 25.9428C20.398 25.9228 20.3933 25.8957 20.3933 25.8816C20.3933 25.8687 20.3886 25.8451 20.3827 25.8298C20.3767 25.8145 20.3662 25.7757 20.3602 25.744C20.3473 25.6862 20.2729 25.3721 20.2516 25.2908C20.2458 25.2685 20.2363 25.2261 20.2292 25.1967C20.1337 24.7825 20.1124 24.7025 20.0959 24.7025C20.0841 24.7025 19.8953 24.7366 19.697 24.7731C19.4362 24.8225 18.9004 24.9861 18.6147 25.1037C18.5994 25.1096 18.5758 25.1191 18.5616 25.125C18.4401 25.172 18.3586 25.2061 18.295 25.2343C18.2548 25.252 18.2182 25.2673 18.2147 25.2673C18.2111 25.2673 18.158 25.2908 18.0955 25.3202C18.0341 25.3497 17.9787 25.3732 17.9787 25.3732C17.9657 25.3732 17.4948 25.6086 17.3732 25.6757C17.2988 25.7168 17.2364 25.7498 17.2364 25.7498C17.2364 25.7498 17.0038 25.8792 16.8799 25.9511C16.8232 25.9828 16.6321 26.1005 16.4456 26.2182C15.7446 26.6607 14.8158 27.3785 14.1914 27.9622C14.1467 28.0046 14.0665 28.0787 14.0145 28.127C13.9626 28.1752 13.848 28.2847 13.7607 28.3693C13.3406 28.7777 12.9512 29.0755 12.5039 29.3332C12.3847 29.4015 12.0554 29.5673 11.9787 29.598C11.9563 29.6062 11.9114 29.6262 11.8784 29.6403C11.6541 29.7403 11.2139 29.8768 10.952 29.9263C10.5731 29.9981 10.2379 30.0028 9.9134 29.9405C9.43779 29.8487 9.01412 29.5615 8.75447 29.1567C8.69192 29.0578 8.59161 28.8531 8.5562 28.7507C8.54795 28.7283 8.53851 28.699 8.5326 28.686C8.49011 28.573 8.3957 28.1305 8.35676 27.8622C8.29539 27.4338 8.27296 27.1291 8.27296 26.7442C8.27415 26.4076 8.31072 25.9746 8.3662 25.6733C8.3721 25.6403 8.38271 25.5827 8.3898 25.5438C8.40396 25.4615 8.43465 25.3332 8.47949 25.1673C8.4972 25.1026 8.5149 25.0331 8.52079 25.0143C8.54086 24.9355 8.64472 24.6401 8.6636 24.606C8.6695 24.5942 8.67422 24.5801 8.67422 24.573C8.67422 24.5482 8.81349 24.2387 8.91616 24.0376C9.38468 23.1172 10.1058 22.29 11.0936 21.5415C11.6955 21.0861 12.413 20.7307 13.1707 20.5153C13.6167 20.3882 14.0121 20.3176 14.5692 20.2635C14.7756 20.2435 15.6042 20.2435 15.8083 20.2635C16.1801 20.3 16.4043 20.3271 16.5931 20.36C16.6593 20.3717 16.9896 20.4376 17.0653 20.4541C17.0876 20.4588 17.1337 20.4695 17.1655 20.4765C17.2434 20.4918 17.5338 20.5671 17.5987 20.5871C17.6269 20.5965 17.673 20.6106 17.7026 20.6188C17.8996 20.6753 18.439 20.8625 18.5852 20.9248C18.5994 20.932 18.6231 20.9413 18.6384 20.9472C18.6525 20.9531 18.6891 20.9683 18.7198 20.9825C18.7505 20.9966 18.7788 21.0072 18.7824 21.0072C18.7882 21.0072 18.9099 21.0613 19.101 21.1485C19.2084 21.1967 19.5506 21.3685 19.6569 21.425C20.0806 21.6568 20.3933 21.8475 20.7981 22.1217C21.1013 22.3265 21.0955 22.323 21.4496 22.5842C21.8378 22.8725 22.2721 23.2208 22.8079 23.6727C22.9872 23.8246 23.6931 24.4376 23.9752 24.686C24.6608 25.2897 25.0703 25.631 25.4562 25.9216C26.077 26.3888 26.5431 26.6888 27.2559 27.082C27.3398 27.1278 27.9889 27.4491 28.0644 27.4832C28.0869 27.4927 28.1376 27.515 28.1765 27.5327C28.2886 27.5833 28.4692 27.6586 28.6545 27.7316C28.8799 27.821 28.867 27.8163 28.9141 27.8327C28.9365 27.841 28.9661 27.8516 28.979 27.8563C29.0888 27.901 29.5714 28.0611 29.726 28.1046C29.7756 28.1187 29.8429 28.1376 29.8877 28.1505C29.9078 28.1552 29.9846 28.1763 30.0588 28.1952C30.1332 28.2152 30.2265 28.24 30.2654 28.2506C30.3044 28.2611 30.3598 28.2741 30.3893 28.2811C30.4188 28.287 30.4613 28.2976 30.4837 28.3023C30.551 28.3188 30.9333 28.3976 31.003 28.4106C32.0628 28.6012 33.158 28.6566 34.1836 28.573C34.3535 28.5588 34.6085 28.533 34.7442 28.5141C35.0026 28.48 35.11 28.4647 35.2221 28.4447C35.2551 28.4388 35.3153 28.4282 35.3578 28.4212C35.4286 28.4082 35.6328 28.3671 35.7767 28.3365C35.9408 28.3023 36.145 28.2541 36.2901 28.2141C36.4554 28.1693 36.4648 28.167 36.5617 28.1387C36.61 28.1258 36.6666 28.1093 36.6855 28.1046C36.7197 28.0952 36.898 28.0376 37.0513 27.9881C37.0904 27.9752 37.1435 27.9563 37.1694 27.947C37.1953 27.9375 37.2567 27.9151 37.305 27.8975C37.3972 27.8646 37.5647 27.8022 37.606 27.7857C37.6191 27.7798 37.6722 27.7586 37.7241 27.7386C37.7761 27.7175 37.8374 27.6927 37.8598 27.6833C37.8821 27.6738 37.9118 27.661 37.9247 27.6551C37.9754 27.6338 38.1891 27.5386 38.267 27.5032C38.3803 27.4527 38.7862 27.2491 38.9161 27.1796C39.0494 27.1078 39.4105 26.8996 39.5121 26.8348C39.5545 26.8077 39.6123 26.7725 39.6418 26.7548C39.7493 26.6901 40.1836 26.39 40.3664 26.2523C41.3602 25.5086 42.2004 24.6366 42.8956 23.6316C42.9605 23.5373 43.016 23.455 43.0183 23.4491C43.0207 23.4421 43.0478 23.3997 43.0773 23.355C43.1068 23.3091 43.1788 23.1985 43.2366 23.1078C43.5505 22.6147 43.9636 22.2276 44.5101 21.9133C44.6469 21.8346 44.9726 21.6745 45.0825 21.631C45.1178 21.6168 45.1662 21.598 45.1887 21.5873C45.2111 21.578 45.2405 21.5651 45.2536 21.5603C45.2665 21.5556 45.296 21.5427 45.3184 21.5332C45.3409 21.5238 45.394 21.5015 45.4364 21.4838C45.479 21.4662 45.5415 21.4391 45.5757 21.4238C45.6099 21.4085 45.643 21.3956 45.643 21.3956C45.6536 21.3956 46.1492 21.1496 46.239 21.1002C46.2874 21.0731 46.3782 21.0213 46.4396 20.9848C46.501 20.9483 46.5564 20.9166 46.5635 20.9142C46.5695 20.912 46.6898 20.8342 46.8291 20.7425C47.333 20.4095 47.6635 20.14 48.0871 19.7186C48.3338 19.4727 48.4176 19.3843 48.5344 19.2478C48.5733 19.2032 48.6124 19.1585 48.6206 19.1502C48.6548 19.1137 48.9074 18.7925 48.9829 18.6888C49.0278 18.6277 49.0867 18.5453 49.1151 18.5077C49.1753 18.4265 49.4136 18.0687 49.4136 18.0605C49.4136 18.057 49.4372 18.0181 49.4656 17.9746C49.5139 17.8992 49.7205 17.5497 49.7205 17.5415C49.7205 17.5415 49.75 17.4862 49.7866 17.4226C49.842 17.3261 50.1595 16.6907 50.1925 16.6118C50.1973 16.5988 50.2185 16.553 50.2386 16.5095C50.2586 16.4658 50.2751 16.4282 50.2751 16.4247C50.2751 16.4247 50.294 16.3788 50.3164 16.3306C50.3389 16.2811 50.3578 16.2387 50.3578 16.2352C50.3578 16.2317 50.3684 16.2035 50.3826 16.1728C50.4239 16.0811 50.4262 16.0752 50.4757 15.9481C50.5254 15.8233 50.6492 15.4562 50.6752 15.3585C50.6834 15.3291 50.6941 15.2891 50.7 15.2702C50.7307 15.1632 50.8004 14.8525 50.818 14.7431C50.8251 14.7066 50.8358 14.643 50.8428 14.6018C50.8582 14.5112 50.8711 14.4147 50.8912 14.2465C50.9137 14.0593 50.9124 12.6871 50.89 12.4988C50.8404 12.0752 50.8086 11.8928 50.7094 11.4632C50.6989 11.4138 50.6929 11.3915 50.6658 11.2773C50.6599 11.2538 50.6458 11.202 50.6351 11.1631C50.5985 11.0302 50.5443 10.8219 50.5336 10.7748C50.523 10.7207 50.4392 10.3959 50.4109 10.2923C50.4002 10.2535 50.3861 10.2029 50.3813 10.1805C50.3637 10.1087 50.3495 10.0605 50.3071 9.92749C50.2575 9.77333 50.2527 9.75803 50.2398 9.72743C50.2351 9.71449 50.2244 9.68507 50.2162 9.66271C50.2009 9.61682 50.1985 9.61093 50.1501 9.49207C50.1111 9.39322 49.9743 9.10961 49.9152 9.00369C49.8916 8.96132 49.8019 8.82128 49.7146 8.69066C49.0041 7.62917 48.106 6.72773 47.0888 6.05577C46.9684 5.97692 46.8551 5.90278 46.8349 5.89219C46.8161 5.88159 46.7677 5.85336 46.7288 5.82864C46.4113 5.62976 45.9191 5.38027 45.4955 5.20257C45.414 5.16844 45.3302 5.13314 45.3102 5.12373C45.2677 5.10607 45.1614 5.06488 45.0175 5.01193C44.8417 4.94721 44.4404 4.81658 44.2504 4.76244C44.1465 4.73302 44.0462 4.70361 44.0261 4.69772C43.9507 4.67418 43.3925 4.54238 43.3121 4.52826C43.2957 4.52473 43.2402 4.51413 43.1882 4.50354C43.0207 4.47059 42.9782 4.46236 42.8047 4.43176C42.6324 4.40233 42.5438 4.38822 42.3916 4.36703C41.9939 4.31054 41.8818 4.29054 41.6954 4.24347C41.5183 4.19992 41.4051 4.15874 41.2645 4.08931C41.0604 3.98809 40.966 3.90926 40.6367 3.56444C39.538 2.41352 38.4687 1.60857 37.2402 1.0084C37.1304 0.954267 36.9995 0.893072 36.9511 0.871888C36.9027 0.850704 36.8365 0.822462 36.8036 0.807164C36.7717 0.79304 36.6808 0.75656 36.603 0.724785C36.525 0.694189 36.4507 0.664769 36.4377 0.66006C36.3469 0.622402 35.9644 0.490599 35.8948 0.471772C35.876 0.465887 35.8145 0.448234 35.7591 0.430581C35.6339 0.39057 35.6363 0.391747 35.3544 0.31996C35.1396 0.265828 35.0132 0.236407 34.8917 0.21287C34.8657 0.206987 34.8126 0.196395 34.7736 0.189334C34.6816 0.170505 34.6356 0.163444 34.396 0.12461C34.1092 0.0787144 33.9216 0.0575309 33.6289 0.0363474C33.5321 0.0292878 33.4507 0.0186949 33.4483 0.0116353C33.4425 -0.00366405 30.2914 -0.00248626 30.276 0.0128106ZM32.4747 3.11372C32.6824 3.13021 32.7532 3.13726 32.9916 3.16786C33.2772 3.20434 33.6466 3.27494 33.9121 3.34438C33.9381 3.35144 33.9783 3.36203 34.0007 3.36792C34.1329 3.40087 34.363 3.47147 34.5376 3.53149C34.868 3.64329 34.8846 3.65036 35.2398 3.80334C35.3142 3.83512 35.765 4.05871 35.8358 4.09872C35.8618 4.11402 35.9208 4.14697 35.9657 4.17168C36.2205 4.31408 36.741 4.66829 36.9169 4.81893C36.9393 4.83893 36.9982 4.88718 37.0466 4.92602C37.3558 5.17668 37.7288 5.55562 38.0369 5.93102C38.706 6.75009 39.3409 7.24082 40.1623 7.57739C40.4219 7.68331 40.8645 7.81746 41.0699 7.85394C41.0864 7.85747 41.1395 7.86807 41.1879 7.87748C41.352 7.91161 41.6115 7.94927 41.7956 7.96692C42.1155 7.99752 42.237 8.00339 42.4778 8.00339C43.0891 8.00339 43.4136 8.04223 43.9317 8.17992C44.1347 8.23288 44.5077 8.39174 44.752 8.52943C45.4566 8.92484 46.1186 9.58857 46.6863 10.4677C46.7536 10.57 46.8172 10.6701 46.8279 10.6912C46.8396 10.7113 46.8834 10.7854 46.9258 10.8572C47.0592 11.0867 47.2279 11.4468 47.3036 11.6692C47.3094 11.688 47.32 11.7151 47.3247 11.728C47.372 11.8457 47.4698 12.1952 47.5018 12.3635C47.5089 12.4023 47.5195 12.4553 47.5253 12.4812C47.5313 12.5071 47.5419 12.5706 47.5489 12.6225C47.556 12.6742 47.5667 12.7483 47.5726 12.7872C47.6233 13.112 47.6222 13.7486 47.5726 14.0817C47.5667 14.1205 47.556 14.1946 47.5489 14.2465C47.536 14.3358 47.5289 14.3782 47.5018 14.5112C47.4735 14.6512 47.4582 14.7136 47.3814 14.982C47.3754 15.0043 47.3672 15.0372 47.3636 15.0561C47.3601 15.0737 47.3531 15.0913 47.3472 15.095C47.3412 15.0985 47.3365 15.1137 47.3365 15.1291C47.3365 15.1443 47.3318 15.1608 47.3247 15.1643C47.3189 15.1678 47.3129 15.182 47.3129 15.195C47.3129 15.2067 47.3083 15.2267 47.3023 15.2385C47.2952 15.2491 47.2763 15.2985 47.2587 15.3467C47.241 15.395 47.2161 15.4586 47.2032 15.488C47.1914 15.5173 47.1737 15.5562 47.1654 15.5762C47.0875 15.7598 46.9802 15.9728 46.8787 16.1493C46.8645 16.1741 46.842 16.2141 46.8279 16.2376C46.783 16.3176 46.5859 16.6095 46.4962 16.7307C46.1847 17.1472 45.7269 17.6038 45.2984 17.9275C44.7709 18.3241 44.228 18.6218 43.6249 18.8477C43.4325 18.9196 43.213 18.9878 42.97 19.0537C42.741 19.115 42.3905 19.1796 42.1556 19.2055C42.0942 19.2126 41.9916 19.2243 41.9278 19.2315C41.7768 19.2478 41.0652 19.2478 40.9247 19.2315C40.8645 19.2243 40.7654 19.2126 40.704 19.2055C40.5694 19.1902 40.3511 19.155 40.2378 19.1291C40.1009 19.0985 39.957 19.0643 39.9251 19.0537C39.9086 19.049 39.872 19.0385 39.8424 19.0302C39.6914 18.9878 39.4472 18.9031 39.3232 18.8501C39.3008 18.8407 39.2477 18.8183 39.2051 18.8007C39.0931 18.7536 38.9727 18.6925 38.929 18.6595C38.9077 18.643 38.8771 18.6053 38.8617 18.5747C38.837 18.5265 38.8334 18.5041 38.8334 18.39C38.8334 18.23 38.8512 18.1463 38.9337 17.9181C38.9857 17.7733 39.1438 17.4508 39.2382 17.2943C39.2737 17.2356 39.3126 17.1696 39.3255 17.1472C39.3857 17.0426 39.6052 16.7412 39.7917 16.5095C39.9039 16.3682 39.9959 16.2493 39.9959 16.2435C39.9959 16.2376 39.9333 16.1965 39.8578 16.1505C39.2606 15.7975 38.8039 15.528 38.7744 15.5115C38.7555 15.4997 38.6966 15.4656 38.6446 15.435C38.5927 15.4045 38.5349 15.3691 38.5148 15.3585C38.4959 15.3467 38.4369 15.3126 38.385 15.282C38.333 15.2502 38.2351 15.1926 38.1666 15.1526C38.0982 15.1126 37.9825 15.0443 37.9105 15.002C37.7135 14.8855 37.534 14.7795 37.3889 14.6948L37.259 14.6183L37.0939 14.8277C36.8318 15.1596 36.5333 15.5068 36.2016 15.8646C36.0683 16.0093 35.6234 16.4495 35.5077 16.5495C35.169 16.8483 34.9459 16.9978 34.5023 17.2237C34.3688 17.292 34.1305 17.3991 33.9947 17.4532C33.9252 17.4815 33.6879 17.5651 33.6289 17.5838C33.6029 17.591 33.5687 17.6015 33.5522 17.6075C33.3763 17.6638 33.0353 17.7451 32.8146 17.7816C32.4805 17.8368 32.333 17.8475 31.9 17.8475C31.4987 17.8475 31.4456 17.844 31.1564 17.8051C30.7445 17.7498 30.2418 17.6168 29.9113 17.4768C29.8984 17.4708 29.8642 17.4567 29.8346 17.445C29.3095 17.2308 28.7194 16.8601 28.2792 16.4658C27.9581 16.18 27.7906 15.9952 27.0636 15.1326C27.0258 15.089 26.9927 15.0526 26.9869 15.0526C26.9822 15.0526 26.8228 15.1678 26.6328 15.3091C26.444 15.4503 26.2139 15.621 26.123 15.688C26.0322 15.7551 25.8256 15.9092 25.6628 16.0293C25.5011 16.1493 25.2934 16.3035 25.2025 16.3706C24.9075 16.5883 24.4708 16.9142 24.4613 16.9237C24.4555 16.9283 24.479 16.9731 24.5144 17.0213C24.5487 17.0696 24.6089 17.1532 24.6478 17.2073C25.0726 17.804 25.789 18.5112 26.5124 19.049C26.7143 19.1996 27.066 19.4421 27.1793 19.508C27.2017 19.5221 27.2784 19.568 27.3481 19.6103C27.4189 19.6538 27.4778 19.6892 27.4814 19.6892C27.4814 19.6892 27.5109 19.7045 27.5416 19.7233C27.6726 19.8033 28.0974 20.0198 28.3063 20.1128C28.3394 20.127 28.3925 20.1505 28.4243 20.1658C28.4574 20.18 28.5601 20.2223 28.6545 20.26C28.7489 20.2965 28.8362 20.3317 28.8492 20.3365C28.8893 20.3541 29.1643 20.4506 29.2327 20.4718C29.3897 20.5201 29.5998 20.5812 29.7402 20.6177C29.7627 20.6236 29.8027 20.6342 29.8287 20.6412C30.0152 20.6895 30.3657 20.7601 30.5959 20.7942C31.121 20.8731 31.4043 20.8931 31.9707 20.8931C32.431 20.892 32.6387 20.8825 32.9858 20.8425C33.1733 20.8201 33.3823 20.7966 33.6089 20.7718C33.7244 20.7601 33.8979 20.7436 34.16 20.7225C34.3937 20.7025 35.1088 20.7025 35.2929 20.7225C35.5986 20.7542 35.765 20.7825 36.0104 20.8437C36.4164 20.9448 36.7799 21.1013 37.2095 21.3591C37.5706 21.5756 38.0238 21.7733 38.4852 21.9133C38.5538 21.9333 38.6222 21.9557 38.6387 21.9605C38.6553 21.9663 38.7378 21.9898 38.8217 22.0135C38.9066 22.0357 38.9939 22.0605 39.0163 22.0663C39.086 22.0863 39.3197 22.1463 39.5003 22.19C39.8106 22.2652 39.8779 22.2876 39.8779 22.3111C39.8779 22.37 39.3373 22.9666 39.0199 23.2573C38.8665 23.3985 38.5856 23.6386 38.5125 23.6903C38.4994 23.6998 38.4345 23.7492 38.3672 23.7998C37.8799 24.1705 37.2379 24.5412 36.6501 24.7907C36.6312 24.799 36.5911 24.8166 36.5617 24.8283C36.5321 24.8413 36.4424 24.8766 36.3609 24.9072C36.2796 24.9378 36.2028 24.9672 36.1899 24.9731C36.1556 24.9883 35.8629 25.0837 35.7591 25.1143C35.7107 25.1285 35.6576 25.145 35.641 25.1496C35.5514 25.1778 35.3224 25.2367 35.1927 25.2661C35.1312 25.2802 35.0592 25.2967 35.0333 25.3026C35.0073 25.3085 34.9282 25.3238 34.8562 25.3367C34.4302 25.4145 34.2462 25.438 33.7528 25.4791C33.564 25.4945 32.7284 25.4945 32.5502 25.4791C32.0664 25.4367 31.8161 25.405 31.534 25.3508C31.3216 25.3097 31.2863 25.3015 31.1919 25.2802C31.029 25.2437 30.8342 25.1932 30.643 25.1378C30.5132 25.1013 30.1379 24.9766 30.0766 24.9507C30.0636 24.9448 30.0081 24.9225 29.9526 24.9013C29.8972 24.8813 29.8311 24.8542 29.8051 24.8437C29.7791 24.8318 29.7107 24.8036 29.6518 24.779C29.5939 24.7542 29.4286 24.6777 29.2858 24.6083C28.7347 24.34 28.2579 24.0411 27.7659 23.6551C27.695 23.5997 27.623 23.5445 27.6053 23.5315C27.4554 23.4208 26.6328 22.7512 25.9283 22.1663C25.2685 21.618 24.8838 21.3038 24.4766 20.9778C24.1533 20.7201 24.1238 20.6966 23.8948 20.5212C23.5231 20.2352 23.4523 20.1835 23.0663 19.9057C22.6096 19.5773 21.9122 19.1243 21.5027 18.8925C21.4802 18.8796 21.4058 18.8372 21.3374 18.7983C21.066 18.6442 20.8371 18.523 20.5468 18.3806C20.3107 18.2652 20.0628 18.1476 20.0557 18.1476C20.0557 18.1476 20.0239 18.1346 19.9897 18.1193C19.7678 18.0193 19.2993 17.8298 19.1694 17.7886C19.1387 17.7781 19.1021 17.7651 19.0892 17.7592C19.0609 17.7462 18.6443 17.6075 18.5936 17.5945C18.5747 17.5886 18.5132 17.571 18.4578 17.5545C18.256 17.4921 17.7509 17.3626 17.6022 17.3356C17.5762 17.3308 17.5125 17.318 17.4605 17.3073C17.0911 17.2332 16.7277 17.1791 16.3867 17.1472C16.0704 17.1191 15.9405 17.112 15.6195 17.105C14.8996 17.0896 14.1538 17.1508 13.5012 17.2767C13.4716 17.2815 13.4137 17.2932 13.3713 17.3002C13.258 17.3202 13.1494 17.345 12.8284 17.4226C12.708 17.4521 12.5274 17.5003 12.4272 17.531C12.3268 17.5603 12.2289 17.5886 12.2088 17.5945C12.1463 17.6097 11.6577 17.7757 11.5833 17.8063C11.5704 17.811 11.5231 17.8298 11.4771 17.8475C11.4323 17.864 11.3851 17.884 11.3744 17.8898C11.3627 17.8957 11.3485 17.9005 11.3414 17.9005C11.3355 17.9005 11.3025 17.9133 11.2682 17.9287C11.234 17.944 11.1656 17.9733 11.1172 17.9922C11.0688 18.0122 10.9862 18.0476 10.9342 18.0711C10.8823 18.0946 10.8162 18.1252 10.7867 18.1381C10.7088 18.1735 10.3265 18.3641 10.2474 18.4076C10.2096 18.4288 10.1423 18.4665 10.0963 18.4923C10.0515 18.5182 9.99011 18.5523 9.96296 18.5677C9.5924 18.7772 9.12859 19.0961 8.74503 19.4056C8.38036 19.6998 7.94369 20.1152 7.64276 20.453C7.48461 20.6318 7.1754 21.0131 7.04558 21.1908C6.85676 21.4497 6.53694 21.944 6.41066 22.1723C6.39413 22.2017 6.37761 22.23 6.37289 22.237C6.34693 22.2723 5.99642 22.9561 5.95511 23.0548C5.94213 23.0843 5.91381 23.1478 5.89256 23.1961C5.87014 23.2443 5.84771 23.295 5.84182 23.308C5.83709 23.3208 5.82411 23.3502 5.81349 23.3738C5.80405 23.3973 5.7415 23.548 5.67659 23.708C5.51373 24.1081 5.42521 24.3 5.39689 24.3106C5.37801 24.3176 5.32962 24.2906 5.19508 24.2C4.93899 24.0246 4.795 23.907 4.60618 23.7186C4.21554 23.3267 3.87683 22.7866 3.65379 22.1958C3.62311 22.1146 3.59241 22.0393 3.58651 22.0287C3.58062 22.017 3.57589 21.997 3.57589 21.9852C3.57589 21.9722 3.57117 21.9581 3.56409 21.9546C3.55819 21.9511 3.55229 21.9346 3.55229 21.9192C3.55229 21.904 3.54757 21.8887 3.54166 21.8851C3.53577 21.8816 3.52868 21.864 3.52515 21.8463C3.5216 21.8275 3.51334 21.7945 3.50627 21.7722C3.47675 21.6698 3.43073 21.5038 3.42248 21.4662C3.3139 20.9943 3.24544 20.4388 3.24544 20.0305C3.24544 19.7551 3.28793 19.295 3.33985 19.0302C3.36819 18.8807 3.37763 18.8325 3.38707 18.7948C3.39296 18.7725 3.40358 18.7266 3.41185 18.6948C3.4331 18.603 3.54048 18.2523 3.56291 18.2005C3.56882 18.1876 3.60421 18.1005 3.64199 18.0063C4.13175 16.7883 5.10893 15.7198 6.25134 15.1537C6.67147 14.9455 7.00193 14.829 7.47635 14.7231C7.55896 14.7053 7.73362 14.6771 7.93662 14.6512C8.16557 14.6206 9.80836 14.6277 10.0857 14.6607L10.1471 14.6666L10.1601 14.5653C10.1742 14.4512 10.1931 14.3006 10.2025 14.2052C10.2061 14.17 10.2143 14.1028 10.2202 14.0581C10.2261 14.0122 10.2368 13.9205 10.2438 13.8522C10.2509 13.784 10.2615 13.6862 10.2675 13.6345C10.2733 13.5827 10.284 13.4873 10.291 13.4226C10.3052 13.2897 10.3205 13.1472 10.3383 12.9955C10.3442 12.939 10.3583 12.8213 10.3678 12.7342C10.3772 12.6471 10.3902 12.5306 10.3973 12.4753C10.4032 12.42 10.4138 12.3223 10.4209 12.2576C10.4339 12.134 10.4468 12.0199 10.4669 11.8516C10.474 11.7963 10.4822 11.7151 10.487 11.6704L10.494 11.5892L10.389 11.5962C10.3324 11.6009 10.1789 11.6115 10.0491 11.6221C9.25014 11.6809 7.985 11.6715 7.49405 11.6045C7.44566 11.5974 7.36541 11.5868 7.31703 11.5797C7.17422 11.5597 7.00664 11.5233 6.89217 11.4868C6.74701 11.4409 6.71869 11.4091 6.73284 11.3103C6.74464 11.2185 6.76825 11.1631 6.84968 11.0349C6.92049 10.9243 7.05031 10.7607 7.16715 10.6395C7.82567 9.95456 8.19272 9.59916 8.41458 9.43323C8.43229 9.42028 8.51254 9.36027 8.59279 9.29907C9.04125 8.96132 9.56171 8.67889 10.0963 8.48354C10.186 8.45058 10.4409 8.36821 10.5035 8.35056C11.0936 8.19404 11.4299 8.14697 12.1557 8.12108C12.3469 8.11402 12.57 8.09989 12.6514 8.09048C13.5283 7.99046 14.1703 7.74332 14.7639 7.27494C14.9102 7.15962 15.191 6.87836 15.3292 6.70889C15.4284 6.58768 15.6915 6.20757 15.7339 6.12402C15.7434 6.10637 15.767 6.06401 15.7847 6.03223C15.8036 5.99928 15.8885 5.83452 15.9736 5.66506C16.2096 5.19787 16.3783 4.95779 16.6875 4.64829C17.0074 4.32938 17.3296 4.10343 17.7675 3.89159C18.2006 3.68094 18.5416 3.56916 19.0716 3.46206C19.3358 3.40911 19.3511 3.40676 19.671 3.36792C19.9319 3.33497 20.1466 3.32673 20.6175 3.32673C21.0919 3.32673 21.1852 3.33026 21.5262 3.36792C21.7682 3.39381 22.0196 3.43734 22.3347 3.50796C22.3901 3.52091 22.5305 3.55738 22.6238 3.58327C22.7006 3.60446 23.0085 3.70448 23.0427 3.71861C23.0558 3.72449 23.1218 3.75156 23.1904 3.77862C23.3945 3.85983 23.6824 3.99516 23.8275 4.07872C23.8701 4.10343 23.9208 4.13167 23.9397 4.14344C24.1179 4.24464 24.3704 4.41763 24.5593 4.56592C25.1246 5.00958 25.6332 5.60269 26.0144 6.26171C26.0275 6.28407 26.0533 6.32879 26.0722 6.36173C26.1077 6.42411 26.3225 6.85364 26.3614 6.94427C26.3744 6.97368 26.4109 7.06077 26.4416 7.13843C26.4724 7.21611 26.5018 7.29024 26.5066 7.30319C26.5242 7.34438 26.5786 7.49972 26.614 7.60917C26.6493 7.71861 26.6588 7.74921 26.6835 7.83864C26.6919 7.86807 26.7025 7.90454 26.7084 7.92102C26.7166 7.94691 26.7556 8.11519 26.7898 8.26818C26.8016 8.32232 26.8181 8.41764 26.837 8.54473C26.8441 8.59298 26.8547 8.66242 26.8618 8.69772C26.8677 8.73302 26.8736 8.77774 26.8748 8.79774C26.8783 8.82834 26.883 8.83306 26.9138 8.83188C26.9338 8.83071 26.9798 8.82364 27.0176 8.81658C27.0542 8.80952 27.1155 8.79774 27.1533 8.79068C27.1899 8.78363 27.2419 8.77421 27.2677 8.76833C27.2937 8.76362 27.4507 8.73302 27.6159 8.70007C27.7812 8.66594 27.9463 8.63299 27.9818 8.62593C28.0172 8.61887 28.068 8.60828 28.0938 8.60239C28.1198 8.59652 28.383 8.54473 28.678 8.48589C28.9732 8.42706 29.2363 8.37527 29.2622 8.36938C29.2882 8.36351 29.3413 8.35173 29.3802 8.34467C29.4192 8.33761 29.4723 8.32702 29.4983 8.32114C29.5243 8.31526 29.575 8.30584 29.6105 8.29878C29.9775 8.22582 30.0861 8.20346 30.0908 8.19993C30.093 8.19757 30.0861 8.16344 30.0754 8.12578C30.047 8.01752 29.9868 7.79039 29.9763 7.74449C29.9633 7.68801 29.9337 7.58446 29.9137 7.52091C29.9042 7.49148 29.8901 7.44441 29.8819 7.41499C29.8736 7.38557 29.8629 7.34908 29.8582 7.33261C29.8535 7.31613 29.8429 7.28201 29.8358 7.25612C29.8027 7.13373 29.5727 6.42999 29.5514 6.38527C29.5455 6.37233 29.5325 6.33821 29.523 6.30878C29.4901 6.20876 29.398 5.96162 29.3508 5.84394C29.346 5.83099 29.3295 5.79098 29.3153 5.75568C29.3011 5.72037 29.2811 5.67212 29.2717 5.64977C29.2622 5.62741 29.2493 5.59798 29.2446 5.58504C29.2398 5.57209 29.2245 5.53679 29.2104 5.50619C29.1962 5.47559 29.1856 5.44736 29.1856 5.44382C29.1856 5.43793 29.1596 5.38027 29.077 5.20257C28.9919 5.01781 28.8373 4.72008 28.776 4.62358C28.7619 4.59887 28.7489 4.57416 28.7489 4.57416C28.7489 4.56474 28.5813 4.31289 28.5129 4.21993C28.4397 4.11991 28.3712 4.00576 28.3712 3.98574C28.3712 3.94221 28.494 3.87277 28.8717 3.70213C29.1242 3.58798 29.5868 3.42911 29.9173 3.34438C30.1285 3.28907 30.1934 3.27377 30.3185 3.25023C30.6632 3.18198 30.9287 3.14432 31.2863 3.11491C31.5447 3.09254 32.1997 3.09254 32.4747 3.11372Z" fill="#FFBD17"/>
<path d="M139.355 6.59879C138.346 6.63528 137.679 6.68471 136.934 6.77884C135.274 6.99067 133.946 7.35431 132.834 7.90271C131.416 8.60173 130.352 9.65146 129.611 11.0801C128.82 12.6064 128.323 14.8718 128.161 17.6938C128.059 19.4543 128.081 21.5397 128.219 23.166C128.346 24.6653 128.571 25.9904 128.876 27.0413C129.324 28.5912 130.022 29.8468 130.952 30.7742C132.355 32.1722 134.361 32.9642 137.291 33.2737C138.288 33.3797 139.053 33.4149 140.31 33.4149C141.218 33.4149 141.53 33.4079 142.187 33.3679C144.273 33.2443 145.991 32.8995 147.291 32.3452C148.879 31.6674 150.024 30.6624 150.841 29.2267C151.572 27.938 152.022 26.3375 152.276 24.1134C152.587 21.3867 152.553 17.7703 152.193 15.246C151.886 13.0795 151.392 11.5897 150.568 10.3387C149.66 8.95831 148.364 7.99686 146.618 7.40609C145.234 6.93889 143.532 6.67647 141.396 6.60232C141.105 6.59173 139.607 6.58938 139.355 6.59879ZM140.948 12.3687C142.051 12.4158 142.885 12.5547 143.567 12.8065C143.785 12.8865 144.147 13.0654 144.311 13.1749C145.052 13.6668 145.526 14.3964 145.791 15.4497C145.991 16.2463 146.107 17.1772 146.177 18.5705C146.197 18.9648 146.204 20.5217 146.189 21.0124C146.134 22.7259 145.981 23.9674 145.708 24.883C145.498 25.5914 145.128 26.1928 144.658 26.5964C144.24 26.9554 143.731 27.199 143.035 27.3732C142.381 27.5368 141.698 27.6168 140.735 27.6438C139.381 27.6814 138.167 27.5544 137.293 27.2837C136.651 27.0848 136.194 26.8248 135.803 26.4329C135.487 26.1175 135.242 25.7479 135.053 25.3019C134.719 24.5147 134.505 23.2684 134.421 21.6479C134.372 20.6994 134.372 19.2708 134.421 18.3469C134.503 16.8089 134.706 15.5979 135.012 14.8342C135.315 14.0774 135.773 13.5138 136.388 13.1372C137.126 12.6877 138.212 12.4311 139.643 12.3699C139.963 12.3558 140.635 12.3558 140.948 12.3687Z" fill="#1A1037"/>
<path d="M58.5424 6.9665C58.199 7.01122 57.8638 7.18303 57.6172 7.44311C57.4178 7.65258 57.2843 7.90794 57.2195 8.20686C57.1994 8.29629 57.1994 8.8447 57.2006 18.7617C57.2018 26.351 57.2054 29.253 57.2148 29.3354C57.36 30.5922 58.0267 31.6785 59.0758 32.3705C59.5396 32.6752 60.1014 32.8989 60.6372 32.9906C60.9665 33.0471 60.9571 33.0471 62.2245 33.0519C62.8867 33.0541 63.4402 33.053 63.4543 33.0495L63.4815 33.0436V28.86V24.6764H63.9629C64.4847 24.6776 65.0463 24.6917 65.306 24.7117C66.1061 24.7741 66.3504 24.9259 66.9075 25.7037C67.1094 25.985 67.1719 26.0815 69.4696 29.6544L71.6447 33.0377L75.2997 33.0412C78.9251 33.0436 78.9535 33.0436 78.9535 33.02C78.9535 32.9965 78.6219 32.4257 78.282 31.862C76.9684 29.6909 75.728 27.8432 74.6222 26.4122C73.8598 25.4249 73.2237 24.7552 72.6159 24.3022C72.3753 24.1234 72.3976 24.148 72.42 24.0797L72.4389 24.0209L72.5723 23.9891C73.2674 23.8185 73.9802 23.5042 74.5691 23.1112C75.112 22.7476 75.6407 22.2557 76.0845 21.7014C77.1561 20.361 77.7993 18.6722 77.9668 16.7565C78.027 16.0786 78.027 15.1689 77.968 14.4264C77.8146 12.5116 77.2847 10.9441 76.3913 9.7638C76.1966 9.50842 76.0503 9.34131 75.8037 9.09536C75.4661 8.75878 75.1522 8.50931 74.7615 8.26688C73.4775 7.46665 71.8347 7.04535 69.6951 6.96532C69.2914 6.95002 58.6604 6.95237 58.5424 6.9665ZM68.6624 12.3363C69.6431 12.4246 70.2899 12.6622 70.7206 13.0919C71.1467 13.5166 71.4063 14.1769 71.5007 15.0795C71.5279 15.3277 71.5385 16.0469 71.5196 16.3162C71.4559 17.2484 71.2398 17.9215 70.8481 18.4051C70.4103 18.9465 69.6266 19.2454 68.4736 19.3101C68.3509 19.3172 67.2982 19.3219 65.8748 19.3219H63.4815V15.8232C63.4815 13.898 63.4851 12.3198 63.4897 12.3151C63.4944 12.3104 64.6109 12.3081 65.9716 12.3116C68.1737 12.3151 68.4676 12.3175 68.6624 12.3363Z" fill="#1A1037"/>
<path d="M82.4881 6.96656C82.1445 7.01128 81.8095 7.1831 81.5627 7.44318C81.361 7.655 81.2288 7.91155 81.1639 8.21281C81.1438 8.30931 81.1426 8.7106 81.1426 18.7571C81.1426 27.2667 81.1449 29.2237 81.158 29.3249C81.2004 29.6651 81.2571 29.9192 81.355 30.2158C81.7657 31.4443 82.7524 32.4282 83.9844 32.8377C84.2854 32.9366 84.5521 32.9954 84.8838 33.0342C85.0313 33.0519 84.5131 33.0507 93.4966 33.0459L99.5946 33.0437V30.3664V27.6892H93.5048H87.4152V25.1531V22.6171H92.6965H97.9777V19.9398V17.2626H92.6965H87.4152L87.4176 14.7877L87.4212 12.314L93.5084 12.3105L99.5946 12.3081V9.63088V6.95361L91.0831 6.9548C86.1726 6.95598 82.5352 6.96068 82.4881 6.96656Z" fill="#1A1037"/>
<path d="M104.109 6.96716C103.765 7.01189 103.43 7.1837 103.183 7.44377C102.981 7.6556 102.849 7.91215 102.784 8.21341C102.764 8.30991 102.763 8.71121 102.763 18.7577C102.763 27.2673 102.766 29.2243 102.778 29.3255C102.821 29.6657 102.878 29.9198 102.976 30.2164C103.386 31.4449 104.373 32.4288 105.605 32.8383C105.893 32.9337 106.114 32.983 106.451 33.0302C106.567 33.0454 106.785 33.0489 107.906 33.0525L109.225 33.0572V25.3102V17.5632L109.373 17.8515C109.875 18.8259 110.326 19.5944 111.542 21.5468C111.685 21.7763 113.394 24.4523 115.34 27.4932C117.286 30.5353 118.878 33.0302 118.878 33.0395C118.878 33.0537 119.217 33.056 121.343 33.0525C123.659 33.0489 123.81 33.0478 123.894 33.0278C124.203 32.9548 124.447 32.8277 124.656 32.63C124.886 32.4123 125.037 32.1463 125.117 31.8085C125.138 31.7239 125.14 31.2225 125.141 19.3367L125.145 6.95422H121.97H118.796V14.8177L118.795 22.6824L118.686 22.4729C118.626 22.3588 118.514 22.141 118.436 21.9904C117.934 21.023 117.295 19.9274 116.498 18.6753C116.368 18.4718 114.636 15.7627 112.647 12.6559C110.659 9.5491 109.03 6.99541 109.026 6.98011L109.022 6.95422L106.606 6.9554C105.271 6.95657 104.155 6.96246 104.109 6.96716Z" fill="#1A1037"/>
<path d="M181.893 6.96656C181.55 7.01128 181.215 7.1831 180.968 7.44318C180.766 7.655 180.635 7.91155 180.57 8.21281C180.549 8.30931 180.549 8.7106 180.549 18.7571C180.549 27.2667 180.55 29.2237 180.564 29.3249C180.606 29.6651 180.663 29.9192 180.76 30.2158C181.172 31.4443 182.158 32.4282 183.39 32.8377C183.691 32.9366 183.958 32.9954 184.289 33.0342C184.437 33.0519 183.919 33.0507 192.902 33.0459L199 33.0437V30.3664V27.6892H192.91H186.821V25.1531V22.6171H192.102H197.383V19.9398V17.2626H192.102H186.821L186.824 14.7877L186.827 12.314L192.914 12.3105L199 12.3081V9.63088V6.95361L190.489 6.9548C185.579 6.95598 181.941 6.96068 181.893 6.96656Z" fill="#1A1037"/>
<path d="M155.765 6.99097C155.189 7.06512 154.68 7.48288 154.496 8.0348C154.445 8.18897 154.424 8.30783 154.416 8.48435C154.411 8.63498 154.411 8.65028 154.446 8.77855C154.466 8.85269 154.753 9.87182 155.084 11.0439C155.415 12.2149 156.741 16.9151 158.031 21.4882C159.319 26.0612 160.388 29.8447 160.404 29.8965C160.507 30.2249 160.569 30.4002 160.633 30.545C161.007 31.3876 161.646 32.0819 162.458 32.5244C162.852 32.7386 163.317 32.8997 163.754 32.9727C164.093 33.0292 163.97 33.0269 167.036 33.0221C168.626 33.0199 169.927 33.0162 169.927 33.0162C169.927 33.0162 171.668 27.1581 173.794 19.9995L177.66 6.98392L174.149 6.98038C172.216 6.9792 170.635 6.98038 170.631 6.98273C170.624 6.99097 170.426 7.66175 170.21 8.41374C169.603 10.5297 168.86 13.3046 168.022 16.5985C167.243 19.6606 166.588 22.4861 166.15 24.6715C166.045 25.1964 165.885 26.0472 165.885 26.0814C165.885 26.0977 165.871 26.1014 165.802 26.1014C165.757 26.1014 165.72 26.0966 165.72 26.0907C165.72 26.086 165.692 25.9366 165.66 25.7589C165.118 22.8062 164.058 18.3072 162.628 12.8856C162.023 10.5967 161.513 8.76914 161.044 7.22163L160.971 6.97803L158.409 6.9792C156.987 6.98038 155.811 6.98627 155.765 6.99097Z" fill="#1A1037"/>
<path d="M24.7714 28.3064C24.6936 28.3805 24.4044 28.6501 24.264 28.7794C24.2216 28.8183 24.1401 28.8948 24.081 28.9513C24.0232 29.0065 23.9382 29.0854 23.8922 29.1278C23.7836 29.229 23.2443 29.7315 23.131 29.8374C23.0814 29.8833 22.967 29.9904 22.8773 30.0752C22.6165 30.3176 22.3144 30.6 22.122 30.7789C22.0252 30.8707 21.9108 30.9765 21.8683 31.0154C21.8257 31.0543 21.7467 31.1284 21.6913 31.1802C21.5709 31.2943 21.5036 31.3579 21.1189 31.7157C20.9572 31.8663 20.7872 32.0252 20.7412 32.0675C20.6964 32.111 20.5335 32.2617 20.3812 32.4041C19.9646 32.7924 19.7605 32.983 19.6554 33.0819C19.6035 33.1302 19.5244 33.2043 19.4784 33.2467C19.4336 33.2878 19.3509 33.3643 19.2954 33.4173C19.24 33.4691 19.155 33.5479 19.1066 33.5927C19.024 33.6692 18.9604 33.7292 18.7078 33.9669C18.6523 34.0187 18.6027 34.0574 18.5921 34.0552C18.5779 34.0528 18.5626 34.0115 18.539 33.9104C18.519 33.8327 18.4988 33.7492 18.493 33.7244C18.4859 33.7009 18.4764 33.6609 18.4693 33.6362C18.4635 33.6127 18.434 33.4914 18.4044 33.369C18.3537 33.1549 18.3455 33.123 18.3171 33.016C18.3113 32.9902 18.2758 32.8465 18.2392 32.6983C18.2038 32.5488 18.1685 32.4088 18.1625 32.3864C18.1567 32.364 18.1472 32.3217 18.1401 32.2923C18.1341 32.2628 18.1247 32.2263 18.1212 32.2099C18.1165 32.1934 18.1094 32.1617 18.1047 32.1393C18.0988 32.1169 18.0776 32.0322 18.0575 31.9509C18.0021 31.7344 17.9997 31.7262 17.9855 31.6627C17.9631 31.5685 17.9608 31.5627 17.949 31.5627C17.9383 31.5627 17.7944 31.6768 17.2668 32.1028C17.1334 32.211 17.0107 32.3087 16.993 32.3217C16.9752 32.3347 16.8821 32.4088 16.7853 32.4864C16.6142 32.6253 16.2164 32.9454 15.6606 33.3914C15.5083 33.5138 15.3207 33.6644 15.2439 33.7257C15.1401 33.8092 15.1071 33.8422 15.113 33.8563C15.12 33.8739 15.1248 33.8927 15.1508 34.0045C15.1579 34.0304 15.1884 34.1552 15.2215 34.2811C15.2534 34.4071 15.2828 34.5258 15.2876 34.5459C15.2923 34.5647 15.3006 34.6023 15.3077 34.6283C15.3136 34.6542 15.3243 34.6942 15.329 34.7165C15.3348 34.7389 15.3585 34.8318 15.3832 34.9224C15.4069 35.0131 15.4316 35.1072 15.4374 35.1308C15.4434 35.1554 15.454 35.1967 15.46 35.2225C15.467 35.2484 15.4765 35.2897 15.4823 35.3132C15.4883 35.3379 15.5024 35.3897 15.5131 35.4284C15.5378 35.5203 15.6251 35.8522 15.6369 35.9051C15.6417 35.9274 15.6558 35.978 15.6664 36.0169C15.6971 36.1275 15.7561 36.3534 15.7668 36.3993C15.7715 36.4217 15.7928 36.5017 15.8128 36.5759C15.8859 36.8442 15.9107 36.9359 15.932 37.0172C15.9568 37.1102 15.9992 37.2667 16.0382 37.4056C16.0524 37.4573 16.0689 37.5185 16.0736 37.5409C16.0795 37.5632 16.0889 37.6009 16.0949 37.6233C16.1173 37.7021 16.1598 37.8539 16.1881 37.9587C16.2046 38.0163 16.2224 38.0798 16.227 38.0998C16.2329 38.1187 16.2482 38.1752 16.2613 38.2234C16.2742 38.2717 16.2884 38.3247 16.2931 38.341C16.2966 38.3575 16.3132 38.4153 16.3286 38.4705C16.345 38.5258 16.3628 38.5918 16.3699 38.6177C16.377 38.6435 16.3875 38.6777 16.3923 38.6942C16.397 38.7107 16.4076 38.7448 16.4147 38.7707C16.5043 39.0907 16.5268 39.1719 16.5469 39.2473C16.5598 39.2956 16.5763 39.3532 16.5823 39.3732C16.5882 39.3943 16.5976 39.4297 16.6035 39.4497C16.6094 39.4708 16.6189 39.5014 16.6224 39.5179C16.6271 39.5344 16.6413 39.5814 16.6542 39.6238C16.6673 39.6662 16.6826 39.7157 16.6873 39.7357C16.7133 39.8309 16.7322 39.9039 16.7393 39.9322C16.7428 39.9509 16.7511 39.965 16.7569 39.965C16.7617 39.965 16.8348 39.8945 16.9186 39.8098C17.216 39.5049 17.6645 39.0613 17.91 38.8294C18.0468 38.7 18.3195 38.4412 18.5177 38.2541C18.7149 38.0657 18.9721 37.8222 19.089 37.7127C19.2058 37.602 19.3569 37.4584 19.4253 37.3938C19.4937 37.3291 19.5999 37.2278 19.6613 37.1702C19.7227 37.1113 19.8242 37.0161 19.8856 36.9583C19.9469 36.8996 20.0508 36.8018 20.1157 36.7407C20.1806 36.6794 20.2927 36.5736 20.3636 36.5053C20.4356 36.4371 20.642 36.2417 20.8238 36.0698C21.0056 35.8981 21.2133 35.7027 21.2841 35.6344C21.3561 35.5662 21.4647 35.4638 21.526 35.4062C21.5874 35.3484 21.6865 35.2554 21.7444 35.2002C21.8033 35.1437 21.9461 35.0083 22.063 34.8989C22.1798 34.7894 22.3202 34.6564 22.3757 34.6035C22.5374 34.4505 23.19 33.835 23.4968 33.5455C23.5523 33.4938 23.6503 33.4008 23.7152 33.3397C23.7801 33.2773 23.8816 33.1819 23.9395 33.1278C23.9984 33.0725 24.1046 32.9724 24.1755 32.9042C24.2474 32.8359 24.3536 32.7359 24.4115 32.6818C24.4706 32.6264 24.5684 32.5347 24.6299 32.4758C24.6924 32.4171 24.8329 32.2841 24.9426 32.1804C25.0524 32.0769 25.1928 31.9439 25.2554 31.885C25.3167 31.8274 25.4736 31.6792 25.6035 31.5568C25.7333 31.4343 25.882 31.2943 25.934 31.2449C26.072 31.1143 26.6668 30.5529 27.0196 30.221C27.1884 30.0634 27.3797 29.8822 27.4445 29.8209C27.5094 29.7586 27.5968 29.6751 27.6393 29.6362L27.716 29.5632L27.5861 29.5032C27.5141 29.4691 27.4163 29.4232 27.3679 29.4008C27.3195 29.3773 27.2391 29.3408 27.1908 29.3173C27.0775 29.2655 26.9665 29.2137 26.825 29.1467C26.7635 29.1184 26.6893 29.0843 26.6597 29.0702C26.6302 29.0572 26.5229 29.0066 26.419 28.9572C26.3163 28.9077 26.2278 28.8677 26.2278 28.8677C26.2278 28.8677 26.1582 28.8359 26.0767 28.7972C25.9953 28.7594 25.9032 28.7159 25.8725 28.7018C25.8419 28.6877 25.7499 28.6453 25.6695 28.6077C25.5893 28.5688 25.5197 28.5382 25.5197 28.5382C25.5197 28.5382 25.45 28.5064 25.3687 28.4675C25.2872 28.4299 25.1952 28.3864 25.1644 28.3723C25.1337 28.3582 25.0524 28.3206 24.9851 28.2899C24.9178 28.2582 24.86 28.2323 24.8552 28.2323C24.8518 28.2323 24.814 28.2652 24.7714 28.3064Z" fill="#FFBD17"/>
</g>
</g>
<defs>
<clipPath id="clip0_1384_28">
<rect width="199" height="40" fill="white"/>
</clipPath>
</defs>
</svg>
